<svg xmlns="http://www.w3.org/2000/svg" width="995.689" height="898.241" viewBox="0 0 995.689 898.241"><defs><style>.a{opacity:0.43;}.b{fill:#ebebeb;}.c{fill:#e0e0e0;}.d{fill:#f5f5f5;}.e{fill:#fafafa;}.f{fill:#fff;}.g{fill:#455a64;}.h{fill:#263238;}.i{fill:#22c6c6;}.j{opacity:0.4;}.k{fill:#ffbe9d;}.l{fill:#eb996e;}.m{fill:#e8505b;}.n{opacity:0.6;}.o{opacity:0.2;}</style></defs><g class="a" transform="translate(-529.02 -135.058)"><g transform="translate(529.02 135.058)"><g transform="translate(842.663 616.565)"><g transform="translate(85.562 113.353)"><path class="b" d="M979.017,484.987c8.72-4.5,18.987-5.083,28.665-3.484,5.2.86,10.623,2.416,14.162,6.323s4.209,10.781.146,14.137c-2.42,2-5.793,2.3-8.929,2.266-7.577-.089-15.986-1.423-22.039,3.136-3.455,2.6-5.755,6.927-9.883,8.2-4.04,1.252-8.6-1.132-10.741-4.779s-2.215-8.2-1.217-12.312A18.8,18.8,0,0,1,979.017,484.987Z" transform="translate(-968.561 -480.695)"/></g><g transform="translate(71.009)"><path class="b" d="M966.7,506.1c5.332,7.615,15.695,5.094,20.5.446s6.834-11.385,8.684-17.809c4.224-14.677,8.481-30.074,5.341-45.022-.94-4.469-2.61-8.924-5.751-12.24s-7.968-5.288-12.383-4.12c-5.225,1.379-8.471,6.5-10.819,11.366a107.317,107.317,0,0,0-10.6,46.056c-.028,7.419.847,15.2,5.032,21.323" transform="translate(-961.67 -427.019)"/></g><g transform="translate(0 24.502)"><path class="b" d="M989.446,504.129c5.791-6.872,6.889-16.892,4.312-25.5s-8.4-15.929-15.1-21.906a81.3,81.3,0,0,0-27.044-15.957c-3.909-1.375-8.035-2.46-12.162-2.065s-8.28,2.5-10.206,6.175c-2.845,5.427-.116,12.01,2.834,17.382a205.93,205.93,0,0,0,17.763,27.048c5.324,6.863,11.423,13.634,19.536,16.736s16.542,2.737,20.841-2.891" transform="translate(-928.045 -438.621)"/></g><g transform="translate(75.584 123.927)"><path class="c" d="M963.933,555.723a16.47,16.47,0,0,0,.484-3.459c.245-2.519.551-5.681.919-9.444a136.028,136.028,0,0,1,2.124-13.849,106.7,106.7,0,0,1,5.035-16.347,60.276,60.276,0,0,1,8.346-14.793,31.184,31.184,0,0,1,10.555-8.772,29.531,29.531,0,0,1,8.886-2.769,16.5,16.5,0,0,0,3.446-.5,16.168,16.168,0,0,0-3.506-.053,26.9,26.9,0,0,0-9.269,2.41A31.148,31.148,0,0,0,979.822,497a58.9,58.9,0,0,0-8.654,15.089,100.116,100.116,0,0,0-5,16.616,117.412,117.412,0,0,0-1.842,14.026c-.3,4.01-.411,7.256-.466,9.5A16.207,16.207,0,0,0,963.933,555.723Z" transform="translate(-963.836 -485.702)"/></g><g transform="translate(75.583 30.596)"><path class="c" d="M964.584,597.6a6.708,6.708,0,0,0,.093-1.607c0-1.206-.006-2.726-.011-4.591-.013-3.983-.01-9.75.2-16.869.353-14.242,1.58-29.567,3.947-51.173,2.243-20.318,5.254-43.962,8.43-59.336.68-3.5,1.367-6.644,2.013-9.4.617-2.76,1.142-5.142,1.649-7.068.435-1.812.79-3.29,1.073-4.462a6.891,6.891,0,0,0,.281-1.584,6.759,6.759,0,0,0-.557,1.506c-.351,1.155-.792,2.61-1.333,4.4-.591,1.909-1.2,4.274-1.89,7.024-.72,2.743-1.476,5.881-2.224,9.372a521.159,521.159,0,0,0-8.861,55.057c-2.374,21.652-3.442,41.366-3.537,55.644-.084,7.138.068,12.916.249,16.9.114,1.865.207,3.383.281,4.589A6.863,6.863,0,0,0,964.584,597.6Z" transform="translate(-963.836 -441.507)"/></g><g transform="translate(25.564 42.223)"><path class="c" d="M991.013,553.449a30.523,30.523,0,0,0-.032-4.8c-.177-3.081-.6-7.537-1.47-12.994a171.742,171.742,0,0,0-4.226-18.93,154.955,154.955,0,0,0-7.917-22.4c-6.566-15.577-15.488-28.313-23.249-36.2a59.15,59.15,0,0,0-5.468-5.083c-.84-.71-1.582-1.417-2.338-1.979q-1.137-.785-2.12-1.461a30.2,30.2,0,0,0-4.038-2.585c-.23.31,5.721,3.812,13.235,11.805,7.482,7.978,16.155,20.626,22.668,36.072a177.011,177.011,0,0,1,7.962,22.2,192.438,192.438,0,0,1,4.5,18.742c.99,5.4,1.563,9.812,1.909,12.867A31.133,31.133,0,0,0,991.013,553.449Z" transform="translate(-940.15 -447.012)"/></g><g transform="translate(39.675 215.734)"><path class="c" d="M946.832,529.175l3.81,52.2H1017.7l3.81-52.2Z" transform="translate(-946.832 -529.175)"/></g><g transform="translate(33.198 195.159)"><rect class="c" width="89.157" height="20.575"/></g><g transform="translate(33.198 265.935)"><path class="b" d="M943.765,552.947v5.7h87.684v-5.7Z" transform="translate(-943.765 -552.947)"/></g><g transform="translate(37.388 271.638)"><path class="c" d="M949.855,565.685l-4.106-10.038h80.3l-4.79,10.038Z" transform="translate(-945.749 -555.647)"/></g><g transform="translate(40.807 225.461)"><path class="d" d="M1019.67,541.113a2.139,2.139,0,0,1-.313.479l-1,1.33-3.907,5-.173.222-.169-.232c-2.456-3.4-5.736-7.932-9.6-13.275h.553l-9.448,13.38-.3.42-.332-.4c-3.486-4.15-7.273-8.656-11.205-13.334l.646-.008c-.194.245-.406.511-.617.775-3.476,4.359-6.84,8.574-10.021,12.563l-.334.418-.308-.437-9.454-13.374.551.025L952.6,547.934l-.207.237-.158-.266c-1.535-2.578-2.758-4.633-3.645-6.124-.382-.665-.691-1.2-.936-1.63a2.414,2.414,0,0,1-.285-.583,2.692,2.692,0,0,1,.389.517c.273.414.615.931,1.037,1.569l3.827,6.014-.365-.029,11.456-13.427.289-.34.26.366,9.539,13.317-.642-.019,10-12.58c.211-.266.42-.53.617-.775l.319-.4.327.391c3.919,4.688,7.7,9.2,11.174,13.359l-.627.025c3.448-4.811,6.661-9.29,9.543-13.313l.281-.389.272.389c3.78,5.4,6.99,9.987,9.393,13.418l-.34-.011c1.713-2.053,3.073-3.683,4.063-4.872.441-.511.8-.925,1.09-1.259C1019.518,541.24,1019.655,541.1,1019.67,541.113Z" transform="translate(-947.368 -533.781)"/></g><g transform="translate(40.235 214.972)"><path class="d" d="M1022.151,529.232c0,.23-16.8.416-37.525.416s-37.529-.186-37.529-.416,16.8-.418,37.529-.418S1022.151,529,1022.151,529.232Z" transform="translate(-947.097 -528.814)"/></g><g transform="translate(37.107 271.784)"><path class="d" d="M1027.185,556.132c0,.232-18.261.418-40.783.418s-40.785-.186-40.785-.418,18.256-.416,40.785-.416S1027.185,555.9,1027.185,556.132Z" transform="translate(-945.616 -555.716)"/></g></g><g transform="translate(0 789.197)"><g transform="translate(0.255 0)"><path class="d" d="M538.9,508.765v58.442h-9.759v6.342H538.9v39.115H721.294v-35.59H707.783v-7.752h13.511V557.694H727.3v-5.286h-7.131V508.765Z" transform="translate(-529.141 -508.765)"/></g><g transform="translate(143.973)"><path class="c" d="M597.2,508.935V612.013h48.436V576.422H632.121v-7.1l13.511.24V557.933l6.122.008-.117-6.01-7.131-.175V508.765Z" transform="translate(-597.195 -508.765)"/></g><g transform="translate(0 63.297)"><path class="c" d="M676.445,539.386c0,.357-33.005.648-73.71.648s-73.715-.291-73.715-.648,33-.648,73.715-.648S676.445,539.029,676.445,539.386Z" transform="translate(-529.02 -538.738)"/></g><g transform="translate(0 57.361)"><path class="c" d="M676.445,536.575c0,.357-33.005.648-73.71.648s-73.715-.291-73.715-.648,33-.648,73.715-.648S676.445,536.218,676.445,536.575Z" transform="translate(-529.02 -535.927)"/></g><g transform="translate(9.467 41.385)"><path class="c" d="M680.928,529.008c0,.359-33.005.648-73.708.648-40.72,0-73.717-.289-73.717-.648s33-.646,73.717-.646C647.923,528.362,680.928,528.651,680.928,529.008Z" transform="translate(-533.503 -528.362)"/></g><g transform="translate(10.377 84.922)"><path class="c" d="M681.359,549.626c0,.357-33.005.646-73.708.646s-73.717-.289-73.717-.646,33-.648,73.717-.648S681.359,549.267,681.359,549.626Z" transform="translate(-533.934 -548.978)"/></g></g><g transform="translate(29.105 687.541)"><g transform="translate(0.258 0)"><path class="d" d="M552.68,460.628V519.07h-9.756v6.342h9.756v39.115H735.075v-35.59H721.566v-7.752h13.509V509.556h6.006v-5.286H733.95V460.628Z" transform="translate(-542.924 -460.628)"/></g><g transform="translate(143.974)"><path class="c" d="M610.978,460.8V563.876h48.436V528.286H645.9v-7.1l13.511.24V509.8l6.122.008-.117-6.009-7.131-.176V460.628Z" transform="translate(-610.978 -460.628)"/></g><g transform="translate(0 63.297)"><path class="c" d="M690.227,491.249c0,.357-33.006.648-73.708.648-40.72,0-73.717-.291-73.717-.648s33-.648,73.717-.648C657.222,490.6,690.227,490.892,690.227,491.249Z" transform="translate(-542.802 -490.601)"/></g><g transform="translate(0 57.361)"><path class="c" d="M690.227,488.438c0,.357-33.006.648-73.708.648-40.72,0-73.717-.291-73.717-.648s33-.648,73.717-.648C657.222,487.79,690.227,488.081,690.227,488.438Z" transform="translate(-542.802 -487.79)"/></g><g transform="translate(9.467 41.385)"><path class="c" d="M694.71,480.871c0,.359-33,.648-73.708.648s-73.717-.289-73.717-.648,33-.646,73.717-.646S694.71,480.514,694.71,480.871Z" transform="translate(-547.285 -480.225)"/></g><g transform="translate(10.377 84.922)"><path class="c" d="M695.141,501.489c0,.357-33,.646-73.708.646s-73.717-.289-73.717-.646,33-.648,73.717-.648S695.141,501.13,695.141,501.489Z" transform="translate(-547.716 -500.841)"/></g></g><g transform="translate(42.883)"><g transform="translate(121.078)"><path class="c" d="M775.174,173.449a1.64,1.64,0,0,1-.456-.141c-.353-.137-.777-.3-1.3-.509q-1.825-.76-4.944-2.057c-4.365-1.871-10.527-4.509-18.1-7.75l-59.555-25.946-2.063-.9h.431l-58.354,24.953-17.657,7.419-4.815,1.964a11.56,11.56,0,0,1-1.7.619,11.286,11.286,0,0,1,1.62-.815q1.749-.8,4.735-2.148c4.224-1.863,10.185-4.494,17.522-7.731,14.933-6.475,35.451-15.372,58.225-25.249l.215-.1.215.1c.652.287,1.358.6,2.065.906,23.167,10.225,44.139,19.484,59.426,26.233,7.516,3.375,13.63,6.118,17.963,8.065q3.067,1.413,4.861,2.243c.5.243.914.441,1.254.608A1.508,1.508,0,0,1,775.174,173.449Z" transform="translate(-606.66 -135.058)"/></g><g transform="translate(0 29.839)"><rect class="c" width="382.493" height="286.392"/></g><g transform="translate(13.371 43.154)"><rect class="e" width="357.186" height="261.306"/></g><g transform="translate(92.267 157.321)"><path class="c" d="M593.017,209.554s.372,43.864,2.6,57.249l55.019-2.6s-4.832-43.121-2.974-54.645Z" transform="translate(-593.017 -209.554)"/><g transform="translate(14.781 6.145)"><path class="f" d="M612.334,212.521a.884.884,0,0,1,.2-.021c.154-.006.351-.013.593-.023a13.56,13.56,0,0,1,2.289.114,12.5,12.5,0,0,1,3.5,1.041,11.429,11.429,0,0,1,3.808,3.011,13.215,13.215,0,0,1,2.638,5.3,12.778,12.778,0,0,1-.577,6.8,20.166,20.166,0,0,1-1.546,3.4,35.617,35.617,0,0,0-1.761,3.432,29.376,29.376,0,0,0-2.224,7.807l-.025.182-.177,0c-1.736.027-3.571.057-5.432.089-1.953.03-3.875.059-5.7.089l-.2,0-.008-.2a16.271,16.271,0,0,0-2.642-7.52c-.661-1.128-1.383-2.184-2.059-3.252a32.074,32.074,0,0,1-1.932-3.153,10.612,10.612,0,0,1-.861-6.7,14.287,14.287,0,0,1,2.12-5.482,10.636,10.636,0,0,1,3.581-3.225A13.5,13.5,0,0,1,609.3,212.9a14.083,14.083,0,0,1,2.247-.365c.26-.015.456-.025.589-.023a.7.7,0,0,1,.2.013.987.987,0,0,1-.2.025l-.585.061a16.635,16.635,0,0,0-2.215.435,13.664,13.664,0,0,0-3.309,1.347,10.475,10.475,0,0,0-3.461,3.193,14.126,14.126,0,0,0-2.029,5.381,10.319,10.319,0,0,0,.87,6.485,32.786,32.786,0,0,0,1.928,3.111c.672,1.052,1.407,2.118,2.076,3.254a16.592,16.592,0,0,1,2.713,7.714l-.209-.2,5.7-.093,5.434-.084-.2.186a29.673,29.673,0,0,1,2.27-7.926,36.476,36.476,0,0,1,1.791-3.461,20.015,20.015,0,0,0,1.533-3.328,12.5,12.5,0,0,0,.6-6.612,13.051,13.051,0,0,0-2.532-5.191,11.37,11.37,0,0,0-3.689-2.99,12.715,12.715,0,0,0-3.425-1.088,15.585,15.585,0,0,0-2.268-.184l-.591-.015A.852.852,0,0,1,612.334,212.521Z" transform="translate(-600.016 -212.464)"/><g transform="translate(5.673 10.498)"><path class="f" d="M612.169,237.555s-.013-.059-.034-.173l-.082-.509c-.07-.456-.171-1.117-.3-1.964-.247-1.708-.614-4.179-.859-7.258-.059-.769-.112-1.575-.144-2.418s-.063-1.719-.015-2.631a7.321,7.321,0,0,1,.621-2.752,4.167,4.167,0,0,1,2.1-2.1,2.813,2.813,0,0,1,2.995.57,2.084,2.084,0,0,1,.642,1.508,2.683,2.683,0,0,1-.562,1.575,3.611,3.611,0,0,1-1.324,1.069,6.978,6.978,0,0,1-1.635.543,19.659,19.659,0,0,1-3.472.4,20.018,20.018,0,0,1-3.495-.169,6.588,6.588,0,0,1-1.656-.477,4.288,4.288,0,0,1-1.385-.986,3.209,3.209,0,0,1-.8-1.472,2.469,2.469,0,0,1,.2-1.628,2.213,2.213,0,0,1,1.149-1.121,1.989,1.989,0,0,1,1.567.074,2.937,2.937,0,0,1,1.168.993,4.046,4.046,0,0,1,.585,1.371,16.759,16.759,0,0,1,.279,2.807c.093,1.812.182,3.5.262,5.039.154,3.075.281,5.567.368,7.3.04.855.07,1.523.093,1.983l.019.517c0,.116,0,.175,0,.175s-.008-.059-.019-.175l-.036-.515c-.027-.46-.07-1.126-.122-1.981-.1-1.73-.245-4.219-.422-7.294-.087-1.539-.182-3.227-.285-5.037a16.6,16.6,0,0,0-.281-2.779,3.922,3.922,0,0,0-.566-1.318,2.791,2.791,0,0,0-1.107-.938,1.823,1.823,0,0,0-1.442-.068,2.059,2.059,0,0,0-1.062,1.041,2.334,2.334,0,0,0-.182,1.523,3.053,3.053,0,0,0,.76,1.394,4.972,4.972,0,0,0,2.946,1.411,20.426,20.426,0,0,0,3.461.167,19.684,19.684,0,0,0,3.442-.4,6.744,6.744,0,0,0,1.6-.528,3.387,3.387,0,0,0,1.263-1.018,2.5,2.5,0,0,0,.532-1.476,1.929,1.929,0,0,0-.591-1.39,2.651,2.651,0,0,0-2.821-.539,4.023,4.023,0,0,0-2.021,2.019,7.228,7.228,0,0,0-.615,2.695c-.051.9-.019,1.778.006,2.617s.076,1.647.131,2.416c.23,3.073.579,5.548.8,7.256.116.849.205,1.512.268,1.968l.065.513C612.167,237.5,612.169,237.555,612.169,237.555Z" transform="translate(-602.703 -217.435)"/></g><g transform="translate(7.862 30.387)"><path class="f" d="M603.775,227.372c.025.025.072.684.142,1.829.07,1.328.15,2.914.245,4.766l-.044-.116,3.7,4.268-.19-.08,4.281-.243-.18.091c.686-.838,1.4-1.711,2.131-2.6l1.071-1.3-.057.167c-.059-2.509-.112-4.885-.163-7.051l.234.22c-3.121.036-5.826.065-8,.089l-2.31,0a6.133,6.133,0,0,1-.862-.032,4.036,4.036,0,0,1,.762-.072c.665-.036,1.409-.074,2.258-.118l8.141-.319.228-.011.006.232c.065,2.167.137,4.543.211,7.051l0,.093-.061.074q-.526.643-1.068,1.3l-2.137,2.6-.07.087-.11,0-4.285.209-.116.006-.074-.089c-1.324-1.575-2.549-3.035-3.634-4.327l-.044-.053v-.063q-.029-2.851-.046-4.889A14.185,14.185,0,0,1,603.775,227.372Z" transform="translate(-603.739 -226.853)"/></g><g transform="translate(8.261 35.728)"><path class="f" d="M614.616,230.759a2.753,2.753,0,0,1-.408-.173c-.255-.116-.634-.277-1.111-.439a10.826,10.826,0,0,0-7.691.234c-.467.192-.832.374-1.081.507a2.648,2.648,0,0,1-.4.2,2.125,2.125,0,0,1,.363-.253,8.851,8.851,0,0,1,1.066-.562,10.29,10.29,0,0,1,7.782-.236,9.076,9.076,0,0,1,1.1.494A1.846,1.846,0,0,1,614.616,230.759Z" transform="translate(-603.928 -229.382)"/></g><g transform="translate(8.261 34.015)"><path class="f" d="M614.614,229.946a2.378,2.378,0,0,1-.405-.171c-.258-.116-.636-.277-1.111-.439a10.831,10.831,0,0,0-7.693.234c-.465.192-.832.374-1.081.507a2.384,2.384,0,0,1-.4.194,2.068,2.068,0,0,1,.361-.253,9.071,9.071,0,0,1,1.068-.56,10.284,10.284,0,0,1,7.78-.236,8.821,8.821,0,0,1,1.1.494A2.062,2.062,0,0,1,614.614,229.946Z" transform="translate(-603.928 -228.571)"/></g><g transform="translate(8.16 32.387)"><path class="f" d="M614.566,229.175a2.615,2.615,0,0,1-.406-.171c-.258-.118-.634-.277-1.111-.441a10.832,10.832,0,0,0-7.693.234c-.465.192-.832.376-1.081.507a2.443,2.443,0,0,1-.4.2,1.933,1.933,0,0,1,.361-.253,9.074,9.074,0,0,1,1.068-.56,10.3,10.3,0,0,1,7.78-.239,9.459,9.459,0,0,1,1.1.494A2.039,2.039,0,0,1,614.566,229.175Z" transform="translate(-603.88 -227.8)"/></g></g></g><g transform="translate(30.992 85.611)"><path class="b" d="M564,175.6s.372,43.866,2.6,57.249l55.019-2.6s-4.834-43.123-2.975-54.647Z" transform="translate(-564.002 -175.597)"/><g transform="translate(9.433 18.301)"><path class="f" d="M605.39,184.387c.017.3-8.234,1.035-18.428,1.649s-18.474.868-18.493.57,8.232-1.035,18.43-1.647S605.371,184.09,605.39,184.387Z" transform="translate(-568.469 -184.263)"/></g><g transform="translate(9.448 27.593)"><path class="f" d="M605.4,188.787c.017.3-8.234,1.035-18.428,1.647s-18.474.87-18.493.572,8.232-1.035,18.43-1.649S605.378,188.49,605.4,188.787Z" transform="translate(-568.476 -188.663)"/></g><g transform="translate(15.982 36.642)"><path class="f" d="M592.6,193.145c.019.3-4.676.821-10.483,1.172s-10.534.391-10.551.093,4.676-.821,10.485-1.17S592.587,192.849,592.6,193.145Z" transform="translate(-571.57 -192.948)"/></g></g><g transform="translate(28.388 214.665)"><path class="b" d="M562.769,236.708s.372,43.867,2.6,57.249l55.017-2.6s-4.832-43.123-2.973-54.647Z" transform="translate(-562.769 -236.708)"/><g transform="translate(9.434 18.302)"><path class="f" d="M604.157,245.5c.017.3-8.234,1.035-18.428,1.649s-18.474.868-18.493.572,8.232-1.037,18.428-1.649S604.138,245.2,604.157,245.5Z" transform="translate(-567.236 -245.374)"/></g><g transform="translate(9.448 27.593)"><path class="f" d="M604.164,249.9c.017.3-8.234,1.035-18.428,1.647s-18.476.87-18.493.572,8.232-1.035,18.428-1.647S604.145,249.6,604.164,249.9Z" transform="translate(-567.243 -249.774)"/></g><g transform="translate(15.982 36.642)"><path class="f" d="M591.371,254.256c.019.3-4.676.824-10.483,1.172s-10.534.391-10.551.1,4.676-.821,10.485-1.172S591.354,253.96,591.371,254.256Z" transform="translate(-570.337 -254.059)"/></g></g><g transform="translate(164.292 87.498)"><g transform="translate(14.45 9.739)"><path class="b" d="M633.965,181.1l5.45,126.52,157.943,1.9-7.09-126.753Z" transform="translate(-633.965 -181.103)"/></g><g transform="translate(12.08 8.293)"><g transform="translate(0.54 0.539)"><rect class="d" width="156.892" height="118.469"/></g><path class="c" d="M790.276,299.427s-.032-.762-.049-2.2q-.019-2.2-.051-6.321c-.025-5.554-.063-13.646-.114-23.973-.055-20.656-.133-50.217-.23-85.978l.444.443-156.88.1h-.013l.538-.541c-.019,42.608-.036,82.95-.053,118.47l-.486-.488c46.422.1,85.579.184,113.17.243,13.8.057,24.7.1,32.186.131l8.555.057c.953.013,1.683.021,2.213.03.5.008.769.027.769.027s-.23.019-.712.027c-.517.008-1.231.017-2.161.03l-8.458.057c-7.467.032-18.326.074-32.076.131l-113.486.241-.486,0v-.488c-.017-35.521-.034-75.862-.053-118.47l0-.539h.553c58.385.036,112.525.07,156.88.1l.443,0v.441c-.1,35.878-.175,65.534-.23,86.257-.051,10.282-.089,18.341-.114,23.872q-.035,4.064-.051,6.238C790.308,298.728,790.276,299.427,790.276,299.427Z" transform="translate(-632.843 -180.418)"/><g transform="translate(18.808 25.088)"><g transform="translate(0.659 0.549)"><rect class="d" width="63.6" height="80.043"/></g><path class="c" d="M706.009,272.889a2.287,2.287,0,0,1-.027-.4l-.03-1.138q-.019-1.584-.057-4.378c-.03-3.867-.074-9.417-.129-16.421-.057-14.09-.142-34.028-.241-57.7l.484.484c-18.953.015-40.644.036-63.595.055-.127.114,1.016-1.012.534-.524v1.366l0,1.383v8.242q0,5.452,0,10.785c-.006,7.108-.013,14.044-.019,20.77-.023,13.444-.046,26.043-.067,37.48l-.448-.448,46.048.232c5.524.049,9.877.089,12.92.116l3.425.051c.781.017,1.208.049,1.208.049a8.646,8.646,0,0,1-1.111.051c-.815.011-1.924.03-3.341.051l-12.819.114c-11.2.057-27.133.137-46.331.232l-.446,0,0-.45c-.021-11.438-.042-24.037-.068-37.48-.006-6.726-.01-13.661-.017-20.77q0-5.331-.006-10.785V192.862c-.482.475.652-.676.545-.555l63.595.057h.486l0,.484c-.1,23.8-.184,43.847-.243,58.013-.055,6.96-.1,12.472-.129,16.314q-.035,2.737-.057,4.281c-.011.443-.019.8-.027,1.085A1.445,1.445,0,0,1,706.009,272.889Z" transform="translate(-641.749 -192.298)"/></g><g transform="translate(21.313 6.781)"><g transform="translate(0.59 0.54)"><rect class="d" width="121.887" height="11.533"/></g><path class="c" d="M765.413,195.7a6.166,6.166,0,0,1-.042-.79c-.015-.562-.032-1.3-.053-2.236-.03-2-.07-4.851-.125-8.506l.22.217c-20.556.19-67.409.321-121.881.321h-.006c1.077-1.077.3-.3.538-.536v5.867c0,1.93,0,3.827,0,5.664l-.536-.536c34.087.089,64.463.169,86.4.228l25.931.16,7.055.074,1.85.036a4.757,4.757,0,0,1,.655.038,3.078,3.078,0,0,1-.581.038l-1.78.036-6.933.074-25.807.161c-22.032.059-52.546.139-86.787.228l-.538,0v-6.2q0-1.451,0-2.921v-2.946c.241-.241-.538.536.541-.543h.006c54.472,0,101.324.133,121.881.323h.222l0,.218c-.053,3.71-.1,6.6-.125,8.633-.021.914-.038,1.637-.051,2.188A4.454,4.454,0,0,1,765.413,195.7Z" transform="translate(-642.935 -183.629)"/></g><g transform="translate(90.194 25.088)"><g transform="translate(0.66 0.548)"><rect class="d" width="52.936" height="48.242"/></g><path class="c" d="M729.149,241.087a7.407,7.407,0,0,1-.053-.931l-.053-2.619c-.027-2.359-.068-5.664-.118-9.835-.057-8.487-.139-20.47-.237-34.855l.46.458-52.932.08c-.122.116,1.018-1.018.534-.532v6.526q0,3.244,0,6.426-.006,6.361-.013,12.445c-.017,8.09-.034,15.758-.049,22.837l-.473-.473,38.184.241,10.834.125,2.889.055a8.488,8.488,0,0,1,1.031.053,5.474,5.474,0,0,1-.925.055l-2.8.055-10.726.125-38.488.241-.473,0v-.477c-.017-7.079-.032-14.747-.049-22.837q-.006-6.076-.013-12.445,0-3.184,0-6.426v-3.254l0-1.639v-1.632c-.482.479.657-.665.545-.547l52.932.08.463,0,0,.458c-.1,14.5-.177,26.59-.237,35.147-.049,4.126-.089,7.4-.118,9.731-.021,1.047-.04,1.884-.053,2.53A4.724,4.724,0,0,1,729.149,241.087Z" transform="translate(-675.553 -192.298)"/></g><g transform="translate(90.305 80.782)"><g transform="translate(0.549 0.659)"><rect class="d" width="52.936" height="24.239"/></g><path class="c" d="M729.091,243.568a16.024,16.024,0,0,1-.084-1.757l-.1-4.868c-.051-4.276-.122-10.265-.211-17.615l.393.393-52.932.148c-.486.482.65-.657.534-.536v3.174q0,1.581,0,3.144,0,3.13,0,6.173c-.006,4.055-.015,7.983-.021,11.744l-.511-.511c15.268.1,28.4.184,37.854.243l11.032.141c1.221.027,2.207.049,2.978.063a7.751,7.751,0,0,1,1.073.063,4.948,4.948,0,0,1-.95.063l-2.874.063c-2.654.036-6.335.082-10.914.142l-38.2.245-.511,0v-.515c-.008-3.761-.015-7.689-.021-11.744q0-3.041-.006-6.173v-4.73l0-.8v-.792c-.116.114,1.024-1.024.545-.543l52.932.148h.4l0,.391c-.087,7.451-.158,13.52-.209,17.853-.042,1.994-.074,3.584-.1,4.779A11.547,11.547,0,0,1,729.091,243.568Z" transform="translate(-675.605 -218.67)"/></g><g transform="translate(19.463 25.773)"><g transform="translate(0.003 0.001)"><path class="f" d="M704.089,192.623c-19.688,27.2-42.342,52.709-62.028,79.9" transform="translate(-642.061 -192.623)"/></g><path class="c" d="M642.063,272.528a3.808,3.808,0,0,1,.52-.891l1.662-2.439c1.455-2.108,3.632-5.108,6.367-8.781,5.466-7.351,13.286-17.3,22.043-28.176s16.666-20.744,22.282-27.969l6.635-8.568c.726-.923,1.328-1.687,1.822-2.317.427-.522.665-.786.7-.764a3.71,3.71,0,0,1-.522.893c-.45.661-1,1.466-1.66,2.437-1.455,2.11-3.633,5.108-6.367,8.781-5.465,7.351-13.285,17.3-22.047,28.182s-16.662,20.738-22.277,27.962l-6.635,8.568c-.727.925-1.328,1.689-1.825,2.317C642.331,272.285,642.092,272.551,642.063,272.528Z" transform="translate(-642.06 -192.622)"/></g><g transform="translate(19.464 25.636)"><g transform="translate(0.003 0.001)"><line class="f" x2="63.6" y2="80.043"/></g><path class="c" d="M705.664,272.6c-.234.186-14.662-17.583-32.222-39.683s-31.612-40.175-31.379-40.359,14.658,17.581,32.224,39.687S705.9,272.415,705.664,272.6Z" transform="translate(-642.06 -192.557)"/></g></g><g transform="translate(0 24.151)"><path class="c" d="M647.023,197.876a9.95,9.95,0,1,1-9.949-9.949A9.95,9.95,0,0,1,647.023,197.876Z" transform="translate(-627.123 -187.927)"/></g><g transform="translate(162.73)"><path class="c" d="M724.08,186.44a9.95,9.95,0,1,1-9.949-9.949A9.948,9.948,0,0,1,724.08,186.44Z" transform="translate(-704.18 -176.491)"/></g></g></g><g transform="translate(576.794 17.27)"><g transform="translate(4.139 2.832)"><path class="e" d="M804.108,156.247l.376,7.007a5.962,5.962,0,0,1,3.816-1.66,6.073,6.073,0,0,1,.648,12.128,5.959,5.959,0,0,1-3.97-1.244l.376,7.026a5.936,5.936,0,0,1,3.816-1.66,6.072,6.072,0,0,1,.648,12.126,5.945,5.945,0,0,1-3.972-1.244l.376,7.026a5.963,5.963,0,0,1,3.818-1.66,6.073,6.073,0,0,1,.648,12.128,5.956,5.956,0,0,1-3.972-1.244l.376,7.026a5.962,5.962,0,0,1,3.816-1.66,6.073,6.073,0,0,1,.65,12.128,5.961,5.961,0,0,1-3.972-1.244l.376,7.026a5.951,5.951,0,0,1,3.816-1.66,6.072,6.072,0,0,1,.648,12.126,5.955,5.955,0,0,1-3.972-1.242l.376,7.026a5.946,5.946,0,0,1,3.818-1.66,6.072,6.072,0,0,1,.648,12.126,5.945,5.945,0,0,1-3.972-1.244l.234,4.361,187.165-4.49-9.484-109.02Z" transform="translate(-804.108 -144.577)"/></g><path class="d" d="M802.148,153.248l.376,7.007a5.962,5.962,0,0,1,3.816-1.66,6.073,6.073,0,0,1,.65,12.128,5.96,5.96,0,0,1-3.972-1.244l.376,7.026a5.937,5.937,0,0,1,3.816-1.66,6.072,6.072,0,0,1,.648,12.126,5.955,5.955,0,0,1-3.972-1.242l.376,7.026a5.955,5.955,0,0,1,3.818-1.662,6.073,6.073,0,0,1,.648,12.128,5.946,5.946,0,0,1-3.972-1.244l.376,7.026a5.962,5.962,0,0,1,3.816-1.66,6.073,6.073,0,0,1,.65,12.128,5.95,5.95,0,0,1-3.972-1.244l.376,7.026a5.962,5.962,0,0,1,3.816-1.66,6.073,6.073,0,0,1,.648,12.128,5.968,5.968,0,0,1-3.972-1.244l.376,7.026a5.946,5.946,0,0,1,3.818-1.66,6.072,6.072,0,0,1,.648,12.126,5.955,5.955,0,0,1-3.972-1.242l.234,4.359,187.119-10.012-5.449-101.84Z" transform="translate(-802.148 -143.236)"/><g transform="translate(1.079 20.121)"><path class="c" d="M989.778,152.794c.017.3-41.862,2.792-93.526,5.556-51.682,2.764-93.576,4.76-93.593,4.456s41.854-2.79,93.534-5.554C947.856,154.488,989.761,152.492,989.778,152.794Z" transform="translate(-802.659 -152.764)"/></g><g transform="translate(1.951 36.413)"><path class="c" d="M990.191,160.509c.017.3-41.862,2.792-93.526,5.556-51.682,2.764-93.578,4.76-93.593,4.458s41.852-2.792,93.534-5.556C948.269,162.2,990.174,160.207,990.191,160.509Z" transform="translate(-803.072 -160.479)"/></g><g transform="translate(2.823 52.708)"><path class="c" d="M990.6,168.225c.015.3-41.862,2.79-93.526,5.554-51.682,2.766-93.578,4.76-93.593,4.458s41.852-2.79,93.534-5.556C948.682,169.917,990.587,167.921,990.6,168.225Z" transform="translate(-803.485 -168.195)"/></g><g transform="translate(3.693 69)"><path class="c" d="M991.018,175.94c.015.3-41.863,2.79-93.526,5.554-51.682,2.766-93.578,4.762-93.6,4.458s41.854-2.79,93.536-5.556C949.1,177.632,991,175.636,991.018,175.94Z" transform="translate(-803.897 -175.909)"/></g><g transform="translate(4.566 85.293)"><path class="c" d="M991.429,183.655c.017.3-41.86,2.792-93.526,5.556s-93.576,4.76-93.593,4.456,41.854-2.79,93.536-5.554C949.509,185.349,991.414,183.353,991.429,183.655Z" transform="translate(-804.31 -183.625)"/></g><g transform="translate(25.489 8.591)"><rect class="c" width="1.057" height="101.986" transform="matrix(0.999, -0.053, 0.053, 0.999, 0, 0.056)"/></g><g transform="translate(42.913 7.712)"><path class="c" d="M827.973,248.728c-.3.017-1.77-22.77-3.273-50.888s-2.479-50.935-2.175-50.952,1.768,22.765,3.273,50.892S828.277,248.713,827.973,248.728Z" transform="translate(-822.469 -146.888)"/></g><g transform="translate(9.602 9.495)"><path class="c" d="M812.2,249.572c-.3.017-1.767-22.77-3.273-50.888s-2.479-50.935-2.175-50.952,1.767,22.765,3.273,50.892S812.5,249.557,812.2,249.572Z" transform="translate(-806.695 -147.732)"/></g><g transform="translate(61.157 6.737)"><path class="c" d="M836.612,248.266c-.3.017-1.77-22.769-3.273-50.888s-2.479-50.935-2.175-50.952,1.768,22.765,3.273,50.892S836.916,248.249,836.612,248.266Z" transform="translate(-831.108 -146.426)"/></g><g transform="translate(79.401 5.761)"><path class="c" d="M845.251,247.8c-.3.015-1.77-22.772-3.274-50.888s-2.479-50.937-2.175-50.952,1.768,22.765,3.273,50.892S845.553,247.787,845.251,247.8Z" transform="translate(-839.747 -145.964)"/></g><g transform="translate(97.644 4.783)"><path class="c" d="M853.891,247.343c-.3.015-1.77-22.772-3.273-50.888s-2.479-50.937-2.177-50.954,1.77,22.765,3.276,50.895S854.193,247.326,853.891,247.343Z" transform="translate(-848.385 -145.501)"/></g><g transform="translate(115.887 3.808)"><path class="c" d="M862.529,246.879c-.3.017-1.77-22.77-3.273-50.888s-2.479-50.935-2.177-50.952,1.77,22.765,3.275,50.892S862.831,246.864,862.529,246.879Z" transform="translate(-857.024 -145.039)"/></g><g transform="translate(134.131 2.832)"><path class="c" d="M871.169,246.417c-.3.017-1.77-22.77-3.276-50.888s-2.477-50.935-2.175-50.952,1.77,22.765,3.273,50.892S871.471,246.4,871.169,246.417Z" transform="translate(-865.663 -144.577)"/></g><g transform="translate(152.375 1.856)"><path class="c" d="M879.806,245.955c-.3.017-1.768-22.769-3.273-50.888s-2.479-50.937-2.175-50.952,1.77,22.765,3.273,50.892S880.11,245.938,879.806,245.955Z" transform="translate(-874.302 -144.115)"/></g><g transform="translate(170.619 0.879)"><path class="c" d="M888.445,245.494c-.3.015-1.767-22.772-3.273-50.888s-2.479-50.937-2.175-50.954,1.768,22.765,3.273,50.895S888.749,245.477,888.445,245.494Z" transform="translate(-882.941 -143.652)"/></g><g transform="translate(20.947 11.703)"><path class="b" d="M812.067,157.768c.821,4.044,2.583,8.149,5.979,10.491a10.7,10.7,0,1,0,3.936-19.285" transform="translate(-812.067 -148.778)"/></g><g transform="translate(15.597 11.691)"><g transform="translate(4.886)"><path class="c" d="M811.859,157.743a8.514,8.514,0,1,0,8.048-8.958A8.514,8.514,0,0,0,811.859,157.743Z" transform="translate(-811.847 -148.772)"/></g><g transform="translate(0 0.44)"><path class="c" d="M809.541,154.362a5.109,5.109,0,1,0,4.83-5.375A5.108,5.108,0,0,0,809.541,154.362Z" transform="translate(-809.533 -148.981)"/></g><g transform="translate(4.765 1.455)"><path class="b" d="M811.792,158.554c.029-.173.794-.068,1.865-.437a4.869,4.869,0,0,0,3-2.866,5.25,5.25,0,0,0-.435-4.169c-.549-1-1.17-1.449-1.075-1.594.049-.116.889.112,1.721,1.164a5.346,5.346,0,0,1,.826,4.967,5.084,5.084,0,0,1-3.846,3.252C812.516,159.091,811.745,158.668,811.792,158.554Z" transform="translate(-811.79 -149.461)"/></g><g transform="translate(9.027 1.109)"><path class="b" d="M813.827,150.61c.144-.275,1.434.188,2.919-.167,1.491-.327,2.45-1.307,2.7-1.123.279.116-.475,1.723-2.454,2.194C815.006,151.953,813.627,150.836,813.827,150.61Z" transform="translate(-813.808 -149.297)"/></g><g transform="translate(5.35 10.382)"><path class="b" d="M817.078,158.665c-.308.034-.606-1.63-1.987-2.916-1.362-1.305-3.039-1.508-3.024-1.818,0-.141.446-.3,1.185-.222a4.694,4.694,0,0,1,3.981,3.761C817.353,158.2,817.22,158.657,817.078,158.665Z" transform="translate(-812.067 -153.688)"/></g></g><g transform="translate(164.782 5.695)"><path class="d" d="M880.177,154.923c.822,4.044,2.581,8.149,5.979,10.491a10.7,10.7,0,1,0,3.937-19.285" transform="translate(-880.177 -145.933)"/></g><g transform="translate(164.781 4.176)"><g transform="translate(0 0.414)"><path class="c" d="M896.62,153.2a8.228,8.228,0,1,1-8.654-7.778A8.226,8.226,0,0,1,896.62,153.2Z" transform="translate(-880.176 -145.409)"/></g><g transform="translate(10.952)"><path class="c" d="M895.23,149.888a4.937,4.937,0,1,1-5.195-4.667A4.937,4.937,0,0,1,895.23,149.888Z" transform="translate(-885.363 -145.214)"/></g><g transform="translate(10.265 1.319)"><path class="b" d="M891.505,154.224c.057.11-.64.6-1.945.53a4.923,4.923,0,0,1-4.046-2.733,5.172,5.172,0,0,1,.287-4.872c.695-1.1,1.485-1.4,1.546-1.29.108.135-.439.634-.857,1.649a5.078,5.078,0,0,0,.015,4.036,4.709,4.709,0,0,0,3.166,2.439C890.734,154.232,891.457,154.057,891.505,154.224Z" transform="translate(-885.037 -145.838)"/></g><g transform="translate(6.209 1.645)"><path class="b" d="M888.691,146.686c.224.2-.986,1.432-2.948,1.214-1.958-.251-2.845-1.73-2.581-1.875.228-.207,1.252.623,2.712.783C887.329,147,888.52,146.431,888.691,146.686Z" transform="translate(-883.117 -145.992)"/></g><g transform="translate(11.567 9.664)"><path class="b" d="M885.941,155.032c-.289.1-.722-1.915.786-3.71,1.537-1.77,3.59-1.658,3.542-1.356.047.3-1.537.68-2.705,2.07C886.375,153.406,886.25,155.03,885.941,155.032Z" transform="translate(-885.654 -149.79)"/></g></g><g transform="translate(48.417 23.049)"><path class="c" d="M943.414,206.079s-.378.089-1.121.226-1.843.374-3.267.762c-2.861.729-6.9,2.342-12.206,4.215a43.169,43.169,0,0,1-9.119,2.171,19.315,19.315,0,0,1-10.977-1.744,15.039,15.039,0,0,1-4.887-3.934,11.236,11.236,0,0,1-2.437-6.223c-.3-4.747,2.186-9.3,5.148-13.313a46.172,46.172,0,0,1,5.123-5.831,26.24,26.24,0,0,1,6.517-4.9,6.678,6.678,0,0,1,4.317-.558,5.435,5.435,0,0,1,3.453,2.817,7.5,7.5,0,0,1,.811,4.431,13.28,13.28,0,0,1-1.333,4.317,38.726,38.726,0,0,1-30.186,20.744,31.988,31.988,0,0,1-10.177-.484,22.941,22.941,0,0,1-9.514-4.329,17.658,17.658,0,0,1-5.926-8.878,24.308,24.308,0,0,1-.545-10.863c1.191-7.358,5.442-13.8,10.054-19.623,1.164-1.468,2.359-2.912,3.563-4.355,1.2-1.4,2.467-3.075,4.568-3.715a4.225,4.225,0,0,1,3.157.355,5.7,5.7,0,0,1,2.2,2.207,8.786,8.786,0,0,1,.646,5.943,59.9,59.9,0,0,1-9.155,20.844,142.49,142.49,0,0,1-13.9,17.171c-2.473,2.64-4.842,5.3-7.427,7.793-2.594,2.439-5.484,4.73-8.971,5.791a11.6,11.6,0,0,1-10.24-1.776,20.729,20.729,0,0,1-6.245-8.1,42.5,42.5,0,0,1-3.372-19.154,46.655,46.655,0,0,1,4.513-17.786,42.347,42.347,0,0,1,10.346-13.674,12.063,12.063,0,0,1,3.63-2.1,6.3,6.3,0,0,1,4.173-.042,7.915,7.915,0,0,1,4.745,6.143A19.592,19.592,0,0,1,859,168.06a46.6,46.6,0,0,1-1.9,6.758,56.758,56.758,0,0,1-5.755,11.448,89.692,89.692,0,0,1-13.195,15.642c-8.164,7.727-13.08,11.53-13.08,11.53s.268-.283.828-.794c.6-.534,1.426-1.282,2.5-2.247,2.194-1.979,5.465-4.859,9.455-8.794a90.936,90.936,0,0,0,12.975-15.67,56.31,56.31,0,0,0,5.615-11.353,45.7,45.7,0,0,0,1.831-6.663,18.9,18.9,0,0,0,.338-7.144,7.14,7.14,0,0,0-4.251-5.522c-2.361-.862-4.982.359-7,2.034a41.559,41.559,0,0,0-10.057,13.41,45.735,45.735,0,0,0-4.369,17.439,41.517,41.517,0,0,0,3.326,18.679,19.715,19.715,0,0,0,5.928,7.685,10.533,10.533,0,0,0,9.339,1.607c3.21-.976,6-3.161,8.534-5.554,2.522-2.431,4.912-5.121,7.368-7.75a141.766,141.766,0,0,0,13.778-17.047,58.958,58.958,0,0,0,8.984-20.43,7.737,7.737,0,0,0-.52-5.21,3.673,3.673,0,0,0-4.109-2.044c-1.605.46-2.841,1.941-4.019,3.358-1.2,1.44-2.393,2.876-3.546,4.331-4.58,5.763-8.707,12.071-9.849,19.118a23.267,23.267,0,0,0,.5,10.382,16.616,16.616,0,0,0,5.562,8.365c5.366,4.215,12.5,5.292,18.93,4.625a37.825,37.825,0,0,0,29.468-20.132c1.275-2.543,1.888-5.541.566-7.936a4.558,4.558,0,0,0-2.887-2.395,5.846,5.846,0,0,0-3.761.494,25.634,25.634,0,0,0-6.3,4.716,45.3,45.3,0,0,0-5.06,5.706c-2.946,3.932-5.339,8.35-5.075,12.8.23,4.475,3.482,7.913,6.908,9.655a18.8,18.8,0,0,0,10.641,1.77,43.217,43.217,0,0,0,9.036-2.055c5.3-1.8,9.393-3.362,12.286-4.025A25.328,25.328,0,0,1,943.414,206.079Z" transform="translate(-825.075 -154.15)"/></g></g></g><g transform="translate(577.161 300.588)"><g transform="translate(0 235.89)"><g transform="translate(29.583 16.256)"><rect class="g" width="806.998" height="46.925"/></g><rect class="h" width="29.583" height="78.099"/><g transform="translate(0.396 60.168)"><path class="g" d="M581.191,354.182c0,.3-6.534.551-14.593.551S552,354.486,552,354.182s6.532-.549,14.595-.549S581.191,353.88,581.191,354.182Z" transform="translate(-552.004 -353.633)"/></g><g transform="translate(0.396 51.719)"><path class="g" d="M581.191,350.181c0,.3-6.534.551-14.593.551S552,350.485,552,350.181s6.532-.549,14.595-.549S581.191,349.879,581.191,350.181Z" transform="translate(-552.004 -349.632)"/></g><g transform="translate(0.396 43.269)"><path class="g" d="M581.191,346.18c0,.3-6.534.551-14.593.551S552,346.484,552,346.18s6.532-.549,14.595-.549S581.191,345.878,581.191,346.18Z" transform="translate(-552.004 -345.631)"/></g><g transform="translate(0.396 34.82)"><path class="g" d="M581.191,342.179c0,.3-6.534.551-14.593.551S552,342.483,552,342.179s6.532-.549,14.595-.549S581.191,341.877,581.191,342.179Z" transform="translate(-552.004 -341.63)"/></g><g transform="translate(0.396 26.371)"><path class="g" d="M581.191,338.178c0,.3-6.534.551-14.593.551S552,338.482,552,338.178s6.532-.549,14.595-.549S581.191,337.876,581.191,338.178Z" transform="translate(-552.004 -337.629)"/></g><g transform="translate(0.396 17.921)"><path class="g" d="M581.191,334.177c0,.3-6.534.551-14.593.551S552,334.481,552,334.177s6.532-.549,14.595-.549S581.191,333.875,581.191,334.177Z" transform="translate(-552.004 -333.628)"/></g><g transform="translate(0.396 9.472)"><path class="g" d="M581.191,330.176c0,.3-6.534.551-14.593.551S552,330.48,552,330.176s6.532-.549,14.595-.549S581.191,329.874,581.191,330.176Z" transform="translate(-552.004 -329.627)"/></g><g transform="translate(0.396 68.983)"><path class="g" d="M581.191,358.358c0,.3-6.534.549-14.593.549S552,358.66,552,358.358s6.532-.551,14.595-.551S581.191,358.054,581.191,358.358Z" transform="translate(-552.004 -357.807)"/></g><g transform="translate(830.309)"><rect class="h" width="29.583" height="78.099"/><g transform="translate(0.397 60.168)"><path class="g" d="M974.364,354.182c0,.3-6.534.551-14.593.551s-14.592-.247-14.592-.551,6.532-.549,14.592-.549S974.364,353.88,974.364,354.182Z" transform="translate(-945.179 -353.633)"/></g><g transform="translate(0.397 51.719)"><path class="g" d="M974.364,350.181c0,.3-6.534.551-14.593.551s-14.592-.247-14.592-.551,6.532-.549,14.592-.549S974.364,349.879,974.364,350.181Z" transform="translate(-945.179 -349.632)"/></g><g transform="translate(0.397 43.269)"><path class="g" d="M974.364,346.18c0,.3-6.534.551-14.593.551s-14.592-.247-14.592-.551,6.532-.549,14.592-.549S974.364,345.878,974.364,346.18Z" transform="translate(-945.179 -345.631)"/></g><g transform="translate(0.397 34.82)"><path class="g" d="M974.364,342.179c0,.3-6.534.551-14.593.551s-14.592-.247-14.592-.551,6.532-.549,14.592-.549S974.364,341.877,974.364,342.179Z" transform="translate(-945.179 -341.63)"/></g><g transform="translate(0.397 26.371)"><path class="g" d="M974.364,338.178c0,.3-6.534.551-14.593.551s-14.592-.247-14.592-.551,6.532-.549,14.592-.549S974.364,337.876,974.364,338.178Z" transform="translate(-945.179 -337.629)"/></g><g transform="translate(0.397 17.921)"><path class="g" d="M974.364,334.177c0,.3-6.534.551-14.593.551s-14.592-.247-14.592-.551,6.532-.549,14.592-.549S974.364,333.875,974.364,334.177Z" transform="translate(-945.179 -333.628)"/></g><g transform="translate(0.397 9.472)"><path class="g" d="M974.364,330.176c0,.3-6.534.551-14.593.551s-14.592-.247-14.592-.551,6.532-.549,14.592-.549S974.364,329.874,974.364,330.176Z" transform="translate(-945.179 -329.627)"/></g><g transform="translate(0.397 68.983)"><path class="g" d="M974.364,358.358c0,.3-6.534.549-14.593.549s-14.592-.247-14.592-.549,6.532-.551,14.592-.551S974.364,358.054,974.364,358.358Z" transform="translate(-945.179 -357.807)"/></g></g></g><g transform="translate(94.724 204.192)"><rect class="c" width="670.444" height="18.328"/></g><g transform="translate(163.151)"><g transform="translate(0.549 0.55)"><rect class="f" width="532.491" height="324.228"/></g><path class="h" d="M1162.114,538.22c0-3.474-.167-125.771-.431-324.228l.431.429-532.45.12h-.042l.549-.549c-.013,114.893-.027,224.5-.04,324.226l-.509-.509c312.467.3,527.893.5,532.492.511-4.6,0-220.025.209-532.492.509h-.509v-.511c-.013-99.73-.025-209.333-.04-324.226v-.551h.591l532.45.12h.429v.431C1162.281,412.449,1162.118,534.748,1162.114,538.22Z" transform="translate(-629.073 -213.441)"/></g><g transform="translate(80.892 219.503)"><path class="h" d="M590.121,357.143V321.971h67.928v17.585H864.033a17.656,17.656,0,0,1,17.64,17.674v44.261H920.6V357.143a13.752,13.752,0,0,1,13.739-13.763h0a13.751,13.751,0,0,1,13.737,13.763v46.394h40.452V359.462a22.178,22.178,0,0,1,22.157-22.2h199.942V317.382h76.321V428.254H590.121Z" transform="translate(-590.121 -317.382)"/></g><g transform="translate(47.113 289.991)"><path class="i" d="M574.126,739.839l.9,51.378h762.69l1.29-51.378-33.03-217.357-1.148-169.663L607,350.76v179.5Z" transform="translate(-574.126 -350.76)"/></g><g class="j" transform="translate(89.481 476.7)"><path d="M616.361,439.172,594.188,609.712h668.7l-19.745-170.541Z" transform="translate(-594.188 -439.172)"/></g><g transform="translate(62.797 391.032)"><rect class="c" width="728.682" height="17.831" rx="4.021"/></g><g transform="translate(544.263 512.654)"><g transform="translate(17.813 20.947)"><rect class="c" width="7.581" height="113.64"/></g><g transform="translate(0.577 5.543)"><path class="h" d="M851.868,475.531q-21.027,10.944-42.055,0V458.822h42.055Z" transform="translate(-809.813 -458.822)"/></g><path class="g" d="M852.747,462.858c0,3.679-9.672,6.661-21.6,6.661s-21.6-2.982-21.6-6.661,9.672-6.661,21.6-6.661S852.747,459.179,852.747,462.858Z" transform="translate(-809.54 -456.197)"/></g><g transform="translate(125.189 477.706)"><g transform="translate(17.813 20.947)"><rect class="c" width="7.581" height="148.02"/></g><g transform="translate(0.577 5.546)"><path class="h" d="M653.424,458.981q-21.027,10.944-42.055,0V442.274h42.055Z" transform="translate(-611.37 -442.274)"/></g><path class="g" d="M654.3,446.309c0,3.679-9.672,6.661-21.6,6.661s-21.6-2.982-21.6-6.661,9.672-6.661,21.6-6.661S654.3,442.63,654.3,446.309Z" transform="translate(-611.097 -439.648)"/><g transform="translate(28.384 35.953)"><g transform="translate(17.813 20.948)"><rect class="c" width="7.582" height="113.64"/></g><g transform="translate(0.575 5.546)"><path class="h" d="M666.867,476.005q-21.027,10.944-42.057,0V459.3h42.057Z" transform="translate(-624.81 -459.299)"/></g><ellipse class="g" cx="21.604" cy="6.661" rx="21.604" ry="6.661"/></g><g transform="translate(0 69.318)"><g transform="translate(0.577 5.546)"><path class="h" d="M653.424,491.8q-21.027,10.944-42.055,0V475.1h42.055Z" transform="translate(-611.37 -475.098)"/></g><path class="g" d="M654.3,479.133c0,3.679-9.672,6.661-21.6,6.661s-21.6-2.982-21.6-6.661,9.672-6.661,21.6-6.661S654.3,475.454,654.3,479.133Z" transform="translate(-611.097 -472.472)"/></g><g transform="translate(82.518 35.953)"><g transform="translate(17.813 20.948)"><rect class="c" width="7.581" height="113.64"/></g><g transform="translate(0.576 5.546)"><path class="h" d="M692.5,476.005q-21.027,10.944-42.057,0V459.3H692.5Z" transform="translate(-650.444 -459.299)"/></g><ellipse class="g" cx="21.604" cy="6.661" rx="21.604" ry="6.661"/></g><g transform="translate(139.218 35.953)"><g transform="translate(17.813 20.948)"><rect class="c" width="7.581" height="113.64"/></g><g transform="translate(0.577 5.546)"><path class="h" d="M719.349,476.005q-21.027,10.944-42.054,0V459.3h42.054Z" transform="translate(-677.294 -459.299)"/></g><ellipse class="g" cx="21.604" cy="6.661" rx="21.604" ry="6.661"/></g><g transform="translate(195.108 35.953)"><g transform="translate(17.813 20.948)"><rect class="c" width="7.582" height="113.64"/></g><g transform="translate(0.576 5.546)"><path class="h" d="M745.816,476.005q-21.027,10.944-42.057,0V459.3h42.057Z" transform="translate(-703.759 -459.299)"/></g><ellipse class="g" cx="21.604" cy="6.661" rx="21.604" ry="6.661"/></g><g transform="translate(250.345 35.953)"><g transform="translate(17.813 20.948)"><rect class="c" width="7.582" height="113.64"/></g><g transform="translate(0.576 5.546)"><path class="h" d="M771.972,476.005q-21.03,10.944-42.057,0V459.3h42.057Z" transform="translate(-729.915 -459.299)"/></g><ellipse class="g" cx="21.604" cy="6.661" rx="21.604" ry="6.661"/></g><g transform="translate(306.483 35.953)"><g transform="translate(17.813 20.948)"><rect class="c" width="7.582" height="113.64"/></g><g transform="translate(0.576 5.546)"><path class="h" d="M798.552,476.005q-21.027,10.944-42.055,0V459.3h42.055Z" transform="translate(-756.498 -459.299)"/></g><ellipse class="g" cx="21.604" cy="6.661" rx="21.604" ry="6.661"/></g><g transform="translate(362.936 35.953)"><g transform="translate(17.813 20.948)"><rect class="c" width="7.581" height="113.64"/></g><g transform="translate(0.576 5.546)"><path class="h" d="M825.287,476.005q-21.031,10.944-42.057,0V459.3h42.057Z" transform="translate(-783.23 -459.299)"/></g><ellipse class="g" cx="21.604" cy="6.661" rx="21.604" ry="6.661"/></g><g transform="translate(475.842 35.953)"><g transform="translate(17.813 20.948)"><rect class="c" width="7.582" height="113.64"/></g><g transform="translate(0.575 5.546)"><path class="h" d="M878.751,476.005q-21.027,10.944-42.057,0V459.3h42.057Z" transform="translate(-836.694 -459.299)"/></g><ellipse class="g" cx="21.604" cy="6.661" rx="21.604" ry="6.661"/></g><g transform="translate(532.926 35.953)"><g transform="translate(17.813 20.948)"><rect class="c" width="7.581" height="113.64"/></g><g transform="translate(0.576 5.546)"><path class="h" d="M905.782,476.005q-21.027,10.944-42.057,0V459.3h42.057Z" transform="translate(-863.725 -459.299)"/></g><ellipse class="g" cx="21.604" cy="6.661" rx="21.604" ry="6.661"/></g><g transform="translate(55.959)"><g transform="translate(17.813 20.947)"><rect class="c" width="7.581" height="148.02"/></g><g transform="translate(0.577 5.546)"><path class="h" d="M679.922,458.981q-21.027,10.944-42.055,0V442.274h42.055Z" transform="translate(-637.868 -442.274)"/></g><path class="g" d="M680.8,446.309c0,3.679-9.672,6.661-21.6,6.661s-21.6-2.982-21.6-6.661,9.672-6.661,21.6-6.661S680.8,442.63,680.8,446.309Z" transform="translate(-637.595 -439.648)"/></g><g transform="translate(111.917)"><g transform="translate(17.813 20.947)"><rect class="c" width="7.581" height="148.02"/></g><g transform="translate(0.577 5.546)"><path class="h" d="M706.421,458.981q-21.027,10.944-42.055,0V442.274h42.055Z" transform="translate(-664.366 -442.274)"/></g><path class="g" d="M707.3,446.309c0,3.679-9.672,6.661-21.6,6.661s-21.6-2.982-21.6-6.661,9.672-6.661,21.6-6.661S707.3,442.63,707.3,446.309Z" transform="translate(-664.093 -439.648)"/></g><g transform="translate(167.876)"><g transform="translate(17.813 20.947)"><rect class="c" width="7.582" height="148.02"/></g><g transform="translate(0.577 5.546)"><path class="h" d="M732.919,458.981q-21.027,10.944-42.055,0V442.274h42.055Z" transform="translate(-690.864 -442.274)"/></g><path class="g" d="M733.8,446.309c0,3.679-9.672,6.661-21.6,6.661s-21.6-2.982-21.6-6.661,9.672-6.661,21.6-6.661S733.8,442.63,733.8,446.309Z" transform="translate(-690.591 -439.648)"/></g><g transform="translate(223.835)"><g transform="translate(17.813 20.947)"><rect class="c" width="7.582" height="148.02"/></g><g transform="translate(0.577 5.546)"><path class="h" d="M759.417,458.981q-21.027,10.944-42.055,0V442.274h42.055Z" transform="translate(-717.362 -442.274)"/></g><path class="g" d="M760.3,446.309c0,3.679-9.672,6.661-21.6,6.661s-21.6-2.982-21.6-6.661,9.672-6.661,21.6-6.661S760.3,442.63,760.3,446.309Z" transform="translate(-717.089 -439.648)"/></g><g transform="translate(279.793)"><g transform="translate(17.813 20.947)"><rect class="c" width="7.582" height="148.02"/></g><g transform="translate(0.577 5.546)"><path class="h" d="M785.914,458.981q-21.027,10.944-42.055,0V442.274h42.055Z" transform="translate(-743.86 -442.274)"/></g><path class="g" d="M786.795,446.309c0,3.679-9.672,6.661-21.6,6.661s-21.6-2.982-21.6-6.661,9.672-6.661,21.6-6.661S786.795,442.63,786.795,446.309Z" transform="translate(-743.587 -439.648)"/></g><g transform="translate(335.752)"><g transform="translate(17.813 20.947)"><rect class="c" width="7.582" height="148.02"/></g><g transform="translate(0.576 5.546)"><path class="h" d="M812.412,458.981q-21.027,10.944-42.055,0V442.274h42.055Z" transform="translate(-770.358 -442.274)"/></g><path class="g" d="M813.292,446.309c0,3.679-9.672,6.661-21.6,6.661s-21.6-2.982-21.6-6.661,9.672-6.661,21.6-6.661S813.292,442.63,813.292,446.309Z" transform="translate(-770.085 -439.648)"/></g><g transform="translate(391.711)"><g transform="translate(17.813 20.947)"><rect class="c" width="7.582" height="148.02"/></g><g transform="translate(0.577 5.546)"><path class="h" d="M838.911,458.981q-21.027,10.944-42.054,0V442.274h42.054Z" transform="translate(-796.856 -442.274)"/></g><path class="g" d="M839.791,446.309c0,3.679-9.672,6.661-21.6,6.661s-21.6-2.982-21.6-6.661,9.672-6.661,21.6-6.661S839.791,442.63,839.791,446.309Z" transform="translate(-796.583 -439.648)"/></g><g transform="translate(447.669)"><g transform="translate(17.813 20.947)"><rect class="c" width="7.582" height="148.02"/></g><g transform="translate(0.577 5.546)"><path class="h" d="M865.409,458.981q-21.027,10.944-42.055,0V442.274h42.055Z" transform="translate(-823.354 -442.274)"/></g><path class="g" d="M866.289,446.309c0,3.679-9.672,6.661-21.6,6.661s-21.6-2.982-21.6-6.661,9.672-6.661,21.6-6.661S866.289,442.63,866.289,446.309Z" transform="translate(-823.081 -439.648)"/></g><g transform="translate(503.628)"><g transform="translate(17.813 20.947)"><rect class="c" width="7.581" height="148.02"/></g><g transform="translate(0.577 5.546)"><path class="h" d="M891.906,458.981q-21.027,10.944-42.054,0V442.274h42.054Z" transform="translate(-849.852 -442.274)"/></g><path class="g" d="M892.787,446.309c0,3.679-9.672,6.661-21.6,6.661s-21.6-2.982-21.6-6.661,9.672-6.661,21.6-6.661S892.787,442.63,892.787,446.309Z" transform="translate(-849.579 -439.648)"/></g><g transform="translate(559.587)"><g transform="translate(17.813 20.947)"><rect class="c" width="7.581" height="148.02"/></g><g transform="translate(0.576 5.546)"><path class="h" d="M918.4,458.981q-21.027,10.944-42.055,0V442.274H918.4Z" transform="translate(-876.35 -442.274)"/></g><path class="g" d="M919.285,446.309c0,3.679-9.672,6.661-21.6,6.661s-21.6-2.982-21.6-6.661,9.672-6.661,21.6-6.661S919.285,442.63,919.285,446.309Z" transform="translate(-876.077 -439.648)"/></g><g transform="translate(56.199 101.696)"><g transform="translate(0.577 5.546)"><path class="h" d="M680.037,507.137q-21.027,10.948-42.055,0V490.43h42.055Z" transform="translate(-637.982 -490.43)"/></g><path class="g" d="M680.917,494.467c0,3.679-9.672,6.661-21.6,6.661s-21.6-2.982-21.6-6.661,9.672-6.663,21.6-6.663S680.917,490.788,680.917,494.467Z" transform="translate(-637.709 -487.804)"/></g><g transform="translate(27.808 130.502)"><g transform="translate(0.577 5.545)"><path class="h" d="M666.593,520.776q-21.028,10.948-42.055,0V504.07h42.055Z" transform="translate(-624.538 -504.07)"/></g><ellipse class="g" cx="21.604" cy="6.661" rx="21.604" ry="6.661"/></g><g transform="translate(82.684 129.963)"><g transform="translate(0.577 5.543)"><path class="h" d="M692.58,520.523q-21.03,10.944-42.057,0V503.814H692.58Z" transform="translate(-650.523 -503.814)"/></g><path class="g" d="M693.458,507.85c0,3.679-9.672,6.661-21.6,6.661s-21.6-2.982-21.6-6.661,9.672-6.661,21.6-6.661S693.458,504.171,693.458,507.85Z" transform="translate(-650.25 -501.189)"/></g><g transform="translate(137.561 102.777)"><g transform="translate(0.574 5.546)"><path class="h" d="M718.564,507.648q-21.027,10.944-42.054,0l0-16.707h42.056Z" transform="translate(-676.508 -490.942)"/></g><path class="g" d="M719.443,494.977c0,3.679-9.672,6.661-21.6,6.661s-21.6-2.982-21.6-6.661,9.672-6.661,21.6-6.661S719.443,491.3,719.443,494.977Z" transform="translate(-676.236 -488.316)"/></g><g transform="translate(195.108 102.237)"><g transform="translate(0.576 5.546)"><path class="h" d="M745.816,507.392q-21.027,10.948-42.057,0V490.686h42.057Z" transform="translate(-703.759 -490.686)"/></g><path class="g" d="M746.693,494.721c0,3.679-9.672,6.663-21.6,6.663s-21.6-2.984-21.6-6.663,9.674-6.661,21.6-6.661S746.693,491.042,746.693,494.721Z" transform="translate(-703.486 -488.06)"/></g><g transform="translate(250.344 102.237)"><g transform="translate(0.576 5.546)"><path class="h" d="M771.972,507.392q-21.03,10.948-42.057,0V490.686h42.057Z" transform="translate(-729.915 -490.686)"/></g><path class="g" d="M772.85,494.721c0,3.679-9.672,6.663-21.6,6.663s-21.6-2.984-21.6-6.663,9.672-6.661,21.6-6.661S772.85,491.042,772.85,494.721Z" transform="translate(-729.642 -488.06)"/></g><g transform="translate(307.428 102.237)"><g transform="translate(0.577 5.546)"><path class="h" d="M799,507.392q-21.027,10.948-42.054,0V490.686H799Z" transform="translate(-756.946 -490.686)"/></g><path class="g" d="M799.881,494.721c0,3.679-9.672,6.663-21.6,6.663s-21.6-2.984-21.6-6.663,9.672-6.661,21.6-6.661S799.881,491.042,799.881,494.721Z" transform="translate(-756.673 -488.06)"/></g><g transform="translate(363.251 130.502)"><g transform="translate(0.575 5.545)"><path class="h" d="M825.435,520.776q-21.027,10.948-42.056,0V504.07h42.056Z" transform="translate(-783.379 -504.07)"/></g><ellipse class="g" cx="21.604" cy="6.661" rx="21.604" ry="6.661"/></g><g transform="translate(419.073 102.237)"><g transform="translate(0.577 5.546)"><path class="h" d="M851.868,507.392q-21.027,10.948-42.055,0V490.686h42.055Z" transform="translate(-809.813 -490.686)"/></g><path class="g" d="M852.747,494.721c0,3.679-9.672,6.663-21.6,6.663s-21.6-2.984-21.6-6.663,9.672-6.661,21.6-6.661S852.747,491.042,852.747,494.721Z" transform="translate(-809.54 -488.06)"/></g><g transform="translate(475.843 123.3)"><g transform="translate(0.574 5.546)"><path class="h" d="M878.751,517.366q-21.027,10.948-42.057,0V500.66h42.057Z" transform="translate(-836.694 -500.66)"/></g><path class="g" d="M879.63,504.7c0,3.679-9.672,6.661-21.6,6.661s-21.6-2.982-21.6-6.661,9.672-6.663,21.6-6.663S879.63,501.018,879.63,504.7Z" transform="translate(-836.422 -498.034)"/></g><g transform="translate(536.716 137.164)"><g transform="translate(0.577 5.543)"><path class="h" d="M907.577,523.933q-21.027,10.944-42.057,0V507.224h42.057Z" transform="translate(-865.52 -507.224)"/></g><path class="g" d="M908.457,511.26c0,3.679-9.674,6.661-21.606,6.661s-21.6-2.982-21.6-6.661,9.674-6.661,21.6-6.661S908.457,507.581,908.457,511.26Z" transform="translate(-865.247 -504.599)"/></g><g transform="translate(112.399 69.318)"><g transform="translate(0.577 5.546)"><path class="h" d="M706.648,491.8q-21.027,10.944-42.055,0V475.1h42.055Z" transform="translate(-664.594 -475.098)"/></g><path class="g" d="M707.529,479.133c0,3.679-9.672,6.661-21.6,6.661s-21.6-2.982-21.6-6.661,9.672-6.661,21.6-6.661S707.529,475.454,707.529,479.133Z" transform="translate(-664.321 -472.472)"/></g><g transform="translate(168.598 69.318)"><g transform="translate(0.577 5.546)"><path class="h" d="M733.26,491.8q-21.027,10.944-42.055,0V475.1H733.26Z" transform="translate(-691.206 -475.098)"/></g><path class="g" d="M734.141,479.133c0,3.679-9.672,6.661-21.6,6.661s-21.6-2.982-21.6-6.661,9.672-6.661,21.6-6.661S734.141,475.454,734.141,479.133Z" transform="translate(-690.933 -472.472)"/></g><g transform="translate(223.835 69.318)"><g transform="translate(0.577 5.546)"><path class="h" d="M759.417,491.8q-21.027,10.944-42.055,0V475.1h42.055Z" transform="translate(-717.362 -475.098)"/></g><path class="g" d="M760.3,479.133c0,3.679-9.672,6.661-21.6,6.661s-21.6-2.982-21.6-6.661,9.672-6.661,21.6-6.661S760.3,475.454,760.3,479.133Z" transform="translate(-717.089 -472.472)"/></g><g transform="translate(277.764 69.318)"><g transform="translate(0.577 5.546)"><path class="h" d="M784.956,491.8q-21.031,10.944-42.057,0V475.1h42.057Z" transform="translate(-742.899 -475.098)"/></g><path class="g" d="M785.834,479.133c0,3.679-9.672,6.661-21.6,6.661s-21.6-2.982-21.6-6.661,9.672-6.661,21.6-6.661S785.834,475.454,785.834,479.133Z" transform="translate(-742.626 -472.472)"/></g><g transform="translate(333.902 69.318)"><g transform="translate(0.577 5.546)"><path class="h" d="M811.537,491.8q-21.027,10.944-42.055,0V475.1h42.055Z" transform="translate(-769.482 -475.098)"/></g><path class="g" d="M812.417,479.133c0,3.679-9.672,6.661-21.6,6.661s-21.6-2.982-21.6-6.661,9.672-6.661,21.6-6.661S812.417,475.454,812.417,479.133Z" transform="translate(-769.209 -472.472)"/></g><g transform="translate(390.784 69.318)"><g transform="translate(0.577 5.546)"><path class="h" d="M838.474,491.8q-21.027,10.944-42.057,0V475.1h42.057Z" transform="translate(-796.417 -475.098)"/></g><path class="g" d="M839.354,479.133c0,3.679-9.674,6.661-21.6,6.661s-21.606-2.982-21.606-6.661,9.674-6.661,21.606-6.661S839.354,475.454,839.354,479.133Z" transform="translate(-796.144 -472.472)"/></g><g transform="translate(448.119 69.318)"><g transform="translate(0.577 5.546)"><path class="h" d="M865.622,491.8q-21.027,10.944-42.055,0V475.1h42.055Z" transform="translate(-823.567 -475.098)"/></g><path class="g" d="M866.5,479.133c0,3.679-9.672,6.661-21.6,6.661s-21.6-2.982-21.6-6.661,9.672-6.661,21.6-6.661S866.5,475.454,866.5,479.133Z" transform="translate(-823.294 -472.472)"/></g><g transform="translate(503.628 88.916)"><g transform="translate(0.577 5.543)"><path class="h" d="M891.906,501.086q-21.027,10.944-42.054,0V484.377h42.054Z" transform="translate(-849.852 -484.377)"/></g><path class="g" d="M892.787,488.413c0,3.679-9.672,6.661-21.6,6.661s-21.6-2.982-21.6-6.661,9.672-6.661,21.6-6.661S892.787,484.734,892.787,488.413Z" transform="translate(-849.579 -481.752)"/></g><g transform="translate(559.675 69.318)"><g transform="translate(0.577 5.546)"><path class="h" d="M918.447,491.8q-21.027,10.944-42.055,0V475.1h42.055Z" transform="translate(-876.392 -475.098)"/></g><path class="g" d="M919.327,479.133c0,3.679-9.672,6.661-21.6,6.661s-21.6-2.982-21.6-6.661,9.672-6.661,21.6-6.661S919.327,475.454,919.327,479.133Z" transform="translate(-876.119 -472.472)"/></g></g><g transform="translate(378.411 338.111)"><rect class="f" width="104.006" height="15.243"/></g><g class="j" transform="translate(79.706 408.863)"><path d="M589.559,407.049l699.023,18.683-.126-18.683Z" transform="translate(-589.559 -407.049)"/></g><g transform="translate(49.844 678.519)"><path class="h" d="M1334.835,535.29c0,.3-170.015.549-379.69.549-209.749,0-379.726-.245-379.726-.549s169.977-.551,379.726-.551C1164.82,534.739,1334.835,534.986,1334.835,535.29Z" transform="translate(-575.419 -534.739)"/></g><g transform="translate(88.976 476.7)"><path class="h" d="M616.628,439.172s-.091,1.05-.334,3.081c-.254,2.055-.621,5.064-1.1,8.992-1,7.911-2.467,19.5-4.34,34.319-3.816,29.7-9.292,72.329-15.957,124.206l-.439-.5,248.344-.108,297.252.163,90.079.173c10.616.047,18.865.08,24.491.1,2.781.025,4.908.042,6.369.055,1.434.019,2.169.057,2.169.057s-.735.038-2.169.055l-6.369.055-24.491.1-90.079.175-297.252.16-248.344-.108h-.5l.065-.5c6.823-51.855,12.43-94.474,16.335-124.157,1.979-14.808,3.524-26.385,4.58-34.287.536-3.922.95-6.925,1.231-8.977C616.446,440.209,616.628,439.172,616.628,439.172Z" transform="translate(-593.949 -439.172)"/></g><g transform="translate(217.416 97.439)"><g transform="translate(137.4)"><path class="h" d="M868.649,260.132c0,.3-33.318.549-74.405.549s-74.412-.247-74.412-.549,33.309-.551,74.412-.551S868.649,259.828,868.649,260.132Z" transform="translate(-719.832 -259.581)"/></g><g transform="translate(0 50.105)"><path class="h" d="M1079.829,283.856c0,.3-95.16.549-212.519.549-117.4,0-212.541-.245-212.541-.549s95.139-.549,212.541-.549C984.669,283.307,1079.829,283.552,1079.829,283.856Z" transform="translate(-654.769 -283.307)"/></g><g transform="translate(0 80.741)"><path class="h" d="M1079.829,298.363c0,.3-95.16.551-212.519.551-117.4,0-212.541-.247-212.541-.551s95.139-.549,212.541-.549C984.669,297.814,1079.829,298.059,1079.829,298.363Z" transform="translate(-654.769 -297.814)"/></g><g transform="translate(0 111.377)"><path class="h" d="M1079.829,312.872c0,.3-95.16.549-212.519.549-117.4,0-212.541-.247-212.541-.549s95.139-.551,212.541-.551C984.669,312.321,1079.829,312.568,1079.829,312.872Z" transform="translate(-654.769 -312.321)"/></g></g><g transform="translate(80.672 458.568)"><path class="h" d="M1287.135,431.135c0,.3-156.069.551-348.543.551-192.54,0-348.575-.247-348.575-.551s156.035-.549,348.575-.549C1131.066,430.586,1287.135,430.833,1287.135,431.135Z" transform="translate(-590.017 -430.586)"/></g><g transform="translate(356.783 233.9)"><path class="h" d="M817.6,324.748c0,.3-21.68.551-48.42.551s-48.422-.247-48.422-.551,21.676-.549,48.422-.549S817.6,324.446,817.6,324.748Z" transform="translate(-720.763 -324.199)"/></g></g><g transform="translate(1179.469 220.655)"><g transform="translate(3.854)"><g transform="translate(0 8.641)"><path class="h" d="M897.411,189.588c-.729-4.682-4.948-8.28-9.549-9.41s-9.476-.186-13.94,1.4a33.291,33.291,0,0,0-13.41,8.346,20.179,20.179,0,0,0-5.668,14.455c.266,4.975,2.747,9.97,1.362,14.757-1.054,3.634-4.131,6.287-7.216,8.481s-6.426,4.249-8.5,7.415-2.418,7.875.387,10.418c2.5,2.262,6.975,2.519,8.025,5.721.65,1.985-.454,4.057-1.064,6.055a15.8,15.8,0,0,0,2.04,12.7,26.6,26.6,0,0,0,9.729,8.8c6.745,3.81,15.156,5.59,22.282,2.549a21.467,21.467,0,0,0,8.783-7.212c3.746-5.165,5.421-11.6,5.812-17.971s-.422-12.745-1.233-19.074" transform="translate(-838.851 -179.682)"/></g><g transform="translate(31.373)"><g transform="translate(0 19.674)"><path class="h" d="M883.367,259.566a19.623,19.623,0,0,1-24.835-19.359c.129-5.685,2.7-11.48.933-16.886-1.214-3.713-4.325-6.606-5.368-10.369-1.559-5.617,1.837-11.3,5.083-16.138,2.08-3.109,4.2-6.264,7.106-8.625s6.745-3.852,10.4-3.075" transform="translate(-853.707 -184.907)"/></g><g transform="translate(14.831)"><g transform="translate(47.474 20.38)"><path class="h" d="M903,185.241c-.317,4.291,2.517,8.126,5.375,11.345s6.034,6.576,6.65,10.836c1.094,7.55-6.3,14.559-4.771,22.032.815,4,4.095,7.222,4.68,11.269.566,3.913-1.531,7.744-4.131,10.722s-5.767,5.463-8.067,8.682c0,0-4.787,7.854-19.526,2.826" transform="translate(-883.21 -185.241)"/></g><path class="h" d="M862.022,202.534c-.112-3.892,3.489-6.9,7.113-8.327s7.651-1.964,10.882-4.137c2.859-1.926,4.783-4.929,7.2-7.383a23.969,23.969,0,0,1,40.314,11c1.392,5.543.441,12.1-3.928,15.782-5.073,4.276-12.591,3.326-19.091,2s-13.853-2.642-19.278,1.174c-3.273,2.3-5.149,6.046-7.149,9.512s-4.511,7-8.293,8.3-8.918-.946-9.066-4.944" transform="translate(-860.73 -175.591)"/><g transform="translate(10.828 18.855)"><path class="k" d="M871.673,193.405a6.516,6.516,0,0,0-5.814,6.62h0L869.745,288c.163,10.39,15.351,16.227,26.474,15.967h0c11.233-.262,11.6-5.769,11.735-15.655.237-16.514.215-22.713.222-22.618,0,0,14.189-2.388,17.091-20.915,1.44-9.214.944-24.313.139-36.657-.725-11.108-8.116-24.723-19.184-23.528Z" transform="translate(-865.857 -184.519)"/><g transform="translate(46.902 27.778)"><g transform="translate(3.335 5.681)"><path class="h" d="M894.387,202.5a2.374,2.374,0,0,1-2.285,2.4,2.271,2.271,0,0,1-2.454-2.135,2.377,2.377,0,0,1,2.283-2.4A2.274,2.274,0,0,1,894.387,202.5Z" transform="translate(-889.646 -200.363)"/></g><path class="h" d="M897.454,200.161c-.294.31-2.095-1.018-4.652-1.005-2.553-.025-4.424,1.295-4.7.982-.137-.137.163-.7.978-1.295a6.529,6.529,0,0,1,3.765-1.17,6.268,6.268,0,0,1,3.7,1.187C897.332,199.462,897.6,200.021,897.454,200.161Z" transform="translate(-888.067 -197.673)"/></g><g transform="translate(21.78 29.51)"><g transform="translate(4.704 4.593)"><path class="h" d="M883.137,202.809a2.374,2.374,0,0,1-2.283,2.4,2.27,2.27,0,0,1-2.454-2.135,2.376,2.376,0,0,1,2.283-2.4A2.271,2.271,0,0,1,883.137,202.809Z" transform="translate(-878.398 -200.668)"/></g><path class="h" d="M885.558,200.981c-.294.31-2.1-1.018-4.652-1.005-2.553-.023-4.426,1.295-4.7.982-.137-.137.158-.7.978-1.295a6.523,6.523,0,0,1,3.763-1.17,6.271,6.271,0,0,1,3.7,1.187C885.434,200.282,885.7,200.841,885.558,200.981Z" transform="translate(-876.171 -198.493)"/></g><g transform="translate(39.243 29.637)"><path class="h" d="M885.684,219.848c-.013-.146,1.576-.424,4.148-.758.653-.07,1.271-.2,1.379-.646a3.306,3.306,0,0,0-.439-1.934q-.925-2.366-1.941-4.965c-2.7-7.07-4.65-12.884-4.363-12.99s2.7,5.539,5.4,12.607q.972,2.617,1.861,5a3.77,3.77,0,0,1,.344,2.56,1.635,1.635,0,0,1-1.071.957,4.374,4.374,0,0,1-1.109.156C887.3,219.977,885.693,219.992,885.684,219.848Z" transform="translate(-884.44 -198.553)"/></g><g transform="translate(17.502 74.612)"><path class="l" d="M898.961,226.411a47.118,47.118,0,0,1-24.816-6.561s6.285,12.719,24.816,10.945Z" transform="translate(-874.145 -219.85)"/></g><g transform="translate(20.647 25.615)"><path class="h" d="M887.3,198.554c-.249.695-2.8.372-5.8.739-3.005.308-5.421,1.191-5.82.568-.178-.3.243-.952,1.218-1.626a10.17,10.17,0,0,1,8.853-1C886.847,197.678,887.4,198.223,887.3,198.554Z" transform="translate(-875.634 -196.649)"/></g><g transform="translate(46.63 21.432)"><path class="h" d="M896.643,197.306c-.45.581-2.211-.017-4.329-.04-2.116-.1-3.909.4-4.323-.209-.182-.294.1-.876.883-1.428a6.265,6.265,0,0,1,6.969.2C896.592,196.425,896.839,197.023,896.643,197.306Z" transform="translate(-887.938 -194.668)"/></g></g><g transform="translate(3.71 14.906)"><path class="h" d="M862.487,256.417a16.446,16.446,0,0,0,19.566-18.187c-.577-4.549-3.028-9.176-1.453-13.482,2.086-5.691,10.065-7.442,12.181-13.123,1.231-3.3.127-7.163,1.523-10.4,1.311-3.041,4.511-4.794,7.628-5.919s6.456-1.9,9.07-3.936,4.247-5.871,2.56-8.722a175.424,175.424,0,0,0-40.469,9.833c-3.022,1.128-6.2,2.486-7.984,5.172-1.89,2.842-1.8,6.515-1.641,9.925q1.162,24.946,2.327,49.889" transform="translate(-862.487 -182.649)"/></g></g><g transform="translate(8.414 10.891)"><path class="g" d="M858.032,198.354a1.432,1.432,0,0,0-.308.758,2.82,2.82,0,0,0,.714,2.226,4.641,4.641,0,0,0,3.314,1.677,10.722,10.722,0,0,0,4.694-1.4,13.053,13.053,0,0,1,5.4-1.6,28.123,28.123,0,0,1,6.538.6,44,44,0,0,0,7.393.952,10.636,10.636,0,0,0,7.586-2.769,21.962,21.962,0,0,0,4.367-6.773,34.025,34.025,0,0,1,3.533-6.354,10.386,10.386,0,0,1,10.69-3.9,10.838,10.838,0,0,1,6.447,4.771,25.787,25.787,0,0,1,1.358,2.743,2.336,2.336,0,0,0-.141-.8,10,10,0,0,0-.9-2.139,10.947,10.947,0,0,0-6.6-5.235,10.813,10.813,0,0,0-5.949.116,11.1,11.1,0,0,0-5.6,3.894,33.9,33.9,0,0,0-3.689,6.494,21.424,21.424,0,0,1-4.173,6.479,9.739,9.739,0,0,1-6.931,2.528,44.659,44.659,0,0,1-7.241-.885,28.11,28.11,0,0,0-6.747-.515,13.543,13.543,0,0,0-5.645,1.78,10.483,10.483,0,0,1-4.382,1.476,4.3,4.3,0,0,1-3.043-1.383,2.722,2.722,0,0,1-.8-1.962C857.94,198.627,858.087,198.375,858.032,198.354Z" transform="translate(-857.692 -180.748)"/></g><g transform="translate(6.661 18.723)"><path class="m" d="M856.871,196c.241.2,3.071-4.519,8.77-7.729,5.649-3.305,11.153-3.368,11.1-3.679a8.742,8.742,0,0,0-3.527.042,23.012,23.012,0,0,0-14.527,8.342A8.741,8.741,0,0,0,856.871,196Z" transform="translate(-856.861 -184.456)"/></g><g transform="translate(27.453 6.05)"><path class="g" d="M866.712,190.306c-.028.017.059.2.26.545a5.493,5.493,0,0,0,1.191,1.257,8.079,8.079,0,0,0,6.128,1.362c2.743-.414,5.55-2.293,8.016-4.777,2.509-2.441,4.832-5.586,8.238-7.52a14.56,14.56,0,0,1,10.631-1.354,14.017,14.017,0,0,1,7.421,4.809,15.391,15.391,0,0,1,2.826,5.389c.4,1.4.479,2.215.562,2.207.034,0,.04-.209.025-.6a9.73,9.73,0,0,0-.232-1.7A14.683,14.683,0,0,0,901.4,178.978a15.217,15.217,0,0,0-11.313,1.371c-3.647,2.089-5.964,5.32-8.39,7.729-2.382,2.464-5,4.272-7.516,4.737a7.988,7.988,0,0,1-5.8-1.005A11.635,11.635,0,0,1,866.712,190.306Z" transform="translate(-866.707 -178.455)"/></g></g><g transform="translate(33.259 31.127)"><path class="g" d="M881.023,255.825a2.523,2.523,0,0,1-.824.228,14.8,14.8,0,0,1-2.435.245,18.935,18.935,0,0,1-8.758-1.975,20.243,20.243,0,0,1-9.334-9.438,23.329,23.329,0,0,1-1.582-16.138,46.832,46.832,0,0,0,1.628-8.114,12.882,12.882,0,0,0-1.833-7.195,26.369,26.369,0,0,1-2.866-6.561,15.394,15.394,0,0,1-.182-6.281,16.526,16.526,0,0,1,3.827-8.116,12,12,0,0,1,1.776-1.685c.452-.334.7-.494.72-.463.068.082-.879.786-2.167,2.42a16.969,16.969,0,0,0-3.387,7.964,14.9,14.9,0,0,0,.3,5.943,26.244,26.244,0,0,0,2.876,6.306,18.881,18.881,0,0,1,1.558,3.6,12.848,12.848,0,0,1,.456,4.118A46.08,46.08,0,0,1,859.162,229a22.6,22.6,0,0,0,1.423,15.444,19.8,19.8,0,0,0,17.184,11.425C879.853,255.935,881.008,255.724,881.023,255.825Z" transform="translate(-854.6 -190.33)"/></g><g transform="translate(26.872 12.507)"><path class="g" d="M851.579,183.61c-.068-.1,1.007-1.014,3.163-1.637A12.409,12.409,0,0,1,869.4,188.7c.933,2.038.942,3.453.823,3.461-.179.042-.462-1.282-1.512-3.1a12.8,12.8,0,0,0-13.794-6.327C852.852,183.124,851.665,183.771,851.579,183.61Z" transform="translate(-851.576 -181.513)"/></g><g transform="translate(15.269 16.684)"><path class="g" d="M871.382,193.1a11.532,11.532,0,0,1,.078-1.206,6.194,6.194,0,0,0-.815-3.252,8.935,8.935,0,0,0-3.839-3.6,8.019,8.019,0,0,0-6.775-.171,12.492,12.492,0,0,0-6.057,5.8,18.664,18.664,0,0,0-1.884,9.6,63.8,63.8,0,0,0,1.736,10.977,46.456,46.456,0,0,1,1.419,12.067,36.377,36.377,0,0,1-3.136,11.759,101.5,101.5,0,0,0-4.027,10.4,22.835,22.835,0,0,0-.838,9.835,28.885,28.885,0,0,0,2.57,8.291,66.014,66.014,0,0,0,6.792,10.753l2.086,2.785a5.287,5.287,0,0,1,.682,1.012,5.085,5.085,0,0,1-.853-.872c-.53-.6-1.3-1.485-2.253-2.661a59.435,59.435,0,0,1-7.153-10.679,29.192,29.192,0,0,1-2.775-8.5,23.575,23.575,0,0,1,.768-10.24,98.579,98.579,0,0,1,4-10.536,35.725,35.725,0,0,0,3.035-11.41c.338-8.128-2.957-15.646-3.071-22.951a19.457,19.457,0,0,1,2.095-10.065,13.237,13.237,0,0,1,6.57-6.086,8.66,8.66,0,0,1,7.343.344,9.235,9.235,0,0,1,3.941,3.957,6.074,6.074,0,0,1,.657,3.463A3.994,3.994,0,0,1,871.382,193.1Z" transform="translate(-846.081 -183.491)"/></g><g transform="translate(89.354 74.045)"><g transform="translate(0.788 0.608)"><path class="l" d="M890.1,214.02a12.251,12.251,0,0,1-1.592,3.119,4.138,4.138,0,0,1-2.946,1.708,3.715,3.715,0,0,1-3.145-1.715,5.95,5.95,0,0,1-.876-3.575c.051-1.128.568-2.473,1.687-2.606a2.82,2.82,0,0,1,1.362.3l5.89,2.388" transform="translate(-881.535 -210.941)"/></g><path class="h" d="M888.164,219.187c-.03-.186-1.324.34-3.142-.389a4.483,4.483,0,0,1-2.374-2.158,4.722,4.722,0,0,1-.078-3.854,4.2,4.2,0,0,1,.513-.881c.234-.245.19-.232.446-.2.239.066.627.247.942.372l.969.393c1.261.511,2.4.957,3.366,1.316,1.928.722,3.151,1.1,3.208.967s-1.062-.754-2.917-1.649c-.927-.45-2.038-.965-3.277-1.525l-.954-.427a10.78,10.78,0,0,0-1.075-.444,1.388,1.388,0,0,0-.874.025,1.647,1.647,0,0,0-.65.513,5.132,5.132,0,0,0-.661,1.117,5.525,5.525,0,0,0,.179,4.714,5.038,5.038,0,0,0,2.99,2.418,4.771,4.771,0,0,0,2.551.1C887.913,219.444,888.187,219.244,888.164,219.187Z" transform="translate(-881.162 -210.653)"/></g></g><g transform="translate(125.889 462.435)"><path class="k" d="M938.981,395.039l-.524,76.082-34.169-2.449-7.65-74.1Z" transform="translate(-896.638 -394.567)"/><g transform="translate(2.219 59.173)"><g transform="translate(0.037)"><path class="g" d="M901.9,422.587s24.049,17.07,35.692,2.293l3.043,7.159,13.676,51.013a6.842,6.842,0,0,1-3.848,8.188,6.6,6.6,0,0,1-7-1.337c-9.892-9.41-46.111-44.209-45.759-48.928l.142-12.525a6.367,6.367,0,0,1,4.052-5.862Z" transform="translate(-897.706 -422.587)"/></g><g class="n" transform="translate(0 14.031)"><path class="f" d="M949.3,484.2l-51.594-54.966.011,2.735c-.258,2.967,1.037,4.139,2.446,6.038,4.173,5.63,15.729,18.221,43.125,44.515A6.6,6.6,0,0,0,949.3,484.2Z" transform="translate(-897.688 -429.231)"/></g><g class="n" transform="translate(1.764 5.261)"><path class="f" d="M904.34,425.7a4,4,0,0,1,1.115,5.222,3.848,3.848,0,0,1-5.168,1.153c-1.641-1.083-2.378-4-1.153-5.537s4.175-2.048,5.508-.6" transform="translate(-898.524 -425.078)"/></g><g transform="translate(36.677 33.41)"><path class="h" d="M915.122,445.844c.366.175,1.808-3.212,5.641-5.047,3.778-1.947,7.349-1.052,7.429-1.451.055-.158-.764-.659-2.276-.864a10.543,10.543,0,0,0-10.109,5.024C915.059,444.837,914.961,445.791,915.122,445.844Z" transform="translate(-915.056 -438.407)"/></g><g transform="translate(41.339 44.85)"><path class="h" d="M917.3,448.448c.308.279,2.372-1.829,5.706-2.8,3.315-1.043,6.2-.435,6.3-.838.184-.329-2.929-1.687-6.713-.517C918.8,445.419,916.965,448.277,917.3,448.448Z" transform="translate(-917.263 -443.825)"/></g><g transform="translate(28.112 22.142)"><path class="h" d="M911.023,440.728c.3.306,3.463-2.952,8.519-4.914,5.024-2.044,9.556-1.841,9.568-2.272.1-.346-4.7-1.223-10.092.952C913.6,436.614,910.713,440.548,911.023,440.728Z" transform="translate(-911 -433.072)"/></g><g transform="translate(26.982 11.523)"><path class="h" d="M910.473,430.79c.173.387,3.736-1.119,8.375-1.305,4.64-.249,8.325.914,8.462.513.177-.317-3.542-2.186-8.528-1.93C913.8,428.281,910.269,430.492,910.473,430.79Z" transform="translate(-910.465 -428.044)"/></g><g transform="translate(27.339 1.074)"><path class="h" d="M921.3,434.846a5.529,5.529,0,0,0-.363-2.418,16.99,16.99,0,0,0-3.085-5.93,7.533,7.533,0,0,0-3.833-2.938,2.661,2.661,0,0,0-2.836,1.134,4.318,4.318,0,0,0-.467,3.054c.819,4.017,5.009,7.265,9.647,7a10.849,10.849,0,0,0,9.429-7.539,3.766,3.766,0,0,0-.4-3.109,2.608,2.608,0,0,0-2.937-.855,9.22,9.22,0,0,0-3.774,2.957,18.9,18.9,0,0,0-3.409,5.742,5.727,5.727,0,0,0-.564,2.376c.253.125,1.02-3.419,4.718-7.448a8.634,8.634,0,0,1,3.351-2.5,1.393,1.393,0,0,1,1.605.456,2.585,2.585,0,0,1,.144,2.061,9.686,9.686,0,0,1-8.249,6.441c-3.909.266-7.586-2.6-8.276-5.822a3.137,3.137,0,0,1,.234-2.146,1.44,1.44,0,0,1,1.559-.646c1.326.266,2.405,1.444,3.29,2.426C920.633,431.3,921.035,434.963,921.3,434.846Z" transform="translate(-910.634 -423.096)"/></g></g></g><g transform="translate(203.151 397.446)"><path class="k" d="M978.765,363.792l41.806,79.355-33.381,20L933.224,387.1Z" transform="translate(-933.224 -363.792)"/><g transform="translate(46.349 67.061)"><path class="g" d="M990.945,397.225l1.362,2.2s46.606-7.943,51.359-1.094L969.2,443.537l-14.029-25.394C969.354,416.55,981.292,410.092,990.945,397.225Z" transform="translate(-955.171 -395.548)"/><g class="n" transform="translate(11.444 24.956)"><path class="f" d="M961.5,408.349a3.558,3.558,0,0,0,0,4.747,3.418,3.418,0,0,0,4.705.038c1.223-1.248,1.32-3.92-.032-5.028s-4.01-1-4.9.5" transform="translate(-960.59 -407.365)"/></g><g class="n" transform="translate(10.654 0.736)"><path class="f" d="M963.591,443.149l-3.375-6.107,72.608-41.092s4.19-.57,5.233,1.994Z" transform="translate(-960.216 -395.896)"/></g><g transform="translate(32.842 3.845)"><path class="h" d="M975.405,397.452c.209.372-1.51,1.639-2.589,3.894-1.138,2.228-1.1,4.363-1.527,4.422-.378.133-1.155-2.372.2-5.079C972.819,397.971,975.281,397.07,975.405,397.452Z" transform="translate(-970.722 -397.368)"/></g><g transform="translate(44.552 2.367)"><path class="h" d="M979.012,396.718c.3.3-.9,1.877-1.2,4.164-.37,2.279.329,4.131-.042,4.336-.308.264-1.852-1.713-1.423-4.551C976.746,397.829,978.792,396.376,979.012,396.718Z" transform="translate(-976.268 -396.669)"/></g><g transform="translate(55.194 1.093)"><path class="h" d="M983.518,404.045c-.283.277-1.892-1.233-2.167-3.791-.294-2.557.944-4.382,1.282-4.173.389.173-.067,1.913.19,4.01C983.032,402.193,983.858,403.79,983.518,404.045Z" transform="translate(-981.307 -396.065)"/></g></g></g><g transform="translate(24.724 263.033)"><path class="h" d="M1087.251,453.9,1014.432,313.75s-10.223-14.466-24.182-13.566c-6.35.41-27.741,6.716-49.178,13.469h0l-.693-9.423-73.164,6.629s-21.836,40.333-18.039,68.218,9.947,27.781,9.947,27.781l59.092-.993,25.314.948,3.368,102.37,52.747-6.2,2.621-88.428,36.416,67.557Z" transform="translate(-848.733 -300.144)"/><g transform="translate(69.471 50.81)"><path class="g" d="M881.631,373.029a4.646,4.646,0,0,0,.566-.619c.391-.465.912-1.085,1.575-1.877l5.941-7.248c5.142-6.352,12.481-15.418,21.431-26.471l.013-.017.011-.017c5.18-8.34,17.051-13.271,28.913-11.245a31.836,31.836,0,0,1,16.51,8.04,24.778,24.778,0,0,1,5.632,7.822,30.8,30.8,0,0,1,2.353,9.647,119.031,119.031,0,0,1,.268,12.1q-.06,5.993-.116,11.8c-.135,7.738-.266,15.2-.391,22.315-.31,14.223-.733,27.025-1.132,37.776-.445,10.7-.807,19.386-1.058,25.458-.127,2.961-.224,5.282-.294,6.923-.023.752-.04,1.347-.055,1.8a.309.309,0,1,0,.1.006c.038-.454.087-1.047.148-1.8.112-1.639.268-3.957.469-6.912.38-6.006.872-14.7,1.36-25.452s.973-23.555,1.332-37.782c.142-7.117.292-14.584.446-22.324q.063-5.806.131-11.811a118.362,118.362,0,0,0-.268-12.2,31.742,31.742,0,0,0-2.431-9.94,25.676,25.676,0,0,0-5.856-8.113,32.643,32.643,0,0,0-17-8.245c-12.174-2.044-24.368,3.058-29.686,11.725l.023-.032c-8.844,11.138-16.1,20.273-21.177,26.672-2.475,3.157-4.418,5.636-5.784,7.376-.627.819-1.121,1.463-1.489,1.945A4.647,4.647,0,0,0,881.631,373.029Z" transform="translate(-881.63 -324.204)"/></g><g transform="translate(95.095 83.338)"><path class="g" d="M894.234,405.736c.262,0,.473-14.806.473-33.062s-.211-33.067-.473-33.067-.471,14.8-.471,33.067S893.974,405.736,894.234,405.736Z" transform="translate(-893.763 -339.607)"/></g><g transform="translate(25.457 4.94)"><path class="g" d="M860.788,336.185a4.381,4.381,0,0,0,.993-.329l2.775-1.115,10.17-4.152c8.6-3.48,20.546-8.114,33.907-12.772s25.612-8.439,34.511-11.053c4.361-1.267,7.936-2.3,10.551-3.062l2.866-.851a4.445,4.445,0,0,0,.984-.359,4.352,4.352,0,0,0-1.033.175l-2.91.68c-2.526.6-6.162,1.548-10.639,2.775-8.956,2.454-21.251,6.147-34.64,10.806s-25.31,9.4-33.852,13.045c-4.272,1.818-7.708,3.337-10.063,4.433l-2.7,1.276A4.305,4.305,0,0,0,860.788,336.185Z" transform="translate(-860.788 -302.483)"/></g><g transform="translate(23.346 21.399)"><path class="g" d="M859.788,312.254a51.964,51.964,0,0,0,6.485-.262c4-.241,9.516-.513,15.621-.665l15.649-.317a44.576,44.576,0,0,0,6.485-.338,6.343,6.343,0,0,0-1.74-.182c-1.121-.057-2.743-.108-4.748-.146-4.008-.074-9.547-.12-15.672.038s-11.657.534-15.649.946c-2,.2-3.609.4-4.72.57A6.238,6.238,0,0,0,859.788,312.254Z" transform="translate(-859.788 -310.277)"/></g><g transform="translate(180.036 136.279)"><path class="g" d="M933.989,393.616c.146.106,2-2.549,5.554-6.342a74.7,74.7,0,0,1,6.635-6.245,73.225,73.225,0,0,1,19.047-11.459,74.865,74.865,0,0,1,8.625-2.935c5.018-1.36,8.23-1.757,8.2-1.934a10.307,10.307,0,0,0-2.268.165c-.731.076-1.62.192-2.64.4s-2.2.38-3.461.724a65.666,65.666,0,0,0-8.785,2.777,68.348,68.348,0,0,0-19.281,11.6,65.939,65.939,0,0,0-6.568,6.46c-.9.957-1.609,1.911-2.262,2.72a26.5,26.5,0,0,0-1.59,2.143A10.573,10.573,0,0,0,933.989,393.616Z" transform="translate(-933.985 -364.676)"/></g><g transform="translate(93.955 180.972)"><path class="g" d="M893.224,396.805c.082.152,2.94-1.425,7.793-3.421a89.263,89.263,0,0,1,40.071-6.517c5.235.357,8.443.946,8.473.777a10.789,10.789,0,0,0-2.228-.551,59.528,59.528,0,0,0-6.192-.891,80.828,80.828,0,0,0-40.386,6.568,59.712,59.712,0,0,0-5.592,2.807A10.747,10.747,0,0,0,893.224,396.805Z" transform="translate(-893.223 -385.839)"/></g><g transform="translate(0.036 9.038)"><path class="g" d="M868.786,304.424a3.5,3.5,0,0,1-.367.952L867.177,308q-.874,1.771-2.029,4.12l-2.568,5.512c-3.723,8.173-8.747,19.669-11.385,33.13a82.811,82.811,0,0,0,1,34.76c.462,2.2,1.018,4.158,1.5,5.879.454,1.732.9,3.206,1.286,4.405l.83,2.781a3.556,3.556,0,0,1,.22,1,3.635,3.635,0,0,1-.429-.923c-.279-.741-.619-1.639-1.029-2.72-.452-1.18-.956-2.642-1.468-4.365-.543-1.713-1.153-3.666-1.668-5.871a79.947,79.947,0,0,1-1.326-35.147c2.674-13.632,7.849-25.147,11.763-33.259,1-2,1.907-3.824,2.722-5.455q1.252-2.3,2.2-4.044c.566-1.005,1.037-1.841,1.428-2.532A3.652,3.652,0,0,1,868.786,304.424Z" transform="translate(-848.75 -304.424)"/></g></g><g transform="translate(61.325 118.649)"><path class="h" d="M873.592,231.812c.169.285-2.581,1.85-4.612,5.011-2.091,3.123-2.431,6.268-2.76,6.228-.281.049-.427-3.417,1.839-6.832C870.289,232.781,873.526,231.535,873.592,231.812Z" transform="translate(-866.065 -231.774)"/></g><g transform="translate(102.189 122.024)"><path class="h" d="M885.455,233.382c.232-.169,1.894,1.9,2.815,4.98.938,3.081.693,5.721.405,5.708-.319.006-.568-2.484-1.459-5.389C886.352,235.766,885.185,233.553,885.455,233.382Z" transform="translate(-885.415 -233.372)"/></g><g transform="translate(0 111.378)"><g transform="translate(116.142 23.68)"><path class="i" d="M909.294,239.544s13.028,8.194,14.569,28.581,7.731,45.121,7.731,45.121l52.322,6.821L980.635,346.7l-88.614,3.476Z" transform="translate(-892.022 -239.544)"/></g><g transform="translate(28.026)"><path class="i" d="M885.246,228.331l-8.135,9.246s-21.161,5.032-25.754,7,7.216,45.271,7.216,45.271l-1.747,88.994a11.216,11.216,0,0,0,12.211,11.393l80.407-7.157,6.923-100.393-.682-30.674-19.175-6.629-11.087-10.973h0a20.02,20.02,0,0,1-26.3,3.356Z" transform="translate(-850.297 -228.331)"/></g><g transform="translate(0 16.246)"><path class="i" d="M866.112,236.024s-16.388,6.283-17.779,30.989c-.917,16.269-6.633,44.05-10.43,61.128a36.865,36.865,0,0,0,4.971,27.912h0a36.9,36.9,0,0,0,29.432,16.937l68.792-9.144L940,337.885l-63.612-8.048-2.868-46.417Z" transform="translate(-837.026 -236.024)"/></g><g transform="translate(26.982 108.133)"><path class="h" d="M850.118,303.985a23.423,23.423,0,0,0,.074-2.747,32.941,32.941,0,0,1,.931-7.355,19.37,19.37,0,0,1,5.271-9.364,14.228,14.228,0,0,1,5.387-3.28,19.717,19.717,0,0,1,6.809-.737,211.871,211.871,0,0,1,24.5,2.76c2.986.517,28.058,4.152,29.971,4.483a15.33,15.33,0,0,0,2.733.34,15.543,15.543,0,0,0-2.663-.7c-1.9-.408-26.951-4.141-29.918-4.779a174.383,174.383,0,0,0-24.586-3.047,20.383,20.383,0,0,0-7.127.8,14.925,14.925,0,0,0-5.7,3.531,19.643,19.643,0,0,0-5.318,9.835,29.173,29.173,0,0,0-.65,7.514A11.48,11.48,0,0,0,850.118,303.985Z" transform="translate(-849.803 -279.535)"/></g><g transform="translate(39.348 63.726)"><path class="h" d="M860.365,258.507a6.86,6.86,0,0,0-.281,1.825c-.123,1.178-.243,2.887-.357,5-.2,4.464-.454,10.177-.737,16.5a124.46,124.46,0,0,1-1.833,16.348c-.792,4.133-1.635,6.61-1.48,6.665a6.881,6.881,0,0,0,.735-1.7c.222-.551.437-1.246.669-2.057s.5-1.736.729-2.775a97.338,97.338,0,0,0,2.122-16.432c.355-6.456.4-12.3.462-16.525q.032-2.917.055-5.007A7.013,7.013,0,0,0,860.365,258.507Z" transform="translate(-855.658 -258.507)"/></g><g transform="translate(9.312 142.1)"><path class="h" d="M841.437,295.627a13.781,13.781,0,0,0,1.858,1.848,43.677,43.677,0,0,0,5.765,4.224,49.243,49.243,0,0,0,22.368,7.013,46.648,46.648,0,0,0,12.969-.971c3.939-.836,7.256-2.238,10.149-2.916a48.16,48.16,0,0,1,6.994-.978,8.75,8.75,0,0,0,2.57-.52c-.015-.07-.929.076-2.6.154a38.969,38.969,0,0,0-7.115.693c-2.98.614-6.327,1.951-10.181,2.716a47.646,47.646,0,0,1-12.73.881,51.228,51.228,0,0,1-22.085-6.646C844.223,298.136,841.574,295.462,841.437,295.627Z" transform="translate(-841.435 -295.62)"/></g><g class="o" transform="translate(36.064 150.062)"><path d="M891.923,306.148c.245-1.768.431-3.761-.689-5.151a5.351,5.351,0,0,0-4.109-1.6c-3.429-.093-6.734,1.132-10.025,2.105a71.11,71.11,0,0,1-23,2.849,20.625,20.625,0,0,0,12.02,4.481,61.46,61.46,0,0,0,13-.891l13.452-1.888" transform="translate(-854.103 -299.39)"/></g><g transform="translate(127.5 51.523)"><path class="h" d="M897.408,316.973c-.171-.139,2.551-2.976,5.658-8.4a52.022,52.022,0,0,0,2.614-46.857c-2.483-5.74-4.872-8.861-4.686-8.982a11.4,11.4,0,0,1,1.7,2.154,44.585,44.585,0,0,1,3.7,6.511,50.275,50.275,0,0,1-2.655,47.568,44.315,44.315,0,0,1-4.4,6.059A11.323,11.323,0,0,1,897.408,316.973Z" transform="translate(-897.4 -252.728)"/></g><g transform="translate(54.836 11.115)"><path class="h" d="M918.741,240.639a9.1,9.1,0,0,1-1.656,1.937,28.993,28.993,0,0,1-5.47,4.3,33.688,33.688,0,0,1-9.533,4,29.626,29.626,0,0,1-12.664.507,40.187,40.187,0,0,1-11.752-4.716,55.7,55.7,0,0,1-8.4-5.981,36.949,36.949,0,0,1-4.853-4.973A8.99,8.99,0,0,1,863,233.6c.158-.125,2.238,2.864,6.77,6.5a61,61,0,0,0,8.4,5.693,40.926,40.926,0,0,0,11.467,4.519,29.528,29.528,0,0,0,12.211-.414,34.946,34.946,0,0,0,9.374-3.685C916.234,243.314,918.574,240.453,918.741,240.639Z" transform="translate(-862.992 -233.594)"/></g><g transform="translate(73.058 12.038)"><path class="h" d="M875.914,234.037c.279.15-.948,2.893-2.078,6.392-1.151,3.493-1.774,6.433-2.088,6.388-.289-.03-.142-3.125,1.043-6.73C873.959,236.48,875.663,233.891,875.914,234.037Z" transform="translate(-871.621 -234.031)"/></g><g transform="translate(89.752 14.377)"><path class="h" d="M880.081,235.139c.3,0,.547,3.119.545,6.967s-.253,6.965-.555,6.965-.549-3.119-.545-6.967S879.779,235.139,880.081,235.139Z" transform="translate(-879.526 -235.139)"/></g><g transform="translate(29.019 23.119)"><path class="h" d="M868.468,267.683c-.186.015-.357-1.932-1.107-4.956a38.594,38.594,0,0,0-12.629-20.263c-2.384-2-4.057-3.016-3.962-3.176.053-.1,1.878.674,4.445,2.568a34.045,34.045,0,0,1,12.905,20.7C868.69,265.7,868.584,267.681,868.468,267.683Z" transform="translate(-850.767 -239.279)"/></g></g><g transform="translate(63.082 253.075)"><path class="h" d="M907.1,295.455c.042.135-2.122.959-5.708,2.019s-8.6,2.317-14.179,3.468-10.654,2.061-14.327,2.709-5.953,1-5.987.851,2.2-.773,5.833-1.611,8.688-1.877,14.257-3.026,10.583-2.272,14.2-3.142S907.051,295.3,907.1,295.455Z" transform="translate(-866.897 -295.429)"/></g><g transform="translate(102.972 168.474)"><g transform="translate(12.92 0.589)"><path class="c" d="M891.9,354.137c.384-1.343,20.013-79.235,23.7-94.729l74.458-3.761-26.034,91.578Z" transform="translate(-891.904 -255.647)"/></g><g transform="translate(12.92 4.895)"><path class="b" d="M891.9,356.179c.384-1.343,20.013-79.237,23.7-94.731l74.458-3.761-26.034,91.578Z" transform="translate(-891.904 -257.686)"/></g><g transform="translate(15.779 6.844)"><path class="d" d="M893.258,357.1c.382-1.343,20.014-79.235,23.7-94.731l74.458-3.761L965.38,350.19Z" transform="translate(-893.258 -258.609)"/></g><g transform="translate(12.918)"><g transform="translate(0.002 0.589)"><path class="c" d="M891.9,354.137c.384-1.343,20.013-79.235,23.7-94.729l74.458-3.761-26.034,91.578Z" transform="translate(-891.904 -255.647)"/></g><path class="h" d="M891.905,354.448s.479-.072,1.36-.169l3.867-.414,14.612-1.512c12.584-1.269,30.53-3.077,52.242-5.265l-.391.323c7.343-25.933,16.284-57.507,25.937-91.6l.558.7c-.714.036-1.487.074-2.26.114l-72.2,3.594.458-.382c-7.1,27.918-13.093,51.5-17.329,68.163-2.133,8.306-3.824,14.884-5,19.448q-.871,3.336-1.352,5.185l-.361,1.347a4.229,4.229,0,0,1-.143.473,2.52,2.52,0,0,1,.08-.42c.076-.336.175-.758.3-1.3q.434-1.815,1.221-5.1c1.106-4.547,2.7-11.1,4.716-19.378,4.131-16.783,9.976-40.532,16.9-68.651l.089-.363.37-.019c21.709-1.111,46.272-2.369,72.2-3.7.773-.04,1.546-.078,2.26-.114l.767-.04-.211.739c-9.725,34.078-18.732,65.633-26.129,91.551l-.084.3-.306.027c-21.87,1.989-39.951,3.634-52.628,4.785l-14.506,1.28q-2.417.206-3.774.319C892.315,354.435,891.905,354.448,891.905,354.448Z" transform="translate(-891.903 -255.368)"/></g><g transform="translate(12.918 4.308)"><g transform="translate(0.002 0.587)"><path class="b" d="M891.9,356.179c.384-1.343,20.013-79.237,23.7-94.731l74.458-3.761-26.034,91.578Z" transform="translate(-891.904 -257.686)"/></g><path class="h" d="M891.905,356.488s.479-.074,1.36-.171l3.867-.414,14.612-1.512c12.584-1.267,30.53-3.077,52.242-5.265l-.391.325c7.343-25.935,16.284-57.509,25.937-91.606l.558.7-2.26.114-72.2,3.594.458-.38-17.329,68.161c-2.133,8.306-3.824,14.886-5,19.45q-.871,3.336-1.352,5.185c-.15.56-.268,1-.361,1.345a4.383,4.383,0,0,1-.143.475,2.515,2.515,0,0,1,.08-.422c.076-.334.175-.758.3-1.3l1.221-5.1c1.106-4.547,2.7-11.1,4.716-19.378,4.131-16.78,9.976-40.532,16.9-68.649l.089-.363.37-.019,72.2-3.7,2.26-.114.767-.038-.211.737c-9.725,34.078-18.732,65.633-26.129,91.551l-.084.3-.306.027-52.628,4.787-14.506,1.28-3.774.317C892.315,356.473,891.905,356.488,891.905,356.488Z" transform="translate(-891.903 -257.408)"/></g><g transform="translate(15.777 6.257)"><g transform="translate(0.002 0.587)"><path class="d" d="M893.258,357.1c.382-1.343,20.014-79.235,23.7-94.731l74.458-3.761L965.38,350.19Z" transform="translate(-893.258 -258.609)"/></g><path class="h" d="M893.259,357.411s.479-.072,1.36-.171l3.867-.414c3.421-.353,8.348-.864,14.612-1.51,12.582-1.269,30.53-3.077,52.24-5.267l-.388.325c7.343-25.933,16.282-57.507,25.937-91.606l.557.7c-.714.036-1.487.074-2.26.114l-72.2,3.594.458-.382c-7.1,27.918-13.093,51.5-17.329,68.161-2.135,8.308-3.825,14.886-5,19.45q-.871,3.336-1.352,5.185c-.15.56-.268,1-.363,1.347a4.574,4.574,0,0,1-.142.473,2.317,2.317,0,0,1,.08-.422c.076-.334.173-.758.3-1.3q.437-1.815,1.223-5.1c1.107-4.547,2.7-11.1,4.716-19.378,4.131-16.783,9.976-40.532,16.9-68.651l.089-.363.37-.019,72.194-3.7c.775-.038,1.548-.078,2.26-.114l.769-.038-.211.739c-9.727,34.076-18.732,65.633-26.129,91.551l-.084.3-.306.027L912.8,355.732l-14.506,1.28c-1.614.135-2.868.243-3.776.319C893.667,357.4,893.259,357.411,893.259,357.411Z" transform="translate(-893.257 -258.331)"/></g><g transform="translate(0 51.036)"><path class="k" d="M885.786,288.124h10.228s5.231-5.056,6.652-5.767,8.416-2.821,8.416-2.821L909,286.772s-.925.31-1.863.678c-1.782.695-1.286,2.272.135,2.272h10.3s10.542-5.058,12.107-4.133c1.316.777,1.774,2.179.427,4.133s-10.58,6.57-11.646,6.927l-3.02.887,2.842.889,13.433-4.695c.872-.156,2.078-.3,2.471.2a1.8,1.8,0,0,1-.07,2.6,56.8,56.8,0,0,1-6.08,4.779s2.146,3.151.369,4.75-6.927,6.394-6.927,6.394a7.572,7.572,0,0,1-2.131,3.907c-1.6,1.242-19.181,1.242-20.425,1.242s-8.348-4.084-8.348-4.084l-4.652-.484Z" transform="translate(-885.786 -279.535)"/><g transform="translate(30.48 21.768)"><path class="l" d="M900.219,294.932a5.427,5.427,0,0,0,1.922.258,5.852,5.852,0,0,0,2.1-.367,11.864,11.864,0,0,0,2.287-1.218c1.525-.99,2.887-1.9,3.863-2.585a9.037,9.037,0,0,0,1.533-1.172,8.885,8.885,0,0,0-1.692.927c-1.018.617-2.405,1.5-3.926,2.483a12.919,12.919,0,0,1-2.2,1.21,6.138,6.138,0,0,1-1.977.433C900.964,294.952,900.223,294.861,900.219,294.932Z" transform="translate(-900.219 -289.843)"/></g><g transform="translate(29.671 30.241)"><path class="l" d="M899.838,297.05a2.161,2.161,0,0,0,1.335.75,4.967,4.967,0,0,0,3.626-.61A14.909,14.909,0,0,0,907.74,295a4.547,4.547,0,0,0,1-1.14,48.4,48.4,0,0,1-4.143,2.969,5.1,5.1,0,0,1-3.368.686A8.167,8.167,0,0,1,899.838,297.05Z" transform="translate(-899.836 -293.855)"/></g><g transform="translate(24.693 17.74)"><path class="l" d="M897.479,289.079a11.125,11.125,0,0,0,5.425-1.121,14.768,14.768,0,0,0-2.726.5A14.415,14.415,0,0,0,897.479,289.079Z" transform="translate(-897.479 -287.935)"/></g></g><g transform="translate(89.955 45.228)"><g transform="translate(4.799)"><path class="k" d="M949.265,287.712a4.009,4.009,0,0,0,1.413-5.584,4.5,4.5,0,0,0-1.438-1.6c-1.609-.851-15.809-3.508-17.332-3.725-1.6-.23-1.8,2.712.186,4.156s17.171,6.758,17.171,6.758Z" transform="translate(-930.654 -276.785)"/></g><g transform="translate(1.543 10.159)"><path class="k" d="M947.674,292.654a4.009,4.009,0,0,0,1.413-5.584,4.5,4.5,0,0,0-1.44-1.6c-1.607-.849-16.1-4.654-17.33-3.725-1.47,1.113-1.8,2.714.186,4.156s17.171,6.758,17.171,6.758Z" transform="translate(-929.112 -281.595)"/></g><g transform="translate(0 15.735)"><path class="k" d="M945.6,287.594a4.685,4.685,0,0,1,3.128,2.454,3.25,3.25,0,0,1,.287,2.148,6.157,6.157,0,0,1-4.319,4.612c-2.593.811-11.045-1.088-11.045-1.088l1.951-5.451-5.924-1.939c-2.411-.957-1.246-4.73,1.66-4C932.3,284.57,942.212,286.749,945.6,287.594Z" transform="translate(-928.382 -284.236)"/></g><g transform="translate(3.549 5.102)"><path class="k" d="M948.157,289.885a4.011,4.011,0,0,0,1.413-5.584,4.486,4.486,0,0,0-1.44-1.605c-1.607-.851-14.517-3.147-16.02-3.47-1.482-.319-3.115,2.456-1.126,3.9s17.173,6.758,17.173,6.758Z" transform="translate(-930.063 -279.201)"/></g><g transform="translate(7.066 10.588)"><path class="l" d="M931.728,281.81a14.083,14.083,0,0,0,2.262.581c1.406.313,3.353.71,5.5,1.136a14.221,14.221,0,0,1,5.18,1.9,8.506,8.506,0,0,1,1.618,1.616,1.516,1.516,0,0,0-.277-.57,4.939,4.939,0,0,0-1.18-1.265,8.743,8.743,0,0,0-2.257-1.214,21.145,21.145,0,0,0-3.005-.843c-2.158-.427-4.114-.783-5.533-1.026A14.33,14.33,0,0,0,931.728,281.81Z" transform="translate(-931.728 -281.799)"/></g><g transform="translate(9.562 5.872)"><path class="l" d="M932.91,279.579a12.629,12.629,0,0,0,2.167.526c1.468.285,3.273.634,5.269,1.022a12.706,12.706,0,0,1,4.9,1.909,10.594,10.594,0,0,1,1.51,1.584,1.464,1.464,0,0,0-.258-.547,5.132,5.132,0,0,0-1.083-1.25,11.679,11.679,0,0,0-4.986-2.072c-2.067-.41-3.945-.7-5.3-.912A12.747,12.747,0,0,0,932.91,279.579Z" transform="translate(-932.91 -279.566)"/></g><g transform="translate(6.884 16.632)"><path class="l" d="M931.642,284.672a12.127,12.127,0,0,0,2.031.625,50.746,50.746,0,0,0,5,1.111,13.2,13.2,0,0,1,4.754,1.6,8.228,8.228,0,0,1,1.529,1.413,1.294,1.294,0,0,0-.262-.515,4.821,4.821,0,0,0-1.111-1.119,11.944,11.944,0,0,0-4.84-1.757c-1.972-.323-3.725-.726-5.009-1A10.993,10.993,0,0,0,931.642,284.672Z" transform="translate(-931.642 -284.661)"/></g><g transform="translate(6.071 21.377)"><path class="l" d="M931.257,286.923a14.429,14.429,0,0,0,3.085,1.229,14.771,14.771,0,0,0,3.218.87,28.634,28.634,0,0,0-6.3-2.1Z" transform="translate(-931.257 -286.907)"/></g></g></g></g><g transform="translate(534.35 1030.485)"><g transform="translate(0 0.551)"><path class="f" d="M531.544,559.329H1521.9" transform="translate(-531.544 -559.329)"/></g><path class="h" d="M1521.9,559.619c0,.3-221.719.549-495.155.549-273.534,0-495.2-.245-495.2-.549s221.67-.551,495.2-.551C1300.185,559.068,1521.9,559.315,1521.9,559.619Z" transform="translate(-531.544 -559.068)"/></g><g transform="translate(1341.59 195.324)"><g transform="translate(0.714 0.481)"><path class="f" d="M920.543,281.588l5.964-22.218c-6.9-8.219-10.986-16.278-12.061-27.743-3.113-33.2,17.241-62.324,50.006-67.141s63.417,17.127,68.234,49.891-18.8,62.755-51.56,67.572c-13.68,2.013-28.852-2.828-40.029-9.134h0Z" transform="translate(-914.133 -163.823)"/></g><g transform="translate(34.401 54.659)"><g transform="translate(0 0)"><circle class="h" cx="5.116" cy="5.116" r="5.116"/></g><g transform="translate(20.473)"><path class="h" d="M950.011,194.595a5.116,5.116,0,1,1-5.117-5.117A5.116,5.116,0,0,1,950.011,194.595Z" transform="translate(-939.779 -189.478)"/></g><g transform="translate(41.579)"><path class="h" d="M959.318,192.035a5.115,5.115,0,1,1-6.988-1.871A5.118,5.118,0,0,1,959.318,192.035Z" transform="translate(-949.773 -189.478)"/></g></g><path class="h" d="M974.1,163.618a6,6,0,0,1,1.035-.017l3.041.087c.667.032,1.419.03,2.241.1l2.68.376q1.46.212,3.13.45l3.5.868a56.655,56.655,0,0,1,16.945,7.387,59.81,59.81,0,0,1,27.468,44.948,62.1,62.1,0,0,1,.164,8.194c-.1,1.385-.068,2.8-.272,4.192s-.42,2.8-.636,4.221A60.111,60.111,0,0,1,1027.7,251.1a64.267,64.267,0,0,1-10.891,14.985,62.962,62.962,0,0,1-15.693,11.273,56.988,56.988,0,0,1-19.127,5.871,37.977,37.977,0,0,1-5.1.435,46.093,46.093,0,0,1-5.155.093,61.315,61.315,0,0,1-10.331-1.305,60.358,60.358,0,0,1-20.563-8.654l.623.063-20.945,8.407-1.242.5.355-1.288q3.168-11.53,6.156-22.394l.106.553a60.107,60.107,0,0,1-11.176-25.589,54.4,54.4,0,0,1-.815-13.11,42.041,42.041,0,0,1,.6-6.3q.237-1.543.475-3.064c.186-1.007.494-1.983.733-2.965a59.9,59.9,0,0,1,23.369-34.07,57.321,57.321,0,0,1,13.906-7.336l3.134-1.121q1.549-.393,2.974-.756l2.72-.674c.874-.167,1.717-.258,2.5-.378,1.584-.2,2.976-.475,4.194-.536l3.079-.1,1.88-.04a2.9,2.9,0,0,1,.636.021,2.783,2.783,0,0,1-.634.089c-.479.036-1.1.087-1.873.148l-3.058.2c-1.208.095-2.587.4-4.154.631a59.573,59.573,0,0,0-47.63,44.185c-.228.965-.526,1.924-.705,2.914q-.225,1.5-.452,3.009a41.173,41.173,0,0,0-.553,6.183,53.365,53.365,0,0,0,.849,12.852,58.993,58.993,0,0,0,11.024,25.031l.188.249-.082.3q-2.962,10.853-6.111,22.406l-.887-.79,20.936-8.43.33-.133.3.2a59.2,59.2,0,0,0,20.1,8.452,60.3,60.3,0,0,0,10.1,1.278,45.6,45.6,0,0,0,5.043-.091,36.987,36.987,0,0,0,4.988-.422,55.755,55.755,0,0,0,18.707-5.721,61.727,61.727,0,0,0,15.37-11,63.051,63.051,0,0,0,10.7-14.643,59.076,59.076,0,0,0,5.632-16.316q.323-2.084.64-4.135c.2-1.371.179-2.752.281-4.11a59.045,59.045,0,0,0-26.883-52.453,56.954,56.954,0,0,0-16.671-7.516l-3.453-.921c-1.1-.18-2.133-.351-3.1-.507l-2.657-.439c-.815-.091-1.561-.112-2.224-.165l-3.024-.22A5.613,5.613,0,0,1,974.1,163.618Z" transform="translate(-913.795 -163.595)"/></g></g></svg>