<svg xmlns="http://www.w3.org/2000/svg" width="662.896" height="603.188" viewBox="0 0 662.896 603.188"><defs><style>.a{opacity:0.57;}.b{fill:#455a64;}.c{fill:#22c6c6;}.d{fill:#263238;}.e{fill:#ffbe9d;}.f{fill:#eb996e;}.g{fill:aqua;}.h{fill:#fff;}.i{fill:#e0e0e0;}</style></defs><g class="a" transform="translate(-865.296 -166.419)"><g transform="translate(1135.235 216.155)"><path d="M1091.411,192.878c-73.515-12.621-80.346,53.867-79.856,72.945s7.009,35.984,13.729,53.845,2.453,42.231-3.2,60.458c-6.619,21.334-27.685,40.906-20.158,61.937,5.912,16.521,27.733,24.61,30.41,41.953,2.117,13.725-8.936,25.662-13.017,38.935-7.695,25.03,9.944,50.128,26.516,70.4,6.845,8.371,15.126,17.475,25.94,17.621,14.938.2,23.809-15.976,30.554-29.306a254.6,254.6,0,0,1,80.282-92.831" transform="translate(-1000.32 -191.297)"/><g transform="translate(14.947 96.214)"><path class="b" d="M1038.744,244.341c.042.1-1.617.95-4.534,1.641A31.012,31.012,0,0,1,1011.6,242.4c-2.561-1.559-3.874-2.881-3.8-2.963.11-.142,1.575.962,4.164,2.321a35,35,0,0,0,22.1,3.5C1036.947,244.769,1038.684,244.173,1038.744,244.341Z" transform="translate(-1007.796 -239.423)"/></g><g transform="translate(11.839 106.965)"><path class="b" d="M1018.238,408.126a37.608,37.608,0,0,1-4.112-5.54,54.185,54.185,0,0,1-5.078-45.206,69.333,69.333,0,0,1,7.431-14.758c3.069-4.832,6.543-9.616,9.748-14.718a80.547,80.547,0,0,0,12.369-46.324,86.657,86.657,0,0,0-1.452-12.811A79.38,79.38,0,0,0,1031.432,251c-.836-2.053-1.739-3.523-2.231-4.58a11.671,11.671,0,0,1-.755-1.617,11.224,11.224,0,0,1,.939,1.515,49.232,49.232,0,0,1,2.413,4.51,75.063,75.063,0,0,1,6.068,17.8,85.257,85.257,0,0,1,1.594,12.921,80.511,80.511,0,0,1-12.349,46.913c-3.233,5.144-6.713,9.922-9.772,14.712a69.1,69.1,0,0,0-7.383,14.524,52.865,52.865,0,0,0-1.915,27.247,54.7,54.7,0,0,0,6.433,17.435C1016.736,406.175,1018.348,408.042,1018.238,408.126Z" transform="translate(-1006.241 -244.801)"/></g></g><g transform="translate(1009.998 410.426)"><g transform="translate(375.755 3.433)"><path class="c" d="M1141.923,290.188s36.857,0,61.947,53.763c18.612,39.882,71.682,175.66,63.307,213.815-1.877,8.549-7.231,27.571-20.9,27.833-23.285.444-39.584-.848-39.584-.848l-29.778-68.863-28.729-98.277S1101.907,299.494,1141.923,290.188Z" transform="translate(-1125.628 -290.188)"/></g><g transform="translate(183.228)"><path class="c" d="M1284.241,584.316l-9.234-62.277L1238.149,291.9l-45.82-3.433-86.122,17.105s-50.826,8.233-76.881,26.843c0,0,7.735,125.988,8.175,139.1.962,28.693,18.827,54.406,36.783,77.193l4.73,6-2.437,36.116Z" transform="translate(-1029.326 -288.471)"/></g><g transform="translate(0 26.1)"><path class="c" d="M1160.382,301.526s-36.232,7.879-59.533,37.979c-18.807,24.294-106.5,132.485-106.5,132.485s-45.082,25.248-53.457,51.3.126,49.138,19.668,49.138,70.062-13.379,70.062-13.379l98.165-112.409,2.225,19.362,22.463-98.241Z" transform="translate(-937.676 -301.526)"/></g><g transform="translate(388.666 102.765)"><path class="d" d="M1132.094,339.874a5.859,5.859,0,0,1,.424,1.206c.266.908.6,2.069,1.022,3.5.91,3.175,2.165,7.549,3.7,12.9,3.157,10.884,7.655,25.88,12.719,42.413,5.084,16.475,9.682,31.384,13.059,42.325,1.629,5.326,2.963,9.68,3.928,12.837l1.026,3.5a6,6,0,0,1,.29,1.243,5.92,5.92,0,0,1-.49-1.18c-.314-.89-.716-2.033-1.212-3.445-1.044-3.131-2.483-7.453-4.244-12.737-3.525-10.776-8.289-25.7-13.353-42.243s-9.455-31.577-12.431-42.521c-1.477-5.474-2.655-9.908-3.383-13-.342-1.457-.618-2.637-.832-3.557A5.873,5.873,0,0,1,1132.094,339.874Z" transform="translate(-1132.086 -339.874)"/></g><g transform="translate(293.276 210.751)"><path class="d" d="M1145.858,411.1a12.423,12.423,0,0,1-2.535.592,28.494,28.494,0,0,1-3.021.46c-1.184.126-2.531.328-4.032.366a69.305,69.305,0,0,1-10.542-.184,72.156,72.156,0,0,1-24.786-6.935,69.509,69.509,0,0,1-9.108-5.316c-1.263-.812-2.309-1.683-3.257-2.407a28.612,28.612,0,0,1-2.343-1.959,12.325,12.325,0,0,1-1.859-1.821c.134-.158,2.885,2.331,7.867,5.576a77.71,77.71,0,0,0,9.112,5.06,76.654,76.654,0,0,0,24.47,6.849,77.521,77.521,0,0,0,10.414.4C1142.181,411.6,1145.826,410.9,1145.858,411.1Z" transform="translate(-1084.372 -393.888)"/></g><g transform="translate(190.057 106.959)"><path class="d" d="M1041.025,341.972a5.012,5.012,0,0,1-.2,1.142c-.2.846-.462,1.909-.778,3.215-.36,1.387-.786,3.091-1.2,5.088s-.984,4.244-1.411,6.773c-1,5.028-1.9,11.07-2.617,17.8a199.6,199.6,0,0,0,.368,43.987c.832,6.723,1.833,12.749,2.915,17.759.47,2.523,1.065,4.764,1.523,6.749s.9,3.684,1.283,5.068c.338,1.3.612,2.357.831,3.2a4.954,4.954,0,0,1,.222,1.138,4.755,4.755,0,0,1-.424-1.076c-.268-.83-.606-1.871-1.02-3.151-.444-1.367-.958-3.051-1.457-5.032s-1.159-4.216-1.679-6.737c-1.176-5.01-2.259-11.05-3.149-17.8a188.042,188.042,0,0,1-.368-44.2c.774-6.763,1.755-12.821,2.849-17.851.478-2.529,1.087-4.778,1.567-6.763s.95-3.683,1.372-5.058c.394-1.286.714-2.333.968-3.167A4.709,4.709,0,0,1,1041.025,341.972Z" transform="translate(-1032.742 -341.972)"/></g><g transform="translate(374.892 11.92)"><path class="d" d="M1150.3,294.441c.1.182-3.081,1.545-7.411,4.924a43.394,43.394,0,0,0-16.754,37.449c.368,5.48,1.469,8.757,1.268,8.806a9.418,9.418,0,0,1-.812-2.273,37.206,37.206,0,0,1-1.19-6.473,42.016,42.016,0,0,1,17.041-38.1,37.375,37.375,0,0,1,5.622-3.429A9.18,9.18,0,0,1,1150.3,294.441Z" transform="translate(-1125.196 -294.433)"/></g><g transform="translate(192.452 127.312)"><path d="M1236.755,353.9a11.3,11.3,0,0,1-1.035,2.015,17.589,17.589,0,0,1-4.39,4.788,24.741,24.741,0,0,1-9.3,4.362,32.661,32.661,0,0,1-13.6.27,81.376,81.376,0,0,1-15.79-4.8c-5.518-2.135-11.335-4.634-17.759-6.178a41.7,41.7,0,0,0-10-1.22,36.657,36.657,0,0,0-10.328,1.7c-6.857,2.117-13.271,6.094-19.542,10.442-6.27,4.38-12.227,9.014-18.6,12.557-6.318,3.569-13.067,6.2-19.838,6.611a31.27,31.27,0,0,1-9.78-.926,43.593,43.593,0,0,1-8.6-3.385,157.91,157.91,0,0,1-14.014-8.689c-8.307-5.618-16-8.727-21.588-9.224a27.563,27.563,0,0,0-8.639.462,2.373,2.373,0,0,1,.548-.182c.368-.09.908-.276,1.641-.4a23.3,23.3,0,0,1,6.491-.28c5.69.38,13.545,3.441,21.945,9.01a162.295,162.295,0,0,0,14.006,8.537,43.007,43.007,0,0,0,8.441,3.269,30.475,30.475,0,0,0,9.488.854c6.565-.428,13.165-3,19.4-6.541,6.293-3.511,12.2-8.115,18.511-12.525,6.3-4.368,12.8-8.4,19.832-10.56a37.529,37.529,0,0,1,10.624-1.717,42.418,42.418,0,0,1,10.228,1.279c6.526,1.6,12.361,4.146,17.849,6.308a82.03,82.03,0,0,0,15.6,4.876,32.417,32.417,0,0,0,13.342-.112,24.716,24.716,0,0,0,9.195-4.12,18.313,18.313,0,0,0,4.458-4.578C1236.372,354.589,1236.7,353.877,1236.755,353.9Z" transform="translate(-1033.94 -352.152)"/></g><g transform="translate(392.467 99.83)"><path d="M1213.291,338.408a2.774,2.774,0,0,1-.4.786,14.979,14.979,0,0,1-1.447,2.073,21.727,21.727,0,0,1-7.393,5.594A34.649,34.649,0,0,1,1190.664,350c-5.218.23-10.888-.584-16.745-1.547s-11.44-1.9-16.54-1.907a37.549,37.549,0,0,0-13.265,2.2,23.962,23.962,0,0,0-7.761,4.656c-1.583,1.467-2.271,2.469-2.363,2.4-.03-.022.13-.276.464-.748a15.523,15.523,0,0,1,1.618-1.939,22.749,22.749,0,0,1,7.775-5.052,37.069,37.069,0,0,1,13.531-2.469c5.216-.044,10.856.874,16.71,1.839s11.447,1.791,16.541,1.615a35.011,35.011,0,0,0,13.115-2.849,22.77,22.77,0,0,0,7.4-5.194C1212.6,339.408,1213.191,338.344,1213.291,338.408Z" transform="translate(-1133.987 -338.406)"/></g><g transform="translate(408.779 149.145)"><path d="M1221.588,363.075a3.035,3.035,0,0,1-.332.838,20.018,20.018,0,0,1-1.2,2.285,32.669,32.669,0,0,1-5.953,7.4,38.456,38.456,0,0,1-5.172,4.08,40.92,40.92,0,0,1-6.734,3.465,35.993,35.993,0,0,1-17.087,2.2c-6.132-.648-11.743-2.275-16.879-3.377a54.638,54.638,0,0,0-13.782-1.567,27.421,27.421,0,0,0-9.141,1.743c-2.059.81-3.1,1.481-3.157,1.391-.02-.03.228-.214.724-.538a16.135,16.135,0,0,1,2.277-1.228,25.785,25.785,0,0,1,9.262-2.105,52.824,52.824,0,0,1,14.018,1.366c5.182,1.059,10.78,2.647,16.783,3.279a35.7,35.7,0,0,0,16.638-2.059,41.27,41.27,0,0,0,6.611-3.3,39.011,39.011,0,0,0,5.14-3.894,35.79,35.79,0,0,0,6.11-7.071C1220.94,364.136,1221.494,363.027,1221.588,363.075Z" transform="translate(-1142.147 -363.073)"/></g><g transform="translate(198.234 176.826)"><path d="M1036.834,410.54a18.375,18.375,0,0,0,7.809-4.17,97.976,97.976,0,0,0,7.381-7.5,50.7,50.7,0,0,1,10.978-8.73,43.521,43.521,0,0,1,16.026-5.642,35.555,35.555,0,0,1,9.526-.034,39.137,39.137,0,0,1,9.722,2.727c6.407,2.595,12.525,6.477,19.288,9.474a39.115,39.115,0,0,0,10.712,3.189,27.26,27.26,0,0,0,5.686.152,32.27,32.27,0,0,0,5.678-1.094c7.519-2.207,14.016-6.537,20.674-9.916a104.822,104.822,0,0,1,20.064-7.877,113.048,113.048,0,0,1,36.141-4.05,108.633,108.633,0,0,1,24.212,4.022c2.8.766,4.916,1.543,6.349,2.073l1.625.608a2.46,2.46,0,0,1,.542.24,2.689,2.689,0,0,1-.578-.14l-1.659-.51c-1.451-.466-3.581-1.178-6.387-1.879a112.909,112.909,0,0,0-59.984.558,105.131,105.131,0,0,0-19.858,7.861c-6.6,3.355-13.121,7.733-20.854,10.012a33.039,33.039,0,0,1-5.874,1.128,28.3,28.3,0,0,1-5.91-.16,40.015,40.015,0,0,1-10.99-3.283c-6.859-3.059-12.945-6.945-19.242-9.52a38.441,38.441,0,0,0-9.482-2.709,34.919,34.919,0,0,0-9.29-.016,43.065,43.065,0,0,0-15.77,5.424,50.893,50.893,0,0,0-10.927,8.5,91.171,91.171,0,0,1-7.541,7.411,18.489,18.489,0,0,1-5.79,3.351A8.967,8.967,0,0,1,1036.834,410.54Z" transform="translate(-1036.832 -376.919)"/></g><g transform="translate(104.127 135.916)"><path d="M1059.678,409.435a6.858,6.858,0,0,0-3.281-1.715,13.022,13.022,0,0,0-4.4.078c-1.721.248-3.658.728-5.879,1.034a16.841,16.841,0,0,1-7.309-.66,22.34,22.34,0,0,1-7.3-4.186,32.955,32.955,0,0,1-6.118-6.973,52.82,52.82,0,0,1-4.464-8.86c-2.549-6.272-4.486-12.405-7.319-17.465a28.313,28.313,0,0,0-10.31-11.036,21.013,21.013,0,0,0-5.382-2.277,16.64,16.64,0,0,0-4.392-.456c-2.437.122-3.732.658-3.766.532a3.691,3.691,0,0,1,.928-.37,11.585,11.585,0,0,1,2.813-.566,15.923,15.923,0,0,1,4.55.294,20.827,20.827,0,0,1,5.618,2.207,28.567,28.567,0,0,1,10.782,11.206c2.937,5.144,4.916,11.327,7.443,17.535a53.238,53.238,0,0,0,4.354,8.7,32.469,32.469,0,0,0,5.886,6.8,21.712,21.712,0,0,0,6.949,4.1,16.3,16.3,0,0,0,6.951.75c4.3-.588,7.937-1.479,10.45-.778a5.734,5.734,0,0,1,2.565,1.33A3.039,3.039,0,0,1,1059.678,409.435Z" transform="translate(-989.76 -356.456)"/></g><g transform="translate(134.91 97.693)"><path d="M1063.291,369.614c.012.034-.214.138-.66.31a11.046,11.046,0,0,1-2.017.562,16.213,16.213,0,0,1-7.651-.608,27,27,0,0,1-9.814-5.772c-3.227-2.887-6.066-6.671-9.02-10.574s-5.858-7.563-9.11-10.2a24.556,24.556,0,0,0-9.824-4.944,15.741,15.741,0,0,0-7.4-.01c-1.715.456-2.583.97-2.635.864-.018-.03.19-.168.608-.4a10.475,10.475,0,0,1,1.913-.848,15.161,15.161,0,0,1,7.667-.324,24.551,24.551,0,0,1,10.272,4.918c3.409,2.695,6.379,6.407,9.34,10.316s5.744,7.659,8.835,10.494a27.22,27.22,0,0,0,9.4,5.782,16.928,16.928,0,0,0,7.365.906C1062.32,369.872,1063.257,369.5,1063.291,369.614Z" transform="translate(-1005.157 -337.337)"/></g></g><g transform="translate(1172.327 166.42)"><g transform="translate(0.844 33.909)"><g transform="translate(0 18.945)"><path class="e" d="M1143.17,223.311c-23.227-52.407-91.476-21.276-91.476-21.276-32.183,11.821-36.739,48.019-29.308,72.715,8.259,27.435,19.42,60.606,30.018,79.43,21.312,37.855,54.041,31.536,54.041,31.536l10.94,26.943a45.739,45.739,0,0,0,60.064,24.974h0a45.74,45.74,0,0,0,25.058-58.455Z" transform="translate(-1019.295 -192.857)"/><g transform="translate(17.008 91.656)"><g transform="translate(4.759 10.156)"><path class="d" d="M1030.439,250.674a5.5,5.5,0,0,0,6.905,3.359,5.262,5.262,0,0,0,3.591-6.623,5.5,5.5,0,0,0-6.9-3.365A5.265,5.265,0,0,0,1030.439,250.674Z" transform="translate(-1030.183 -243.783)"/></g><path class="d" d="M1028.024,248.829c.89.436,3.725-3.906,9.282-5.952,5.52-2.121,10.654-.778,11-1.681.184-.41-.918-1.381-3.171-2.015a15.084,15.084,0,0,0-9.118.512,14.5,14.5,0,0,0-7.075,5.578C1027.724,247.213,1027.6,248.645,1028.024,248.829Z" transform="translate(-1027.802 -238.703)"/></g><g transform="translate(71.59 71.407)"><g transform="translate(2.14 13.752)"><path class="d" d="M1056.431,242.342a5.5,5.5,0,0,0,6.9,3.361,5.263,5.263,0,0,0,3.593-6.625,5.5,5.5,0,0,0-6.9-3.363A5.264,5.264,0,0,0,1056.431,242.342Z" transform="translate(-1056.175 -235.453)"/></g><path class="d" d="M1055.324,238.7c.89.436,3.73-3.908,9.282-5.952,5.52-2.121,10.656-.778,11-1.681.184-.41-.91-1.383-3.171-2.015a15.093,15.093,0,0,0-9.116.512,14.52,14.52,0,0,0-7.077,5.578C1055.03,237.082,1054.9,238.515,1055.324,238.7Z" transform="translate(-1055.104 -228.575)"/></g><g transform="translate(52.192 83.121)"><path class="d" d="M1061.516,281.627c-.092-.326-3.763.358-9.62,1.717-1.472.38-2.919.6-3.515-.282-.716-.9-.688-2.649-.614-4.554q.09-5.887.188-12.347c.12-17.527-.354-31.727-1.059-31.727s-1.378,14.21-1.5,31.737c0,4.31,0,8.419.012,12.349.062,1.809-.184,3.978,1.33,5.836a3.792,3.792,0,0,0,3.1,1.207,10.257,10.257,0,0,0,2.531-.558C1058.112,283.221,1061.613,281.951,1061.516,281.627Z" transform="translate(-1045.401 -234.434)"/></g><g transform="translate(87.15 158.503)"><path class="f" d="M1062.887,306.5s27.707-8.295,48.537-34.356c0,0-3.2,32.611-44.852,43.781Z" transform="translate(-1062.887 -272.14)"/></g><g transform="translate(75.736 132.336)"><path class="f" d="M1059.2,275.206a5.21,5.21,0,0,1,2.693-9.322,4.618,4.618,0,0,1,1.3-5.524,6.621,6.621,0,0,1,5.826-1.064,9.082,9.082,0,0,1,6.487,8.894,9.943,9.943,0,0,1-6.832,8.821,10.993,10.993,0,0,1-10.929-2.849" transform="translate(-1057.178 -259.051)"/></g><g transform="translate(73.825 128.074)"><path class="d" d="M1068.465,256.938c-.924.282,1.3,6.312-2.269,12.5s-10.23,7.9-9.966,8.764c.056.41,1.865.642,4.6-.292a16,16,0,0,0,8.447-6.977,13.938,13.938,0,0,0,1.515-10.34C1070.09,257.994,1068.865,256.75,1068.465,256.938Z" transform="translate(-1056.222 -256.92)"/></g><g transform="translate(63.206 63.95)"><path class="d" d="M1051.059,234.507c1.108,1.305,6.385-1.465,13.187-3.1,6.773-1.769,12.731-1.811,13.093-3.485.146-.79-1.3-1.871-3.963-2.545a23.561,23.561,0,0,0-20.022,5.014C1051.321,232.244,1050.557,233.878,1051.059,234.507Z" transform="translate(-1050.91 -224.845)"/></g><g transform="translate(9.178 73.952)"><path class="d" d="M1024.312,240.122c1.443.9,4.782-1.829,9.358-3.6,4.514-1.927,8.807-2.3,9.214-3.954.154-.786-.928-1.821-3.071-2.383a14.51,14.51,0,0,0-14.964,6.084C1023.7,238.171,1023.652,239.667,1024.312,240.122Z" transform="translate(-1023.886 -229.847)"/></g></g><g transform="translate(92.997 113.305)"><path class="d" d="M1068.287,241.356a1.238,1.238,0,1,1-1.205-1.3A1.252,1.252,0,0,1,1068.287,241.356Z" transform="translate(-1065.812 -240.056)"/></g><g transform="translate(2.108)"><path d="M1247.118,396.91c-.006-.1-4.048-42.677-36.9-72.031-32.891-29.392,11.673-40.736-16.907-79.5-9.428-12.789-19.938-24.422-33.447-32.787a49.892,49.892,0,0,1-6.731-5.08c-5.57-4.926-10.436-10.68-16.5-14.986-4.556-3.233-10.074-5.6-15.56-5.68h0a45.258,45.258,0,0,0-10.462-2.947c-16.037-2.411-31.937,4.03-46.877,10.336-14.458,6.1-53.315,4.628-41.016,44.368l.006,0c2.559-6.611,12.493-12.085,20.3-5.588,5.448,4.538,8.195,8.537,9.5,15.5,1.733,9.256,4.454,19.512,15.668,21.893a19.606,19.606,0,0,0,8.309-.12c9.36-2.1,16.881-16.261,34.74-12.891,0,0,17.391,5.4,18.421,16.329s-5.044,31.246,5.674,40.916,12.515,9.4,12.215,17.749c-.068,1.911-.08,3.241-.18,4.19-1.363,13.225-3.637,70.68,54.97,60.908l19.708-1.2,25.072.618Z" transform="translate(-1020.349 -183.381)"/></g></g><g transform="translate(106.692)"><path d="M1072.24,209.6c2.569-12.047,8.3-23.637,17.443-31.889s21.889-12.839,34.038-10.818,23.187,11.206,26.048,23.185-3.613,25.892-15.134,30.246c-8.722,3.295-18.412,1.142-27.733.914s-20.238,2.775-23.517,11.5" transform="translate(-1072.24 -166.42)"/></g><g transform="translate(103.426 27.702)"><path class="g" d="M1111.131,204.384c-.242-2.433-2.329-4.318-4.576-5.282s-4.724-1.243-7.063-1.955a19.956,19.956,0,0,1-8.921-5.66c-2-2.205-3.477-4.834-5.438-7.071s-4.626-4.14-7.6-4.14a6.947,6.947,0,0,0-6.2,10.076c7.527,6.132,15.13,12.745,23.682,17.335,2.993,1.605,6.19,3.231,9.58,3.041S1111.468,207.763,1111.131,204.384Z" transform="translate(-1070.606 -180.276)"/></g><g transform="translate(178.393 123.507)"><path class="d" d="M1182.174,358.657a9.829,9.829,0,0,1,.13-1.657c.154-1.076.262-2.675.386-4.73a59.677,59.677,0,0,0-1.863-17.255,57.527,57.527,0,0,0-11.609-22.769c-6.2-7.515-15.152-13.621-24.666-19.6s-18.669-11.963-25.316-19.3a45.947,45.947,0,0,1-7.889-11.515,34.021,34.021,0,0,1-3.117-11.759,27.865,27.865,0,0,1,3.644-17.005,20.5,20.5,0,0,1,2.961-3.757,9.985,9.985,0,0,1,1.244-1.108,34.339,34.339,0,0,0-3.857,5.072,28.006,28.006,0,0,0-3.26,16.731,33.689,33.689,0,0,0,3.165,11.455,45.564,45.564,0,0,0,7.815,11.236c6.577,7.185,15.632,13.087,25.17,19.07,9.516,5.988,18.572,12.181,24.844,19.866a58.452,58.452,0,0,1,13.141,40.662c-.188,2.067-.362,3.667-.584,4.738A9.873,9.873,0,0,1,1182.174,358.657Z" transform="translate(-1108.104 -228.197)"/></g><g transform="translate(0 53.673)"><path class="b" d="M1144.715,193.267a9.727,9.727,0,0,1-.683,1.5c-.46.978-1.206,2.385-2.243,4.158a83.064,83.064,0,0,1-10.308,13.984,86.56,86.56,0,0,1-19.934,16.307,70.588,70.588,0,0,1-13.827,6.479c-5.038,1.605-10.674,2.617-16.326,1.513a20.272,20.272,0,0,1-7.749-3.307,24.625,24.625,0,0,1-5.73-5.818c-3.121-4.356-5.176-9.056-7.521-13.257a50.55,50.55,0,0,0-3.757-5.908,27.579,27.579,0,0,0-4.554-4.7,29.078,29.078,0,0,0-10.514-5.188,29.746,29.746,0,0,0-16.921.448,46.709,46.709,0,0,0-5.776,2.575,9.74,9.74,0,0,1,1.368-.924,11.3,11.3,0,0,1,1.757-.96,17.693,17.693,0,0,1,2.517-1.076,30.067,30.067,0,0,1,28.1,4.446,28.274,28.274,0,0,1,4.744,4.824,50.729,50.729,0,0,1,3.868,6c2.391,4.234,4.464,8.9,7.509,13.123a23.679,23.679,0,0,0,5.5,5.57,19.282,19.282,0,0,0,7.357,3.133c5.387,1.058,10.87.1,15.808-1.463a70.688,70.688,0,0,0,13.652-6.333,87.834,87.834,0,0,0,19.88-15.98,89.324,89.324,0,0,0,10.5-13.7c1.085-1.731,1.885-3.1,2.4-4.046A9.688,9.688,0,0,1,1144.715,193.267Z" transform="translate(-1018.873 -193.267)"/></g><g transform="translate(91.779 57.666)"><path class="b" d="M1104.646,195.264a14.593,14.593,0,0,1,.412,2.777c.084.9.074,2.007.11,3.295-.068,1.282-.074,2.755-.31,4.36a44.726,44.726,0,0,1-9.916,23,42.625,42.625,0,0,1-10.47,9.192,72.711,72.711,0,0,1-10.19,5c-2.963,1.247-5.338,2.287-6.957,3.059a18.258,18.258,0,0,1-2.543,1.162,11.883,11.883,0,0,1,2.357-1.521c1.572-.888,3.921-2.039,6.846-3.373a80.454,80.454,0,0,0,9.98-5.138,43.2,43.2,0,0,0,10.172-9.04,46,46,0,0,0,9.992-22.441C1105.1,199.27,1104.388,195.274,1104.646,195.264Z" transform="translate(-1064.781 -195.264)"/></g><g transform="translate(125.813 102.664)"><path class="b" d="M1153.149,359.028a10.49,10.49,0,0,1,.018-1.7c.058-1.108.148-2.739.09-4.844a69.9,69.9,0,0,0-2.525-17.555,77.483,77.483,0,0,0-4.34-11.457,70.387,70.387,0,0,0-7.405-11.929,65.807,65.807,0,0,0-10.842-11.06c-4.206-3.377-8.956-6.41-13.442-10.084a47.014,47.014,0,0,1-6.186-5.99,31.293,31.293,0,0,1-4.488-7.089,51.814,51.814,0,0,1-3.843-15.266c-.588-4.976-.835-9.714-1.3-14.11a59.641,59.641,0,0,0-2.337-12.011c-2.183-7.189-5.9-12.247-9.161-14.852a28.565,28.565,0,0,0-5.587-3.3,10.319,10.319,0,0,1,1.609.548,19.72,19.72,0,0,1,4.228,2.439c3.4,2.555,7.309,7.675,9.612,14.946a59.359,59.359,0,0,1,2.5,12.143c.5,4.422.78,9.156,1.387,14.084a51.378,51.378,0,0,0,3.817,14.958,35.415,35.415,0,0,0,10.408,12.7c4.42,3.624,9.166,6.663,13.421,10.092a66.224,66.224,0,0,1,10.966,11.273,70.02,70.02,0,0,1,7.421,12.141,76.479,76.479,0,0,1,4.272,11.635,66.419,66.419,0,0,1,2.221,17.751,42.016,42.016,0,0,1-.288,4.86A10.355,10.355,0,0,1,1153.149,359.028Z" transform="translate(-1081.804 -217.772)"/></g><g transform="translate(125.669 10.79)"><path class="b" d="M1138.057,177.667c-.124.24-3.267-2.515-9.522-4.054a34.9,34.9,0,0,0-24.184,3.275c-8.647,4.666-14.343,11.9-17.675,17.323a73.091,73.091,0,0,0-3.659,6.691,16.713,16.713,0,0,1-1.278,2.507,12.9,12.9,0,0,1,.908-2.671,54.042,54.042,0,0,1,3.4-6.905,46.723,46.723,0,0,1,17.813-17.863c8.924-4.768,18.614-4.884,24.86-3.069a25.831,25.831,0,0,1,7.083,3.063,15.774,15.774,0,0,1,1.711,1.212C1137.891,177.469,1138.079,177.637,1138.057,177.667Z" transform="translate(-1081.732 -171.817)"/></g><g transform="translate(132.479 33.716)"><path class="b" d="M1131.305,190.7c-.106.162-2.367-1.527-6.49-3.287a37.613,37.613,0,0,0-33.589,1.859c-3.9,2.205-5.963,4.132-6.085,3.984a6.4,6.4,0,0,1,1.371-1.423,30.99,30.99,0,0,1,4.34-3.195,35.966,35.966,0,0,1,34.264-1.9,31.179,31.179,0,0,1,4.666,2.7A6.556,6.556,0,0,1,1131.305,190.7Z" transform="translate(-1085.139 -183.284)"/></g></g><g transform="translate(865.296 684.378)"><g transform="translate(176.262 25.34)"><g transform="translate(2.533 0.52)"><path class="h" d="M1131.628,497.806l-176.9-14.936,152.19-44.433,160.1.257Z" transform="translate(-954.729 -438.437)"/></g><path class="d" d="M1132.893,498.065s.832-.41,2.455-1.141l7.185-3.207,27.351-12.073c23.631-10.366,57.427-25.192,98.225-43.091l.174.838-160.1-.174.146-.02-13.541,3.952c-50.136,14.618-97.479,28.421-138.665,40.428l-.092-.91,127.853,10.988,36.146,3.183,9.566.878,2.459.244c.552.058.836.106.836.106s-.274,0-.824-.032c-.576-.04-1.387-.1-2.447-.17l-9.546-.738c-8.391-.678-20.624-1.665-36.138-2.921L955.955,483.593l-2.493-.206,2.4-.7L1094.5,442.149l13.541-3.952.072-.02h.074l160.1.34,2.091,0-1.917.834L1170,482.135c-11.812,5.1-21.078,9.1-27.419,11.841l-7.211,3.079C1133.74,497.745,1132.893,498.065,1132.893,498.065Z" transform="translate(-953.462 -438.177)"/></g><g transform="translate(5.08 26.516)"><g transform="translate(3.545 0.519)"><path class="i" d="M1039.78,482.283,869.61,469.722l162.285-30.7H1185.7Z" transform="translate(-869.61 -439.025)"/></g><path class="d" d="M1041.552,482.544s.9-.316,2.655-.86l7.765-2.369,29.53-8.88c25.5-7.6,61.936-18.477,105.844-31.573l.126.866-153.8.078.1-.01c-4.632.878-9.612,1.819-14.622,2.767L871.468,470.432l-.052-.91c50.762,3.826,93.275,7.031,123.133,9.28l34.686,2.689,9.164.746,2.353.21c.528.05.8.1.8.1s-.266,0-.792-.022c-.554-.034-1.331-.078-2.347-.138l-9.15-.606-34.682-2.433-123.233-8.9-3.511-.254,3.461-.656,147.651-27.993c5.008-.946,9.99-1.889,14.622-2.765l.048-.008h.048c56.576.028,109.3.054,153.8.078l3.059,0-2.933.864L1081.582,470.94,1052,479.583l-7.781,2.239C1042.464,482.32,1041.552,482.544,1041.552,482.544Z" transform="translate(-867.837 -438.765)"/></g><g transform="translate(0 0)"><g transform="translate(3.341 0.476)"><path class="h" d="M1042.421,495.557s-3.989-36.969-34.668-33.934-71.394,23.637-104.859,23.637l-35.928-2.793,76.61-15.774s190.145-40.158,190.145-38.9,63.951-14.14,61.673,23.765Z" transform="translate(-866.967 -425.74)"/></g><path class="d" d="M1044.091,495.8s.974-.312,2.827-.86l8.173-2.4,30.99-9.028c26.689-7.735,64.85-18.8,110.864-32.131l-.314.39a24.781,24.781,0,0,0-1.354-10.184,18.557,18.557,0,0,0-6.267-8.3c-5.766-4.312-13.3-5.912-20.746-6.551a119.925,119.925,0,0,0-23.071.72q-2.927.372-5.88.744c-.99.13-1.967.272-2.989.366a4.406,4.406,0,0,1-.865.018l-.186-.04a.612.612,0,0,1-.308-.284c-.05-.228-.142-.288.042.09.3.224.26.118.248.146v0a.25.25,0,0,0-.052,0l-.334.028-1.461.21c-3.937.656-7.907,1.438-11.9,2.209-31.957,6.311-65.832,13.407-100.932,20.708l-79.243,16.6-72.6,14.908-.058-.926,35.926,2.825-.034,0c12.159-.17,23.689-2.445,34.406-5.226,10.738-2.775,20.774-5.948,30.236-8.8s18.353-5.448,26.721-7.243c4.182-.9,8.231-1.591,12.129-2.029a33.088,33.088,0,0,1,11.2.346,26.989,26.989,0,0,1,15.645,10.126,43.73,43.73,0,0,1,6.542,12.3,55.552,55.552,0,0,1,2.235,8.341,25.974,25.974,0,0,1,.412,2.933s-.052-.254-.134-.736-.21-1.218-.41-2.171a59.571,59.571,0,0,0-2.353-8.277,43.926,43.926,0,0,0-6.6-12.145,26.611,26.611,0,0,0-15.446-9.872,32.621,32.621,0,0,0-11.03-.282c-3.875.454-7.9,1.161-12.065,2.071-8.329,1.821-17.2,4.43-26.641,7.323s-19.484,6.092-30.246,8.9c-10.74,2.813-22.319,5.134-34.6,5.328h-.014l-.02,0-35.93-2.763-3.3-.254,3.247-.672c22.825-4.71,47.143-9.732,72.581-14.982,25.422-5.336,51.961-10.9,79.239-16.627,35.1-7.3,68.977-14.382,100.954-20.668,4-.77,7.965-1.545,11.935-2.2,4.01-.09,7.879-.89,11.831-1.276a120.58,120.58,0,0,1,23.257-.692c7.541.664,15.214,2.271,21.222,6.767a19.437,19.437,0,0,1,6.547,8.7,25.627,25.627,0,0,1,1.39,10.554l-.016.306-.3.086L1085.9,483.977l-30.948,8.786c-3.535,1-6.25,1.761-8.111,2.285C1045.015,495.56,1044.091,495.8,1044.091,495.8Z" transform="translate(-865.296 -425.502)"/></g><g transform="translate(234.985 63.914)"><g transform="translate(0 0.031)"><path class="h" d="M1099.8,466.413c-3.213,0-116.964-8.926-116.964-8.926" transform="translate(-982.835 -457.487)"/></g><path class="d" d="M982.835,457.5a5.156,5.156,0,0,1,1.2-.014l3.415.162,12.541.792,41.346,3c16.084,1.287,30.638,2.451,41.342,3.309l12.529,1.122,3.406.358a5.358,5.358,0,0,1,1.188.2,5.03,5.03,0,0,1-1.188.014l-3.408-.162-12.537-.792-41.372-3-41.354-3.307c-5.184-.466-9.428-.846-12.525-1.122l-3.4-.358A5.2,5.2,0,0,1,982.835,457.5Z" transform="translate(-982.835 -457.472)"/></g><g transform="translate(253.765 56.189)"><g transform="translate(0 0.031)"><path class="h" d="M1109.192,462.547c-3.21,0-116.963-8.925-116.963-8.925" transform="translate(-992.229 -453.623)"/></g><path class="d" d="M992.229,453.638a5.163,5.163,0,0,1,1.2-.014l3.415.162,12.543.792c10.706.778,25.262,1.833,41.344,3,16.086,1.285,30.638,2.451,41.341,3.307,5.186.466,9.432.846,12.529,1.122,1.387.146,2.515.266,3.406.358a5.343,5.343,0,0,1,1.188.2,5.037,5.037,0,0,1-1.188.014l-3.408-.162c-3.1-.2-7.347-.464-12.535-.79l-41.374-3-41.354-3.309-12.523-1.122-3.4-.358A5.14,5.14,0,0,1,992.229,453.638Z" transform="translate(-992.229 -453.608)"/></g><g transform="translate(278.177 49.071)"><g transform="translate(0 0.038)"><path class="h" d="M1126.809,457.177c-3.211,0-122.369-7.111-122.369-7.111" transform="translate(-1004.44 -450.066)"/></g><path class="d" d="M1004.44,450.085a5.63,5.63,0,0,1,1.25-.032l3.571.11,13.119.6,43.259,2.361,43.255,2.667c5.436.384,9.88.7,13.109.928,1.459.124,2.639.224,3.564.3a5.762,5.762,0,0,1,1.244.178,5.54,5.54,0,0,1-1.244.032l-3.564-.11-13.115-.6c-11.194-.612-26.435-1.443-43.281-2.361l-43.265-2.667-13.1-.928c-1.455-.124-2.635-.226-3.561-.3A5.636,5.636,0,0,1,1004.44,450.085Z" transform="translate(-1004.44 -450.047)"/></g><g transform="translate(302.588 41.94)"><g transform="translate(0 0.06)"><path class="h" d="M1140.253,450.972c-3.211,0-123.6-4.462-123.6-4.462" transform="translate(-1016.65 -446.51)"/></g><path class="d" d="M1016.65,446.54a5.68,5.68,0,0,1,1.26-.06l3.6.032,13.249.314,43.695,1.423,43.7,1.731c5.494.266,9.984.486,13.243.644,1.474.092,2.667.168,3.6.228a5.831,5.831,0,0,1,1.255.15,5.64,5.64,0,0,1-1.255.06c-.934-.008-2.127-.02-3.6-.032l-13.246-.314c-11.3-.368-26.7-.87-43.711-1.426-17.005-.674-32.4-1.284-43.7-1.729l-13.239-.644c-1.473-.094-2.665-.17-3.6-.228A5.761,5.761,0,0,1,1016.65,446.54Z" transform="translate(-1016.65 -446.48)"/></g><g transform="translate(326.998 34.56)"><g transform="translate(0 0.329)"><path class="h" d="M1150.91,443.449c-3.211,0-122.05-.5-122.05-.5" transform="translate(-1028.86 -442.953)"/></g><g transform="translate(0.002)"><path class="d" d="M1028.861,443.117c0-.288,27.325-.41,61.024-.272s61.028.48,61.026.768-27.319.41-61.03.274S1028.859,443.405,1028.861,443.117Z" transform="translate(-1028.861 -442.789)"/></g></g><g transform="translate(150.384 25.603)"><path class="d" d="M940.518,439.823a9.716,9.716,0,0,1,2.395-.714,34.468,34.468,0,0,1,6.775-.786,38.358,38.358,0,0,1,36.05,22.887,34.356,34.356,0,0,1,2.171,6.465,9.78,9.78,0,0,1,.374,2.469c-.21.056-.752-3.5-3.213-8.625a39.2,39.2,0,0,0-35.38-22.461C944,439.013,940.558,440.037,940.518,439.823Z" transform="translate(-940.518 -438.308)"/></g><g transform="translate(169.081 20.655)"><path class="d" d="M949.87,437.348a9.717,9.717,0,0,1,2.4-.714,34.471,34.471,0,0,1,6.775-.786,38.358,38.358,0,0,1,36.05,22.887,34.51,34.51,0,0,1,2.171,6.466,9.817,9.817,0,0,1,.374,2.471c-.212.056-.752-3.5-3.213-8.627a39.2,39.2,0,0,0-35.38-22.459C953.357,436.538,949.908,437.562,949.87,437.348Z" transform="translate(-949.87 -435.833)"/></g><g transform="translate(188.445 16.771)"><path class="d" d="M959.556,435.841a10.01,10.01,0,0,1,2.351-.738,42.345,42.345,0,0,1,6.637-1.072,37.556,37.556,0,0,1,9.988.466,31.35,31.35,0,0,1,11.385,4.546,38.993,38.993,0,0,1,14.24,16.8,34.513,34.513,0,0,1,2.131,6.383,9.77,9.77,0,0,1,.364,2.439c-.21.054-.748-3.449-3.163-8.513a40.267,40.267,0,0,0-14.142-16.236c-7.145-4.75-15.244-5.464-20.756-5.15C962.991,435.079,959.6,436.043,959.556,435.841Z" transform="translate(-959.556 -433.89)"/></g><g transform="translate(209.101 12.251)"><path class="d" d="M969.888,433.834a9.715,9.715,0,0,1,2.269-.74,46.67,46.67,0,0,1,6.391-1.219,31.051,31.051,0,0,1,9.69.3,28.84,28.84,0,0,1,10.884,4.746,38.986,38.986,0,0,1,13.531,16.505,34.653,34.653,0,0,1,2.029,6.192,9.365,9.365,0,0,1,.344,2.363c-.2.052-.74-3.333-3.045-8.251a40.4,40.4,0,0,0-13.449-15.952,28.862,28.862,0,0,0-10.488-4.664,32.144,32.144,0,0,0-9.424-.5C973.217,433.11,969.93,434.034,969.888,433.834Z" transform="translate(-969.888 -431.629)"/></g><g transform="translate(230.356 8.154)"><path class="d" d="M980.52,432.558a9.706,9.706,0,0,1,2.153-.752c1.405-.414,3.441-1.012,6.02-1.561a23.975,23.975,0,0,1,9.29-.354,25.547,25.547,0,0,1,10.278,4.888,38.912,38.912,0,0,1,12.623,16.09,35.081,35.081,0,0,1,1.9,5.942,8.751,8.751,0,0,1,.314,2.265c-.2.05-.728-3.183-2.887-7.909a40.608,40.608,0,0,0-12.569-15.552,25.41,25.41,0,0,0-9.842-4.782,24.437,24.437,0,0,0-8.97.134C983.719,431.935,980.558,432.738,980.52,432.558Z" transform="translate(-980.52 -429.58)"/></g></g><g transform="translate(1026.011 566.089)"><g transform="translate(59.918 72.354)"><path class="e" d="M975.656,403.271c5.392.95,10.886-.466,16.353-.718s11.677,1.125,14.5,5.816c2.125,3.535,1.721,8.141-.008,11.885s-4.608,6.811-7.441,9.808" transform="translate(-975.656 -402.525)"/></g><g transform="translate(0 0)"><g transform="translate(0 0)"><g transform="translate(2.264 4.948)"><rect class="d" width="141.72" height="12.63" rx="0.967" transform="matrix(0.615, 0.788, -0.788, 0.615, 9.955, 0)"/></g><rect class="d" width="12.207" height="5.668" rx="0.434" transform="matrix(0.615, 0.788, -0.788, 0.615, 4.467, 0)"/><g transform="translate(86.376 115.134)"><path class="d" d="M988.891,429.074l13.935,10.714,1.43-1.117-4.077-14.748Z" transform="translate(-988.891 -423.923)"/></g></g><g transform="translate(2.967 8.584)"><path class="d" d="M976.545,418.852a.25.25,0,0,1-.2-.1L949.486,384.35c-3.279-4.2-3.049-9.882.514-12.663l1.292-1.006a.247.247,0,0,1,.35.042.251.251,0,0,1-.044.352l-1.289,1.006c-3.345,2.611-3.537,7.977-.426,11.959l26.861,34.408a.253.253,0,0,1-.044.352A.247.247,0,0,1,976.545,418.852Z" transform="translate(-947.169 -370.627)"/></g></g><g transform="translate(0.792 55.694)"><path class="e" d="M992.952,400.8s-8.722-7.413-15.264-6.541-28.351,24.424-29.222,38.381-6.543,22.245,3.489,27.915,25.734,14.828,36.2,11.775c0,0,18.457,2.1,20.538-2.837,0,0,16.2,5.178,17.409-5.886,0,0,11.611-1.833,10.9-8.934S992.952,400.8,992.952,400.8Z" transform="translate(-946.081 -394.191)"/></g><g transform="translate(13.408 82.233)"><g transform="translate(23.002)"><path class="f" d="M1008.3,450.347c-.2.206-10.3-9.224-22.561-21.064S963.7,407.676,963.9,407.47s10.3,9.222,22.561,21.066S1008.5,450.139,1008.3,450.347Z" transform="translate(-963.898 -407.466)"/></g><g transform="translate(9.931 17.03)"><path class="f" d="M997.423,447.72a7.613,7.613,0,0,1-1.889-.736,49.708,49.708,0,0,1-4.878-2.583,106.107,106.107,0,0,1-14.692-10.716c-5.4-4.616-10.026-9.072-13.355-12.307q-2.273-2.255-3.9-3.87a7.63,7.63,0,0,1-1.341-1.519,7.737,7.737,0,0,1,1.617,1.221c1,.834,2.4,2.079,4.132,3.631,3.457,3.1,8.153,7.461,13.525,12.053a136.212,136.212,0,0,0,14.4,10.882C994.928,446.277,997.5,447.56,997.423,447.72Z" transform="translate(-957.359 -415.985)"/></g><g transform="translate(0 30.333)"><path class="f" d="M982.356,443.165c-.052.118-1.987-.576-4.94-2.079a98.249,98.249,0,0,1-11.055-6.7,109.908,109.908,0,0,1-10.2-7.931c-2.477-2.2-3.854-3.718-3.763-3.814.106-.112,1.653,1.214,4.234,3.251s6.2,4.784,10.324,7.637,7.973,5.258,10.814,6.907S982.42,443.019,982.356,443.165Z" transform="translate(-952.392 -422.639)"/></g></g></g><g transform="translate(1179.734 628.612)"><g transform="translate(80.492)"><path class="e" d="M1285.241,403.922s-17.713-9.7-41.5-5.058-73.639,16.523-90.866,18.511-90.036,18.245-90.036,18.245l7.663,43.251,237.534-.514C1312.374,452.293,1320.389,419.962,1285.241,403.922Z" transform="translate(-1062.839 -397.608)"/></g><g transform="translate(0 8.921)"><g transform="translate(21.463 12.146)"><path class="e" d="M1084.067,468.341H1100l25.686-50.52c-3.293-.56-71.888-10.7-75.93-9.59l-16.448,58.443S1082.6,468.339,1084.067,468.341Z" transform="translate(-1033.313 -408.146)"/></g><g transform="translate(0 12.798)"><g transform="translate(17.343 43.847)"><path class="e" d="M1039.221,445.354c.052.1.458.186,1.144.262,5.663.62,31.823-.974,31.823-.974,1.2-3.379-1.066-13.529-4.322-14.122s-31.1,1.284-31.1,1.284-4.386.576-5.478,7.945C1030.616,444.3,1039.221,445.354,1039.221,445.354Z" transform="translate(-1031.252 -430.404)"/></g><g transform="translate(8.505 28.98)"><path class="e" d="M1034.8,437.918c.05.1.456.186,1.141.26,5.666.622,30.4.35,31.463-2.665,1.2-3.377-.7-11.835-3.96-12.429s-31.1,1.283-31.1,1.283-4.386.576-5.478,7.945C1026.195,436.865,1034.8,437.918,1034.8,437.918Z" transform="translate(-1026.831 -422.968)"/></g><g transform="translate(4.12 14.45)"><path class="e" d="M1032.6,430.652c.052.1.458.186,1.143.26,5.664.62,30.394.348,31.464-2.665,1.2-3.379-.706-11.837-3.96-12.431s-31.1,1.284-31.1,1.284-4.384.576-5.476,7.947C1024,429.6,1032.6,430.652,1032.6,430.652Z" transform="translate(-1024.638 -415.7)"/></g><path class="e" d="M1030.546,423.424c.052.1.458.186,1.142.26,5.666.62,30.4.348,31.465-2.665,1.2-3.379-.706-11.837-3.963-12.431s-31.1,1.283-31.1,1.283-4.386.576-5.478,7.945C1021.941,422.371,1030.546,423.424,1030.546,423.424Z" transform="translate(-1022.577 -408.472)"/><g transform="translate(22.774 43.322)"><path class="f" d="M1057.919,430.642c-.036.426-5.428.924-12.041,1.114s-11.945,0-11.91-.43,5.428-.924,12.043-1.112S1057.956,430.217,1057.919,430.642Z" transform="translate(-1033.969 -430.141)"/></g><g transform="translate(12.571 28.837)"><path class="f" d="M1063.153,423.3c.014.428-7.651,1.02-17.119,1.321s-17.153.194-17.169-.234,7.651-1.022,17.121-1.321S1063.139,422.872,1063.153,423.3Z" transform="translate(-1028.865 -422.896)"/></g><g transform="translate(11.401 14.019)"><path class="f" d="M1062.567,415.888c.014.432-7.651,1.022-17.117,1.323s-17.155.194-17.169-.234,7.649-1.022,17.119-1.321S1062.554,415.46,1062.567,415.888Z" transform="translate(-1028.28 -415.484)"/></g></g><g transform="translate(28.368)"><path class="e" d="M1093.781,420.129s-46.689-20.76-49.6-17.763S1036.767,415,1036.767,415Z" transform="translate(-1036.767 -402.07)"/></g></g></g></g></svg>