<svg xmlns="http://www.w3.org/2000/svg" width="1010.867" height="737.373" viewBox="0 0 1010.867 737.373"><defs><style>.a{opacity:0.2;}.b{fill:#a8d29f;}.c{fill:#4a75cb;}.d{fill:#699dee;}.e{fill:#d86713;}.f{fill:#f1a34f;}.g{fill:#c95c12;}.h{fill:#ed975d;}.i{fill:#2b478b;}.j{fill:#233862;}.k{fill:#1e3d70;}.l{fill:#ffb27d;}.m{fill:#2c3a64;}.n{fill:#22c6c6;}.o{fill:#55cdcd;}.p{fill:#a9453d;}.q{fill:#ee9849;}.r{fill:#e58638;}.s{fill:#00a7a7;}.t{fill:#35488b;}.u{fill:#4271bc;}</style></defs><g class="a" transform="translate(-439.119 -183.872)"><g transform="translate(439.119 183.872)"><path class="b" d="M1886.367,1301.866c-14.521-10.611-44.191-3.448-66.09,4.214a99.993,99.993,0,0,0-12.036-13.966c47.175-30.39,112.33-95.2,77.8-100.683-30.02-4.769-70.534,53.566-92.184,89.078-22.484-15.125-56.936-26.244-109.537-22.389-136.512,10.009-243.157-78.048-321.768-48.68-62.5,23.351-119.782,36.433-175.026,31.964,2.378-40.355,2.894-119.59-28.8-127.81-32.171-8.345-.614,81.639,16.925,126.57q-6.174-.789-12.318-1.885c-11.357-22.394-30.072-51.7-50.622-52.7-19.353-.943,4.533,25.4,28.038,47.724-67.557-14.183-147.693,40.731-149.022,105.661h843.4s-1.493-9.478-8.112-21.974C1859.611,1316.352,1902.14,1313.392,1886.367,1301.866Z" transform="translate(-884.873 -601.604)"/><g transform="translate(0 687.176)"><rect class="c" width="222.289" height="50.193" transform="translate(68.54 0.002)"/><rect class="d" width="222.287" height="50.197"/></g><g transform="translate(327.24 506.008)"><g transform="translate(0 0)"><rect class="e" width="165.519" height="231.353" transform="translate(216.554 231.353) rotate(180)"/><rect class="f" width="165.519" height="231.353" transform="translate(165.519 231.353) rotate(180)"/></g><path class="g" d="M1692.823,1103.168l51.036,34.739v-34.739Z" transform="translate(-1527.305 -1103.168)"/></g><g transform="translate(331.243 88.758)"><path class="h" d="M1839.221,499.313c-2.559-.389-10.269,6.74-10.269,6.74h0c-16.465,1.9-40.537,6.274-49.2,7.942-6.146,1.183-22.664-4.449-38.8-10.916-19.192-7.694-37.843-16.57-37.843-16.57-10.65-.543-22.743,18.887-1.146,31.24,3.3,1.886,15.685,5.1,29.949,8.043l0,0c19.678,4.054,42.923,7.574,50.837,6.338,9.192-1.438,35.211-10.956,50.687-18.245h0l.039-.019.172-.081c.929-.434,4.717-2.121,7.246-1.972,2.9.172,9.357-5.134,9.554-6.551S1841.781,499.7,1839.221,499.313Z" transform="translate(-1530.023 -408.682)"/><path class="i" d="M1791.865,818.262,1782.8,820.1s-41.485-46.611-47.886-66.225c-3.426-10.482-25.327-15.011-48.215-20.928-19.921-5.151-40.591-11.357-50.462-23.465-21.217-26.016,13.325-57.982,13.325-57.982s36.727,21.827,68.41,44.378c22.146,15.759,41.829,31.87,44.795,41.13C1769.969,759.527,1785.244,802.328,1791.865,818.262Z" transform="translate(-1502.77 -482.863)"/><path class="j" d="M1899.177,967.3h5.1c1.708-.268,2.969-.762,4.721-.991,2.661-.349,3.885.741,4.128.991a.617.617,0,0,1,.048.052h21.661c.545-.778.022-2.581-.49-3.907a3.082,3.082,0,0,0-2.028-1.854c-2.3-.666-6.826-1.258-10.973-5.012-2.333-2.108-11.267-7.752-11.267-7.752l-.047-.011c-.2,0-1.13.291-5.194,3.722-2.1,1.77-5.681-2.5-5.681-2.5a5.093,5.093,0,0,0-1.174,1.592,5.377,5.377,0,0,0-.466,3.325c.324,1.952-.719,5.579-1.552,8.033-.5,1.487-.93,2.541-.93,2.541S1894.79,966.754,1899.177,967.3Z" transform="translate(-1622.215 -616.527)"/><path class="k" d="M1717.972,695.881,1686.7,732.95c-19.921-5.151-40.591-11.357-50.462-23.465-21.217-26.016,13.325-57.982,13.325-57.982S1686.289,673.33,1717.972,695.881Z" transform="translate(-1502.77 -482.863)"/><path class="i" d="M1656.432,685.448s-2.522,7.95-6.625,19.912c-5.19,15.124-12.92,36.659-21.306,56.629-1.842,4.388-3.718,8.7-5.6,12.856-6.973,15.368-14.112,28.542-20.4,35.236-11.293,12.035-38.746,89.409-38.746,89.409l-6.841-1.893s-9.536-66.069,24.248-103.665a2.392,2.392,0,0,0,.684-1.4.018.018,0,0,0,0-.014c.45-5.565,2.057-30.486,5.556-55.739.86-6.2,1.832-12.407,2.928-18.358.068-.381.141-.758.209-1.133,5.141-27.52,10.062-39.761,16.414-45.918l46.709,13.3Z" transform="translate(-1469.649 -491.792)"/><path class="j" d="M1553.156,1087.978h5.1c1.708-.269,2.969-.763,4.721-.992,2.66-.349,3.885.741,4.129.992.032.033.047.051.047.051h21.661c.545-.778.022-2.581-.49-3.907a3.083,3.083,0,0,0-2.028-1.854c-2.3-.665-6.825-1.257-10.972-5.011-2.333-2.108-11.267-7.753-11.267-7.753l-.047-.011c-.2,0-1.13.291-5.194,3.721-2.1,1.771-5.68-2.5-5.68-2.5a5.106,5.106,0,0,0-1.174,1.592,5.389,5.389,0,0,0-.465,3.326c.324,1.951-.72,5.578-1.552,8.031-.505,1.487-.931,2.54-.931,2.54S1548.769,1087.429,1553.156,1087.978Z" transform="translate(-1466.654 -670.779)"/><path class="l" d="M1495.909,531.22s-7.815,19.119-16.826,37.73c-7.58,15.646-16,30.931-21.342,34.194-7.529,4.6-28.272,17.574-41.726,27.252,0,0-10.5-.08-12.131,1.93s-5.4,11.042-4.3,11.956,9.447.49,11.475-1.588c1.769-1.814,5.707-3.117,6.685-3.42l.182-.056.042-.011h0c16.351-5.03,42-15.509,49.762-20.635,6.684-4.413,21.5-22.666,33.324-38.912h0c8.568-11.776,15.562-22.5,16.73-26.11C1525.441,529.875,1503.418,523.65,1495.909,531.22Z" transform="translate(-1399.388 -427.419)"/><path class="m" d="M1612.536,373.95a39.4,39.4,0,0,0-2.8-3.617,8.778,8.778,0,0,0,3.45-.518c2.743-1.134,3.994-9.843,3.582-12.427s-4.221-10.053-8.921-10.8-9.556,4.474-9.556,4.474c.868-3.767,8.819-5.94,8.819-5.94-16.377,3.02-15.542,13.942-15.429,14.951-14.991-5.34-23.791,22.89-23.791,22.89l38.831,22.884s.1-6.236,3.808-5.833C1616.307,400.641,1621.115,386.454,1612.536,373.95Z" transform="translate(-1475.142 -345.124)"/><path class="l" d="M1630.364,479.743c-8.91,4.2-20.734-1.849-20.67-1.913.764-.764.5-3.052-.205-6.043a44.014,44.014,0,0,0-5.409-12.474c-.636-1.083-1.273-2.164-2.037-3.31l1.019-.381,17.311-6.938s2.8,5.028,5.728,9.61c2.482,3.819,5.091,7.255,6.237,7.129C1632.4,465.36,1643.856,473.251,1630.364,479.743Z" transform="translate(-1490.496 -391.682)"/><path class="h" d="M1622.036,451.807c-.446,6.172-2.546,17.31-10.883,21.384a44.021,44.021,0,0,0-5.409-12.474Z" transform="translate(-1492.16 -393.086)"/><path class="l" d="M1588.217,445.2s22.537-8.883,16.789-22.833-6.71-24.491-21.342-19.409-15.217,11.549-14.431,16.672S1582.206,447.149,1588.217,445.2Z" transform="translate(-1475.646 -370.54)"/><path class="m" d="M1594.355,418c10.405-1.469,13.443-5.675,13.443-5.675a28.826,28.826,0,0,1-15.216-12.135s-11.7-3.944-20.363,2.649a5.84,5.84,0,0,0-1.1,2.444c-1.987-.651-4.974-.482-6.7,5.133-2.59,8.434,6.623,17.644,6.623,17.644,2.233-.631-.286-8.148-.638-12.16-.259-2.953,1.334-6.732,2.193-8.524,1.1,1.431,12.081,15.227,25.484,15.777a56.539,56.539,0,0,1-13.525-7.262C1587.766,417.462,1591.176,418.445,1594.355,418Z" transform="translate(-1473.378 -369.352)"/><path class="n" d="M1651.526,520.254c-.191-.673-.4-1.371-.611-2.088a52.867,52.867,0,0,0,5.688-17.043c1.528-10.311-1.081-16.675-1.081-16.675s-15.633-8.289-22.535-9.345a.385.385,0,0,0-.086-.026c-.081-.011-.175-.019-.277-.026-6.967-.961-22.052,2.119-22.052,2.119s2.91,7.747-5.3,12.911-16.977-1.323-16.977-1.323c-.264.178-.546.374-.835.578h0s-21.6,14.252-23.54,17.509-10.246,19.383-10.246,19.383,2.634,13.538,31.814,14.67c2.4,5.818,4.235,11.493,4.833,16.226,2.318,18.377-.373,32.874,2.328,43.6s51.389,4.61,60.2,2.547,6.834-11.479,7.512-20.625C1661.217,571.153,1654.4,530.392,1651.526,520.254Z" transform="translate(-1468.75 -403.452)"/><path class="o" d="M1728.719,519.137a52.874,52.874,0,0,1-5.727,17.119c-.764-3.373-3.882-15.719-8.91-21.321C1714.082,514.935,1722.546,515.7,1728.719,519.137Z" transform="translate(-1540.865 -421.466)"/></g><g transform="translate(62.977 202.1)"><path class="h" d="M1380.446,728.744s9.071-10.992,11.023-12.291,10.52-3.577,11.011-3.119.512,1.123-.55,2.06-5.113,3.3-4.535,3.568,12.8-5.819,14.564-3.772-1,10.5-5.708,14.546-18.77,5.778-19.655,6.343C1379.1,740.875,1380.446,728.744,1380.446,728.744Z" transform="translate(-1122.564 -623.975)"/><path class="l" d="M1090.393,671.505s13.03,15.46,29.625,8.993c0,0,3.57-8.635,3.62-15,.005-.783.016-1.543.028-2.265.089-7.167.33-11.189.33-11.189l-.017,0c-.754-.315-25.368-10.419-25.347-9.581C1099.055,661.846,1090.393,671.505,1090.393,671.505Z" transform="translate(-992.207 -592.118)"/><path class="h" d="M1109.838,650.752c2.373,4.4,10.518,13.006,22.563,16.15.089-7.167.33-11.189.33-11.189l-.017,0C1132.033,655.527,1109.132,649.455,1109.838,650.752Z" transform="translate(-1000.942 -595.785)"/><path class="l" d="M1131.679,621.3s-27.679,6.508-31.466-10.792-9.911-28.111,7.6-33,22.4.961,25.071,6.428S1138.782,619.162,1131.679,621.3Z" transform="translate(-994.735 -562.117)"/><path class="p" d="M1089.638,604.144c-.378.242-6.334,2.071-17.613-20.4a19.571,19.571,0,0,1,1.151-17.9c4.128-6.742,18.762-12.043,30.921-14.351s15.078,4.534,17.942,11.411c3.005,7.218,11.686,13.16,11.686,13.16-10.485,5.857-23.114-2.52-27.488-1.142s-5.92,8.272-6.249,10.483-.833,4.046-6.334,2.072-2.487,7.8-1.607,9.665C1092.045,597.145,1092.793,602.122,1089.638,604.144Z" transform="translate(-983.213 -551.039)"/><g transform="translate(0 212.509)"><path class="m" d="M947.133,1398.045H930.372c-3.513,0-7.417-3.564-8.395-10.091s-8.2-10.092-9.763-15.435,6.446-12.866,6.446-12.866l1.338-1.743,1.393-1.817,13.276,3.164s.328,3.2.532,7.284c.143,2.946.22,6.353.054,9.339-.391,7.125,1.969,14.8,8.214,16.183S947.133,1398.045,947.133,1398.045Z" transform="translate(-912.012 -1125.476)"/><path class="m" d="M1149.02,1412.263h-44.427a3.946,3.946,0,0,1-.944-.282c-2.966-1.529-2.037-13.222-1.68-16.834.069-.669.117-1.061.117-1.061s15.622-12.865,17.773-3.014c.068.307.146.609.229.906v0c2.713,9.217,14.836,13.4,21.838,14.57C1147.276,1407.449,1148.664,1410.659,1149.02,1412.263Z" transform="translate(-997.221 -1139.532)"/><path class="q" d="M1117.383,962.5s-2.373,29.6-5.161,65.182c-3.79,48.336-8.348,107.709-8.8,118.956-.779,19.531-3.907,50.773-3.907,50.773s-7.417,7.422-22.261,4.294c0,0-13.228-44.6-17.006-91.785-.059-.774-.117-1.553-.176-2.332-3.514-48.036-8.98-149.189-8.98-149.189Z" transform="translate(-974.539 -946.686)"/><path class="r" d="M1117.383,962.5s-2.373,29.6-5.161,65.182l-51.973,82.237c-.059-.774-.117-1.553-.176-2.332-3.514-48.036-8.98-149.189-8.98-149.189Z" transform="translate(-974.539 -946.686)"/><path class="q" d="M1049.45,956.449s-42.765,107.2-70.884,157.584-36.906,64.44-36.906,64.44-16.111-6.444-17.575-10.837c0,0,10.753-97.262,29.584-120.971,10.64-13.4,23.14-53.6,23.725-67.662s3.808-41.885,3.808-41.885Z" transform="translate(-917.44 -937.117)"/></g><g transform="translate(13.143 81.1)"><path class="h" d="M956.844,935.483s-1.107,13.388-1.919,15.444-6.218,8.429-6.844,8.337-1-.594-.684-1.891,2.181-5.306,1.591-5.2-6.779,11.392-9.243,10.756-4.875-8.661-3.409-14.33,11.42-14.571,11.8-15.484C951.36,925.367,956.844,935.483,956.844,935.483Z" transform="translate(-935.89 -802.596)"/><path class="s" d="M960.812,834.662c4.734,1.519,5.492,1.176,5.492,1.176s23.038-41.944,25.372-45.784,48.915-47.036,48.915-47.036l-11.971-44.639s-52.98,68.607-58.7,78.452c-9.454,16.268-14.994,54.05-14.994,54.05A13.851,13.851,0,0,0,960.812,834.662Z" transform="translate(-944.447 -698.379)"/></g><path class="n" d="M1113.146,752.39c-.166,9.168-.7,19.473-1.417,29.94q-.067.931-.132,1.862c-.46,6.484-.958,12.984-1.53,19.321-.229,2.541-.473,5.053-.728,7.52l-.04.333c-.02.924-.132,1.925-.234,2.839-2.335,23.738-4.784,42.492-5.238,42.781a2.666,2.666,0,0,1-1.823.464c-6.225-.782-24.8.63-40.005-2.678-12.832-2.707-23.88-7.838-35.588-14.757-1.554-.918-5.1-3.352-4.809-5.169.284-2,.807-4.887,1.471-8.517,2.306-12.627,6.288-34.347,7.647-59.766q.4-7.1,1.148-14.01a212.65,212.65,0,0,1,6.2-33.458c5.214-18.773,12.875-33.149,22.487-38.773,1.256-.7,8.013,3.6,14.22,7.578a27.4,27.4,0,0,0,17.635,4.178l5.165,5.712c6.255,7.271,12.914,16.952,14.732,30.711q.205,1.525.352,3.245A201.836,201.836,0,0,1,1113.146,752.39Z" transform="translate(-961.273 -609.126)"/><path class="s" d="M1153.146,785.845c-.166,9.168-.7,19.472-1.417,29.939q-.067.932-.132,1.862c-35.558-22.258-41.037-62.987-41.037-62.987,17.494.768,31.391,4.789,42.1,10.541A201.67,201.67,0,0,1,1153.146,785.845Z" transform="translate(-1001.273 -642.581)"/><g transform="translate(106.12 90.25)"><path class="n" d="M1261.964,730.62c-1.833-4.959-4.683-4.636-4.683-4.636s-52.869,13.176-57.614,13.741-56.933-20.378-56.933-20.378-20.542-9.219-30.164-.8c-8.361,7.315-8.742,16.582-6.785,24.363a23.264,23.264,0,0,0,19.664,17.332c21.291,2.712,63.772,7.817,72.675,6.578,19.817-2.759,64.717-28.679,64.717-28.679A16.636,16.636,0,0,0,1261.964,730.62Z" transform="translate(-1104.806 -715.002)"/></g></g><g transform="translate(586.089)"><g transform="translate(128.223 189.515)"><path class="m" d="M2315.724,916.8s7.344,6.808,5.912,11.645-8.062,8.061-8.958,13.974-4.479,9.137-7.7,9.137H2289.6s-2.374-4.16,3.36-5.415,7.894-8.2,7.536-14.651a115.384,115.384,0,0,1,.538-15.049l12.181-2.867Z" transform="translate(-2182.452 -701.439)"/><path class="m" d="M2137.06,963.193c-.745.375-3.365.632-6.957.8h-34.768c.117-1.034.927-4.721,6.611-5.638,6.424-1.044,17.549-4.777,20.029-12.992.084-.262.155-.534.216-.8,1.969-8.778,16.3,2.686,16.3,2.686s.041.351.1.949C2138.931,951.426,2139.777,961.837,2137.06,963.193Z" transform="translate(-2095.335 -713.884)"/><path class="t" d="M2110.44,551.467s2.177,27.158,4.735,59.8c3.478,44.346,7.659,98.818,8.073,109.137.715,17.919,3.584,46.582,3.584,46.582s6.8,6.81,20.424,3.939c0,0,12.136-40.917,15.6-84.209.053-.709.107-1.424.161-2.139,3.225-44.072,8.239-136.875,8.239-136.875Z" transform="translate(-2102.126 -536.956)"/><path class="m" d="M2110.44,551.467s2.177,27.158,4.735,59.8l47.684,75.449c.053-.709.107-1.424.161-2.139,3.225-44.072,8.239-136.875,8.239-136.875Z" transform="translate(-2102.126 -536.956)"/><path class="t" d="M2128.5,545.913s39.234,98.356,65.032,144.576,33.86,59.122,33.86,59.122,14.781-5.913,16.124-9.943c0,0-9.865-89.233-27.142-110.985-9.762-12.292-21.229-49.177-21.767-62.077s-3.494-38.428-3.494-38.428Z" transform="translate(-2110.246 -528.176)"/></g><g transform="translate(0 75.474)"><path class="l" d="M1887.846,461.593s-10.642-2.433-12.434-2.311-8.057,2.744-8.14,3.252.213.921,1.3.994,4.646-.385,4.42.047-10.49,2.449-10.6,4.515,5.509,5.905,10.261,6.162,14.093-5.263,14.894-5.333C1894.333,468.326,1887.846,461.593,1887.846,461.593Z" transform="translate(-1862.384 -383.161)"/><path class="r" d="M1899.381,402.127c-1.526-4.861-1.169-5.636-1.169-5.636s43.139-23.326,47.089-25.692,48.531-49.808,48.531-49.808L2039.5,333.56s-70.664,53.829-80.79,59.625c-16.735,9.579-55.491,15-55.491,15A14.188,14.188,0,0,1,1899.381,402.127Z" transform="translate(-1878.475 -320.991)"/></g><path class="l" d="M2066.779,261.747s-16.009,28.167-31.656,31.843c0,0,.652-9.46,4.461-15.933-1.561-1.84-2.93-3.53-4.116-5.044a94.588,94.588,0,0,1-5.812-8.136l5.311-14.277,3.6-9.686a46.551,46.551,0,0,0,5.631,8.113C2054.456,260.417,2066.779,261.747,2066.779,261.747Z" transform="translate(-1937.585 -209.337)"/><path class="h" d="M2044.2,255.25s1.91,14.115-8.733,23.987a94.591,94.591,0,0,1-5.812-8.136l5.311-14.277A30.332,30.332,0,0,1,2044.2,255.25Z" transform="translate(-1937.585 -215.96)"/><path class="l" d="M2005.46,250.15s23.919-9.325,17.882-24.13-7.015-25.981-22.541-20.653-16.172,12.179-15.359,17.611S1999.083,252.194,2005.46,250.15Z" transform="translate(-1917.607 -192.928)"/><path class="q" d="M2152.166,420.418c-9.651,13.872-81.789,32.407-80.934,22.8a104.364,104.364,0,0,0-.01-18.939q-.271-3.086-.767-6.543c-1.833-12.616-6.187-28.84-15.9-47.618-.729-1.408-1.486-2.825-2.272-4.261a146.765,146.765,0,0,1-10-22.473c-5-14.444-7.012-28.263-4.491-37.3a1.217,1.217,0,0,1,.04-.127c15.079-6.973,20.923-34.015,20.923-34.015s51.447,9.236,80.264,77.812C2139.021,349.76,2160.562,408.343,2152.166,420.418Z" transform="translate(-1940.754 -223.468)"/><path class="r" d="M2085.8,471.737q-.271-3.086-.767-6.543c-1.833-12.616-6.187-28.84-15.9-47.618,1.666-10.106,3.968-18.51,6.494-22.292,10.261-15.378,16.237-17.782,16.237-17.782S2107.261,442.394,2085.8,471.737Z" transform="translate(-1955.336 -270.922)"/><g transform="translate(19.701 61.962)"><path class="l" d="M1927.846,520.655s-14.231.748-16.438,1.542-9.136,6.325-9.059,6.992.6,1.079,1.982.785,5.7-2.144,5.567-1.521-12.3,6.824-11.7,9.458,9.029,5.445,15.087,4.071,15.815-11.644,16.8-12.019C1938.4,526.792,1927.846,520.655,1927.846,520.655Z" transform="translate(-1898.177 -397.242)"/><path class="q" d="M1945.967,425.253c-2.851-4.606-.8-6.708-.8-6.708s43.965-34.423,47.411-37.9,19.409-58.85,19.409-58.85,5.494-22.41,18.361-24.882c11.18-2.147,18.908,3.384,23.964,9.869a23.844,23.844,0,0,1,1.615,26.814c-11.226,18.915-33.87,56.461-40.483,62.876-14.717,14.276-63.958,34.227-63.958,34.227A17.056,17.056,0,0,1,1945.967,425.253Z" transform="translate(-1918.982 -296.443)"/></g><path class="i" d="M2019.494,189.46c.168-.331.654-.685,1.843-1.048a4.974,4.974,0,0,0-2.408-.089c-.671-1.639-2.3-4.429-5.366-4.451a3.774,3.774,0,0,1,2.4,2.215c-4.2-2.659-11.972-3.431-31.387,3.035-25.586,8.522-12.8,23.375-8.926,24.566s11.017-6.452,17.438-7.5,9.895,7.9,12.343,8.643,1.056-1.293,3.619-3.332,4.035,2.757,3.979,6.125,4.943,6.56,4.943,6.56l2.931-5.377c2.931-5.377,2.134-24.9-.667-28.41C2019.994,190.091,2019.747,189.776,2019.494,189.46Z" transform="translate(-1910.326 -183.872)"/></g><path class="u" d="M1269.982,1431.284v28.957l-68.542-28.957Z" transform="translate(-979.154 -744.672)"/><rect class="c" width="226.677" height="297.731" transform="translate(650.734 439.628)"/><rect class="d" width="226.681" height="297.731" transform="translate(580.838 439.63)"/><path class="u" d="M2334.562,982.575v44.52l-69.891-44.52Z" transform="translate(-1457.151 -542.945)"/></g></g></svg>