<svg xmlns="http://www.w3.org/2000/svg" xmlns:xlink="http://www.w3.org/1999/xlink" width="1631.781" height="1631.367" viewBox="0 0 1631.781 1631.367"><defs><style>.a{fill:none;}.b,.f{opacity:0.3;}.b{clip-path:url(#a);}.c,.d,.e,.f{fill:#f9bfa0;}.d,.e,.f{mix-blend-mode:multiply;isolation:isolate;}.e{opacity:0.5;}.g{fill:#ffd5ca;}.h{fill:#fff1ee;}</style><clipPath id="a"><rect class="a" width="1163.562" height="1161.161" transform="translate(1163.562 1161.161) rotate(180)"/></clipPath></defs><g class="b" transform="matrix(0.788, 0.616, -0.616, 0.788, 714.882, 0)"><g transform="translate(147.995 672.356)"><path class="c" d="M194.154,0,146.4,8.2l-46.01,7.9L63.764,48.626l-5.885,5.227-5.962,5.3-28.823,25.6L0,105.267,29.776,116.3l9.676,13.657L70.341,91.526,73.6,87.459,104.14,49.4l51.32-12.741A53.864,53.864,0,0,0,192.966,3.188Z" transform="translate(49.62 153.678)"/><path class="d" d="M194.154,0,146.4,8.2l-46.01,7.9L63.764,48.626l-5.885,5.227-5.962,5.3-28.823,25.6L0,105.267,29.776,116.3l9.676,13.657L70.341,91.526,73.6,87.459,104.14,49.4l51.32-12.741A53.864,53.864,0,0,0,192.966,3.188Z" transform="translate(49.62 153.678)"/><path class="c" d="M208.339,0l-88.15,27.873-18.008,5.706L90.159,47.622l0,.019L70.343,70.777,21.29,128.092,0,152.986l39.932,8.872,9.531,11.26L72.636,134.4l6.339-7.877L111.84,71.612l44.715-17.861,12.763-5.092A62.994,62.994,0,0,0,207.462,3.885Z" transform="translate(39.464 108.123)"/><path class="e" d="M208.339,0l-88.15,27.873-18.008,5.706L90.159,47.622l0,.019L70.343,70.777,21.29,128.092,0,152.986l39.932,8.872,9.531,11.26L78.9,126.648l.079-.125L111.84,71.612l44.715-17.861,12.763-5.092A62.994,62.994,0,0,0,207.462,3.885Z" transform="translate(39.464 108.123)"/><path class="c" d="M164.3,0,132.07,37.31,97.81,70.786,89.364,81.428,86.475,85.02l0,.014-12.066,15.18L39.636,143.928,0,193.761l6.927,1.284,23.879,4.417,11.964,2.209,13.352,2.472,15.466-28.08,10.54-19.119,6.125-11.116.044-.063,20.533-37.312,12.211-17.073,5.182-7.257,18.844-16.738c8.332-7.084,14.69-13.667,19.182-20,7.165-13.983,9.25-32.049.795-46.024Z" transform="translate(29.949 36.761)"/><path class="f" d="M164.3,0,132.07,37.31,97.81,70.786,89.364,81.428,86.475,85.02l0,.014-12.066,15.18L39.636,143.928,0,193.761l6.927,1.284,23.879,4.417,11.964,2.209,13.352,2.472,15.466-28.08,10.54-19.119,6.125-11.116.044-.063,20.533-37.312,12.211-17.073,5.182-7.257,18.844-16.738c8.332-7.084,14.69-13.667,19.182-20,7.165-13.983,9.25-32.049.795-46.024Z" transform="translate(29.949 36.761)"/><path class="g" d="M151.666.171,107.54,57.493C95.865,71.06,95.865,71.06,91.937,76.652L4.353,201.074A23.748,23.748,0,0,0,.537,219.793l2.151,10.014a8.73,8.73,0,0,1,2.306-7.738l4.392-5.9L32.9,222.232,9.917,245.578l39.212,11.639,15.482,7,26.719-28.889-.865-10.521-.018-.3-.016-.021-2.654-32.416-.506-6.294,0-.019-.205-2.355L85.85,168.48l-.2-2.409-.573.279L107.3,119.756l0-.019,5.21-10.942,18.168-23.662,7.311-9.8C158.371,56.707,171.835,19.855,155.17,2.81,153.8,1.406,153.467-.6,151.666.171Z"/></g><path class="c" d="M199.977,49.314S116.265-39.538,53.109,21.29L0,73.906l132.849-6.033Z" transform="translate(81.187 868.825)"/><path class="g" d="M211.062,61.916l-16.4,21.507L108.618,93.607l-75.231,8.9L.023,106.464H0A292.236,292.236,0,0,1,36.276,52.639C58.619,26.505,95.618,7.952,108.432,2.023,111.321.7,112.975,0,112.975,0,168.705,0,211.062,61.916,211.062,61.916Z" transform="translate(70.097 856.228)"/><g transform="translate(-47.491 911.285)"><path class="g" d="M228.676,0l-.559,8.882-1.91,29.668-1.887,29.575L199.762,89.1l-.3.651-7.292,15.6L142.913,210.673l-36.765,75.262L0,227.437,101.139,72.379c5.848-7.742,11.277-14.718,16.449-20.972h.023C148.692,13.88,171.594,1.7,228.676,0Z"/></g><path class="g" d="M262.072,25.264l-37.686,9.042-17.872,4.287-16.9,6.359L67.8,97.023H12.279L0,19.9l10.9-6.043a110.635,110.635,0,0,1,116.905,6.036h0l61.8-18.145s60.635.133,71.536,21.69" transform="translate(133.725 904.009)"/><path class="h" d="M20.785,0l8.634,8.1L0,15.161Z" transform="translate(358.113 923.155)"/><g transform="translate(507.652 318.986)"><path class="c" d="M13.173,226.9,6.458,176.625,0,128.185,21.176,81.421l3.4-7.515,3.451-7.615,16.67-36.8L58.055,0,78.442,26.3,89.35,40.372l-23.08,34.2L63.212,79.1,34.58,121.519l3.269,55.257A56.367,56.367,0,0,1,16,224.716Z" transform="translate(159.663 14.369)"/><path class="d" d="M13.173,226.9,6.458,176.625,0,128.185,21.176,81.421l3.4-7.515,3.451-7.615,16.67-36.8L58.055,0,78.442,26.3,89.35,40.372l-23.08,34.2L63.212,79.1,34.58,121.519l3.269,55.257A56.367,56.367,0,0,1,16,224.716Z" transform="translate(159.663 14.369)"/><path class="c" d="M0,256l.391-96.787.091-19.777,10.328-16.4.019-.007L27.844,95.99,70,29.056,88.318,0l21.391,37.122,8.46,14.678-31.6,35.262-.1.119L41.66,137.188l-3.935,50.261-1.114,14.343A66.031,66.031,0,0,1,3.623,253.905Z" transform="translate(128.396 3.546)"/><path class="c" d="M0,224.756l27.35-43.874,22.868-44.7,8.036-11.767,2.7-4.011.014,0,11.454-16.8L105.4,55.187,143,0l3.453,6.519L158.354,29l5.96,11.263,6.654,12.565L147.634,77.059,131.749,93.567l-9.236,9.6-.049.065-31.01,32.181-13.311,17.54L72.484,160.4l-10.9,24.06c-4.5,10.539-9.114,18.952-14.067,25.42-11.789,11.532-29.261,19.265-45.924,15.19Z" transform="translate(40.052 3.604)"/><path class="e" d="M0,256l.391-96.787.091-19.777,10.328-16.4.019-.007L27.844,95.99,70,29.056,88.318,0l21.391,37.122,8.46,14.678-31.6,35.262-.1.119L41.66,137.188l-3.935,50.261-1.114,14.343A66.031,66.031,0,0,1,3.623,253.905Z" transform="translate(128.396 3.546)"/><path class="f" d="M0,224.756l27.35-43.874,22.868-44.7,8.036-11.767,2.7-4.011.014,0,11.454-16.8L105.4,55.187,143,0l3.453,6.519L158.354,29l5.96,11.263,6.654,12.565L147.634,77.059,131.749,93.567l-9.236,9.6-.049.065-31.01,32.181-13.311,17.54L72.484,160.4l-10.9,24.06c-4.5,10.539-9.114,18.952-14.067,25.42-11.789,11.532-29.261,19.265-45.924,15.19Z" transform="translate(40.052 3.604)"/><path class="c" d="M.039,207.295l47.944-58.81c11.048-15.176,11.048-15.176,15.817-20.528L169.854,8.647A25.028,25.028,0,0,1,188.073.232L198.837,0a9.178,9.178,0,0,0-7.355,4.222l-4.977,5.9L198.4,32.6,216.714,3.546,238.1,40.668l10.908,14.074-23.08,34.2-10.967,1.665-.31.053-.023-.012L180.839,95.79,174.278,96.8l-.019.007-2.458.363L156.24,99.536l-2.514.384.149-.651L111.6,133.17l-.016,0-9.93,7.956-19.8,24.227L73.6,175.177c-14.116,25.266-48.545,47.9-70.01,35.048C1.815,209.164-.317,209.315.039,207.295Z"/></g><path class="c" d="M0,44.52S50.495,103.3,132.916,62.367L180.6,23.125,64.418,0Z" transform="translate(681.339 359.654)"/><g transform="translate(599.325 148.076)"><path class="g" d="M.023,293.48a34.748,34.748,0,0,0,6.61,5.445,36.16,36.16,0,0,0,13.276,5.159l.016,0a35.9,35.9,0,0,0,27.609-6.6l.019-.007c.631-.46,1.23-.951,1.838-1.465l21.449-18.268.058-.063,11.689-9.968.019-.007,9.965-8.521,8.35-7.119,3.935,1.881q8.867,4.216,18.105,7.612l.023.012c.068.016.142.049.21.065q3.981,1.475,8.008,2.746c69.085,22.32,149.473,10.2,190.508-49.221l1.694-2.46L471.946,91.951,384.308,0,323.718,63.676,241.108,153.5,228.364,167.35,108.084,170.9l-.757.014c-.042,0-.079.009-.121,0-.019.007-.019.007-.042,0a9.177,9.177,0,0,0-7.355,4.222l-4.977,5.9L84.823,192.9,53.783,229.7,22.63,266.646,0,293.468Z"/><path class="h" d="M22.605,0,14.953,26.035,0,26.835Z" transform="translate(0.024 266.646)"/></g></g></svg>