<svg xmlns="http://www.w3.org/2000/svg" xmlns:xlink="http://www.w3.org/1999/xlink" width="690.975" height="676.657" viewBox="0 0 690.975 676.657"><defs><style>.a{fill:none;}.b{opacity:0.15;}.c{fill:#ffdb9b;}.d{fill:#7948c7;}.e{fill:#22c6c6;}.f{clip-path:url(#a);}.g{fill:#fffdff;}.h{fill:#2d2d52;}</style><clipPath id="a"><path class="a" d="M-96.893,361.624s52.939,7.123,89.01-26.941S75.445,218.841,139.569,208.822s113.161,64.359,169.274,36.3,77.712-51.331,77.712-51.331l14.03,4.007s-19.063,72.906-85.668,106.207c-46.7,23.348-97.816-4.277-97.816-4.277L227.3,387.105s-43.5,22.468-80.091,18.91c-26.577-2.583-49.515-7.26-49.515-7.26l-8.735-88.83S58.46,348.314,5.306,372.144c-58.113,26.053-102.2,9.518-102.2,9.518Z" transform="translate(96.893 -193.794)"/></clipPath></defs><g class="b" transform="translate(144.475 -168.293)"><path class="c" d="M23.968,227.2s-2.215-19.936-1.108-22.519,3.323-9.232,5.538-11.815,10.336-2.215,17.353-1.108S62,209.845,59.414,215.015s-21.92,14.4-21.92,14.4Z" transform="translate(486.643 65.898)"/><path d="M83.407,179.54s-33.027-16.492-53.385-9.533C-19.469,186.924-21.215,222.675-6.2,244.364c17.161,24.785-76.264,22.879-55.291,83.888s-34.451,29.825-24.785,55.291,113.764,34.819,182.4-35.723,50.2-13.846,73.078-50.07c14.065-22.272-1.785-69.947-43.852-112.488C108.614,168.331,83.407,179.54,83.407,179.54Z" transform="translate(166.231 0)"/><path class="c" d="M-40.385,184.8c-10.441,9.048,4.336,78.518,4.336,78.518l39.316-5.459S-25.13,171.579-40.385,184.8Z" transform="translate(292.399 44.087)"/><path class="d" d="M-129.81,493.195l14.692,23.4S144.814,344.029,210.347,339.661c19.56-1.307-36.561,57.616-34.224,85.915,3.381,40.881,58.25,172.561,58.25,172.561l25.485-13.107s-43.3-135.046-25.485-153.631c24.62-25.693,111.975-106.046,72.812-179.477S-129.81,493.195-129.81,493.195Z" transform="translate(42.728 211.3)"/><path class="e" d="M-96.893,351.132s41.9-6.109,84.639-31.312c42.6-25.117,87.7-111.471,151.823-121.489s116.441,64.359,172.55,36.3S373.28,197.5,373.28,197.5l10.751,10.919s-2.509,51.8-69.114,85.1c-46.7,23.348-97.816-4.277-97.816-4.277L227.3,376.614s-43.5,22.468-80.091,18.91c-26.577-2.583-49.515-7.26-49.515-7.26l-8.735-88.83S58.46,337.822,5.306,361.652c-58.113,26.053-102.2,9.518-102.2,9.518Z" transform="translate(138.634 84.79)"/><path class="c" d="M10.1,201.179a32.831,32.831,0,0,0-39.911-23.724,32.831,32.831,0,0,0-23.724,39.911c.677,2.65,1.342,5.483,2.039,8.363-1.765,4.246-3.276,8.719-1.847,8.813a18.284,18.284,0,0,0,4-.5c3.788,13.334,9.377,25.043,21.752,21.9C-10.016,251.465,14.573,218.751,10.1,201.179Z" transform="translate(261.998 23.719)"/><path d="M-52.474,190.539s17.11-8.739,21.846,2.912c8.813,21.7,11.283,11.651,11.283,11.651s-.364-7.827,5.1-5.823,6.367,14.559,1.272,19.11S2.5,234.954,11.419,229.855,18.334,190.539.86,180.164-52.655,176.7-52.474,190.539Z" transform="translate(268.049 20.031)"/><path class="c" d="M-61.9,248.772s-16.989-15.995-23.986-15.995a22.023,22.023,0,0,0-15.326,5.667c-4,3.33-7.663,29.649-1.335,31.316s28.15-.673,34.064-3.334S-61.9,248.772-61.9,248.772Z" transform="translate(112.219 187.878)"/><g transform="translate(41.741 268.092)"><g class="f"><path class="c" d="M-49.591,222.494s39.316,30.581,76.452,20.75,48.055-48.055,48.055-48.055l-88.466,1.092Z" transform="translate(234.711 -189.73)"/></g></g><path class="g" d="M-88.409,325.272s-56.066-34.013-56.066-25.387,36.075,65.087,46.27,62.735a58.086,58.086,0,0,0,28.726-16.934Z" transform="translate(0 379.318)"/><path class="g" d="M-6.888,340.777S-54,371.134-46.431,377.271s73.243-13.154,78.984-14.289S18.6,328.4,18.6,328.4Z" transform="translate(283.26 466.478)"/><path class="h" d="M-28.042,196.864c.023.309,2.372,28.792,1.354,39.2q2.09-.922,4.051-1.957c.591-12.112-1.409-36.388-1.507-37.563Z" transform="translate(339.237 82.308)"/></g></svg>