<svg xmlns="http://www.w3.org/2000/svg" width="28.953" height="21.715" viewBox="0 0 28.953 21.715"><path d="M25.334,10.532V9.325l-3.619,2.413L18.1,9.325v1.206l3.619,2.413ZM26.54,4.5H2.413A2.42,2.42,0,0,0,0,6.913V23.8a2.42,2.42,0,0,0,2.413,2.413H26.54a2.41,2.41,0,0,0,2.4-2.413l.012-16.889A2.42,2.42,0,0,0,26.54,4.5ZM9.651,8.119a3.619,3.619,0,1,1-3.619,3.619A3.614,3.614,0,0,1,9.651,8.119ZM16.889,22.6H2.413V21.389c0-2.413,4.825-3.74,7.238-3.74s7.238,1.327,7.238,3.74Zm9.651-7.238H16.889V8.119H26.54Z" transform="translate(0 -4.5)"/></svg>