<svg xmlns="http://www.w3.org/2000/svg" width="48.74" height="48.732" viewBox="0 0 48.74 48.732"><defs><style>.a{stroke:#000;}</style></defs><g transform="translate(0.611 0.61)"><path class="a" d="M23.759,13.812a12.181,12.181,0,1,0,12.18,12.181A12.161,12.161,0,0,0,23.759,13.812Zm0,20.1a7.919,7.919,0,1,1,7.919-7.919,7.933,7.933,0,0,1-7.919,7.919Zm15.519-20.6a2.841,2.841,0,1,1-2.841-2.841A2.834,2.834,0,0,1,39.278,13.314ZM47.345,16.2c-.18-3.806-1.049-7.177-3.837-9.955S37.359,2.6,33.554,2.4c-3.922-.223-15.678-.223-19.6,0-3.8.18-7.166,1.05-9.954,3.827S.353,12.381.162,16.187c-.223,3.923-.223,15.68,0,19.6C.342,39.595,1.211,42.966,4,45.744s6.148,3.647,9.954,3.838c3.922.223,15.678.223,19.6,0,3.806-.18,7.177-1.05,9.954-3.838s3.647-6.149,3.837-9.955c.223-3.923.223-15.669,0-19.592ZM42.278,40a8.017,8.017,0,0,1-4.516,4.516c-3.127,1.24-10.548.954-14,.954s-10.887.276-14-.954A8.017,8.017,0,0,1,5.239,40c-1.24-3.127-.954-10.548-.954-14s-.276-10.888.954-14A8.017,8.017,0,0,1,9.755,7.472c3.127-1.24,10.548-.954,14-.954s10.887-.276,14,.954a8.017,8.017,0,0,1,4.516,4.516c1.24,3.127.954,10.548.954,14S43.518,36.881,42.278,40Z" transform="translate(0.005 -2.238)"/></g></svg>